<?xml version="1.0" encoding="utf-8"?>
<!-- Generator: Adobe Illustrator 19.0.0, SVG Export Plug-In . SVG Version: 6.00 Build 0)  -->
<svg version="1.1" id="Layer_1" xmlns="http://www.w3.org/2000/svg" xmlns:xlink="http://www.w3.org/1999/xlink" x="0px" y="0px"
	 viewBox="0 0 535 115" style="enable-background:new 0 0 535 115;" xml:space="preserve">
<style type="text/css">
	.st0{fill-rule:evenodd;clip-rule:evenodd;fill:url(#XMLID_8_);}
	.st1{fill-rule:evenodd;clip-rule:evenodd;fill:url(#XMLID_9_);}
	.st2{fill:url(#XMLID_10_);}
	.st3{fill:url(#XMLID_13_);}
	.st4{fill:url(#XMLID_19_);}
	.st5{fill:#FFFFFF;}
	.st6{fill:url(#XMLID_20_);}
	.st7{fill:url(#XMLID_21_);}
	.st8{fill:#172433;}
</style>
<linearGradient id="XMLID_8_" gradientUnits="userSpaceOnUse" x1="-0.1" y1="57.5" x2="474.9" y2="57.5">
	<stop  offset="0" style="stop-color:#D59631"/>
	<stop  offset="0.5" style="stop-color:#FAEBA0"/>
	<stop  offset="1" style="stop-color:#D59631"/>
</linearGradient>
<path id="XMLID_2_" class="st0" d="M-0.1,7.5h460c8.3,0,15,6.7,15,15v85h-475V7.5z"/>
<linearGradient id="XMLID_9_" gradientUnits="userSpaceOnUse" x1="-0.1" y1="57.5" x2="473.9" y2="57.5">
	<stop  offset="0" style="stop-color:#162433"/>
	<stop  offset="1" style="stop-color:#194777"/>
</linearGradient>
<path id="XMLID_43_" class="st1" d="M-0.1,9.5h459c8.3,0,15,6.7,15,15v81h-474V9.5z"/>
<linearGradient id="XMLID_10_" gradientUnits="userSpaceOnUse" x1="435.0842" y1="11.1188" x2="519.2415" y2="104.9068" gradientTransform="matrix(1 0 0 -1 0 116)">
	<stop  offset="0" style="stop-color:#EEBE47"/>
	<stop  offset="0.1268" style="stop-color:#F8DB7C"/>
	<stop  offset="0.2097" style="stop-color:#FFEE96"/>
	<stop  offset="0.4462" style="stop-color:#A36428"/>
	<stop  offset="0.6667" style="stop-color:#EEA54E"/>
	<stop  offset="1" style="stop-color:#EEBE47"/>
</linearGradient>
<circle id="XMLID_382_" class="st2" cx="477.6" cy="57.5" r="57.5"/>
<radialGradient id="XMLID_13_" cx="440.2141" cy="103.7502" r="101.5728" gradientTransform="matrix(1 0 0 -1 0 116)" gradientUnits="userSpaceOnUse">
	<stop  offset="0.1022" style="stop-color:#941B1F"/>
	<stop  offset="0.4152" style="stop-color:#551A18"/>
	<stop  offset="0.5645" style="stop-color:#3F1413"/>
	<stop  offset="1" style="stop-color:#1C1111"/>
</radialGradient>
<circle id="XMLID_185_" class="st3" cx="477.6" cy="57.5" r="55.8"/>
<linearGradient id="XMLID_19_" gradientUnits="userSpaceOnUse" x1="412.1798" y1="117.5928" x2="547.1724" y2="-4.3435" gradientTransform="matrix(1 0 0 -1 0 116)">
	<stop  offset="0" style="stop-color:#EEBE47"/>
	<stop  offset="0.1268" style="stop-color:#F8DB7C"/>
	<stop  offset="0.2097" style="stop-color:#FFEE96"/>
	<stop  offset="0.4462" style="stop-color:#A36428"/>
	<stop  offset="0.6667" style="stop-color:#EEA54E"/>
	<stop  offset="1" style="stop-color:#EEBE47"/>
</linearGradient>
<circle id="XMLID_380_" class="st4" cx="477.6" cy="57.5" r="52.3"/>
<circle id="XMLID_379_" class="st5" cx="477.6" cy="57.5" r="50.7"/>
<g id="XMLID_4_">
	
		<linearGradient id="XMLID_20_" gradientUnits="userSpaceOnUse" x1="462.4" y1="46.4141" x2="462.4" y2="83.4688" gradientTransform="matrix(1 0 0 -1 0 116)">
		<stop  offset="0" style="stop-color:#8E191C"/>
		<stop  offset="1" style="stop-color:#C32327"/>
	</linearGradient>
	<path id="XMLID_5_" class="st6" d="M455,50.5c-3.6-1.8-5.4-4.5-5.4-7.9c0-3,1.3-5.5,3.8-7.3c2.5-1.8,5.6-2.7,9.4-2.7
		c4.1,0,7.2,1,9.5,2.9c1.9,1.7,2.9,3.8,2.9,6.2c0,3.5-1.8,6.1-5.5,8h-0.1c2,0.7,3.7,1.8,4.9,3.2c1.4,1.6,2.1,3.5,2.1,5.7
		c0,3.3-1.3,5.9-4,7.9c-2.7,2-6.1,3-10.5,3c-4.5,0-8-1.1-10.5-3.2c-2.2-1.9-3.4-4.1-3.4-6.8C448.2,55.4,450.4,52.4,455,50.5
		L455,50.5L455,50.5z M466.1,55.5c-1-0.9-2.4-1.6-4.2-2.1c-3,0.8-4.6,2.6-4.6,5.4c-0.1,3,1.7,4.5,5.3,4.5c3.4,0,5.1-1.3,5.1-3.9
		C467.7,57.8,467.2,56.5,466.1,55.5z M463.2,47.2c2.5-0.6,3.8-2.1,3.8-4.5c0-2.7-1.5-4.1-4.5-4.1s-4.5,1.2-4.5,3.7
		C457.9,44.6,459.7,46.2,463.2,47.2z"/>
	
		<linearGradient id="XMLID_21_" gradientUnits="userSpaceOnUse" x1="492.6" y1="46.4141" x2="492.6" y2="83.4688" gradientTransform="matrix(1 0 0 -1 0 116)">
		<stop  offset="0" style="stop-color:#8E191C"/>
		<stop  offset="1" style="stop-color:#C32327"/>
	</linearGradient>
	<path id="XMLID_7_" class="st7" d="M485.2,50.5c-3.6-1.8-5.4-4.5-5.4-7.9c0-3,1.3-5.5,3.8-7.3s5.6-2.7,9.4-2.7c4.1,0,7.2,1,9.5,2.9
		c1.9,1.7,2.9,3.8,2.9,6.2c0,3.5-1.8,6.1-5.5,8h-0.1c2,0.7,3.7,1.8,4.9,3.2c1.4,1.6,2.1,3.5,2.1,5.7c0,3.3-1.3,5.9-4,7.9
		c-2.7,2-6.1,3-10.5,3c-4.5,0-8-1.1-10.5-3.2c-2.2-1.9-3.4-4.1-3.4-6.8c0-4.1,2.2-7.1,6.7-9v0H485.2z M496.3,55.5
		c-1-0.9-2.4-1.6-4.2-2.1c-3,0.8-4.6,2.6-4.6,5.4c-0.1,3,1.7,4.5,5.3,4.5c3.4,0,5.1-1.3,5.1-3.9C497.9,57.8,497.4,56.5,496.3,55.5z
		 M493.4,47.2c2.5-0.6,3.8-2.1,3.8-4.5c0-2.7-1.5-4.1-4.5-4.1s-4.5,1.2-4.5,3.7C488.1,44.6,489.9,46.2,493.4,47.2z"/>
</g>
<g id="XMLID_11_">
	<path id="XMLID_12_" class="st8" d="M468.9,95.8c-0.7,0.2-1.4,0.2-2.3,0.2c-1,0-1.8-0.2-2.6-0.5c-0.8-0.3-1.4-0.8-2-1.5
		c-0.6-0.7-1-1.4-1.3-2.4s-0.4-2-0.4-3.1c0-1.2,0.2-2.2,0.5-3.1c0.3-0.9,0.8-1.7,1.3-2.4s1.3-1.2,2.1-1.5c0.8-0.3,1.7-0.5,2.7-0.5
		c0.7,0,1.4,0.1,2,0.2c0.6,0.1,1.1,0.3,1.5,0.6l-0.9,2.2c-0.3-0.2-0.6-0.3-1-0.4c-0.4-0.1-0.9-0.2-1.5-0.2c-0.5,0-1.1,0.1-1.5,0.3
		c-0.4,0.2-0.9,0.5-1.2,0.9c-0.3,0.4-0.6,0.9-0.8,1.6c-0.2,0.7-0.4,1.4-0.4,2.3s0.1,1.6,0.3,2.3c0.2,0.7,0.4,1.2,0.7,1.6
		s0.7,0.7,1.1,1s0.8,0.3,1.3,0.3c0.3,0,0.6,0,0.9-0.1c0.3-0.1,0.4-0.1,0.6-0.2v-4h-2.1v-2.1h4.7v8C470.1,95.4,469.6,95.6,468.9,95.8
		z"/>
	<path id="XMLID_14_" class="st8" d="M480,95.8v-6.2h-4.3v6.2H473V81.3h2.7v6h4.3v-6h2.7v14.5H480z"/>
	<path id="XMLID_16_" class="st8" d="M485.2,95.8V81.3h7.4v2.4h-4.7v3.6h4.3v2.3h-4.3v3.8h4.7v2.4C492.6,95.8,485.2,95.8,485.2,95.8
		z M491.2,80.8L489,79l-2.3,1.7l-0.9-0.7l2.2-2.2c0.3-0.3,0.6-0.4,0.9-0.4c0.4,0,0.7,0.1,0.9,0.4L492,80L491.2,80.8z M491.2,78.7
		l1.2-2.6c0.3-0.4,0.7-0.6,1.3-0.6c0.6,0,1,0.2,1.1,0.6l-2.3,2.6H491.2z"/>
</g>
</svg>
