<?xml version="1.0" encoding="utf-8"?>
<!-- Generator: Adobe Illustrator 19.0.0, SVG Export Plug-In . SVG Version: 6.00 Build 0)  -->
<svg version="1.1" id="Layer_1" xmlns="http://www.w3.org/2000/svg" xmlns:xlink="http://www.w3.org/1999/xlink" x="0px" y="0px"
	 viewBox="0 0 210 46" style="enable-background:new 0 0 210 46;" xml:space="preserve">
<style type="text/css">
	.st0{fill-rule:evenodd;clip-rule:evenodd;fill:url(#XMLID_5_);}
	.st1{fill-rule:evenodd;clip-rule:evenodd;fill:url(#SVGID_1_);}
</style>
<linearGradient id="XMLID_5_" gradientUnits="userSpaceOnUse" x1="0" y1="23" x2="210" y2="23">
	<stop  offset="0" style="stop-color:#D59631"/>
	<stop  offset="0.5" style="stop-color:#FAEBA0"/>
	<stop  offset="1" style="stop-color:#D59631"/>
</linearGradient>
<path id="XMLID_2_" class="st0" d="M8,0h194c4.4,0,8,3.6,8,8v30c0,4.4-3.6,8-8,8H8c-4.4,0-8-3.6-8-8V8C0,3.6,3.6,0,8,0z"/>
<linearGradient id="SVGID_1_" gradientUnits="userSpaceOnUse" x1="2" y1="23" x2="208" y2="23">
	<stop  offset="0" style="stop-color:#8D191B"/>
	<stop  offset="0.5" style="stop-color:#C32126"/>
	<stop  offset="0.9949" style="stop-color:#8E1A1C"/>
</linearGradient>
<path class="st1" d="M10,2h190c4.4,0,8,3.6,8,8v26c0,4.4-3.6,8-8,8H10c-4.4,0-8-3.6-8-8V10C2,5.6,5.6,2,10,2z"/>
</svg>
