<?xml version="1.0" encoding="utf-8"?>
<!-- Generator: Adobe Illustrator 19.0.0, SVG Export Plug-In . SVG Version: 6.00 Build 0)  -->
<svg version="1.1" id="Layer_1" xmlns="http://www.w3.org/2000/svg" xmlns:xlink="http://www.w3.org/1999/xlink" x="0px" y="0px"
	 viewBox="0 0 56 56" style="enable-background:new 0 0 56 56;" xml:space="preserve">
<style type="text/css">
	.st0{fill-rule:evenodd;clip-rule:evenodd;fill:url(#XMLID_6_);}
	.st1{fill-rule:evenodd;clip-rule:evenodd;fill:url(#SVGID_1_);}
	.st2{fill:#FFFFFF;}
</style>
<linearGradient id="XMLID_6_" gradientUnits="userSpaceOnUse" x1="56" y1="28" x2="0" y2="28">
	<stop  offset="0" style="stop-color:#D59631"/>
	<stop  offset="0.5" style="stop-color:#FAEBA0"/>
	<stop  offset="1" style="stop-color:#D59631"/>
</linearGradient>
<path id="XMLID_2_" class="st0" d="M28,0c15.5,0,28,12.5,28,28S43.5,56,28,56C12.5,56,0,43.5,0,28S12.5,0,28,0z"/>
<linearGradient id="SVGID_1_" gradientUnits="userSpaceOnUse" x1="9.6153" y1="46.3847" x2="46.3848" y2="9.6152">
	<stop  offset="0" style="stop-color:#8D191B"/>
	<stop  offset="1" style="stop-color:#C32126"/>
</linearGradient>
<path class="st1" d="M28,2c14.4,0,26,11.6,26,26S42.4,54,28,54S2,42.4,2,28S13.6,2,28,2z"/>
<path class="st2" d="M39.5,35l-3.7-3.7c-0.7-0.7-2-0.7-2.7,0.1l-1.9,1.9c-0.1-0.1-0.2-0.1-0.4-0.2c-1.2-0.7-2.8-1.6-4.5-3.3
	c-1.7-1.7-2.6-3.3-3.3-4.5c-0.1-0.1-0.1-0.2-0.2-0.4l1.3-1.3l0.6-0.6c0.8-0.8,0.8-2,0-2.7l-3.7-3.7c-0.7-0.7-2-0.7-2.7,0.1l-1,1.1
	l0,0c-0.4,0.4-0.6,1-0.9,1.5c-0.2,0.5-0.3,1-0.4,1.5c-0.5,4.1,1.4,7.8,6.4,12.8c7,7,12.6,6.4,12.8,6.4c0.5-0.1,1-0.2,1.5-0.4
	c0.6-0.2,1.1-0.5,1.5-0.9l0,0l1.1-1C40.2,36.9,40.2,35.7,39.5,35z"/>
</svg>
