<?xml version="1.0" encoding="utf-8"?>
<!-- Generator: Adobe Illustrator 19.0.0, SVG Export Plug-In . SVG Version: 6.00 Build 0)  -->
<svg version="1.1" id="Layer_1" xmlns="http://www.w3.org/2000/svg" xmlns:xlink="http://www.w3.org/1999/xlink" x="0px" y="0px"
	 viewBox="-59 456.1 210 49.9" style="enable-background:new -59 456.1 210 49.9;" xml:space="preserve">
<style type="text/css">
	.st0{fill:#FFFFFF;}
	.st1{fill:url(#XMLID_2_);}
</style>
<g id="XMLID_52_">
	<polygon id="XMLID_28_" class="st0" points="140.1,459.6 135.5,459.6 124.7,485.5 128.1,485.5 137.9,462 147.6,485.5 151.1,485.5 	
		"/>
	<rect id="XMLID_27_" x="118.3" y="459.6" class="st0" width="3.1" height="25.9"/>
	<path id="XMLID_26_" class="st0" d="M101,472.6v2.5h9.5c0,0.7,0,1.3,0,1.6c0,1.1,0,2-0.1,2.6c-0.1,1.2-0.4,2-0.7,2.5
		c-0.7,1-3,1.4-7,1.4c-3,0-5.1-0.1-6.3-0.3c-1.5-0.2-2.5-0.8-3.1-1.7c-0.4-0.7-0.7-1.8-0.8-3.2c0-1,0-2.9,0-5.6c0-2.6,0-4.3,0.1-5.4
		c0.2-2.8,1.1-4.4,2.9-4.8c1.1-0.3,2.9-0.4,5.4-0.4c2.7,0,4.3,0,4.7,0c2.3,0.2,3.7,0.7,4.2,1.5c0.3,0.5,0.5,1.1,0.5,1.8
		c0,0.3,0.1,0.9,0.1,1.9h3.3c0-1.3,0-2.1,0-2.4c-0.2-2.5-1.6-4.1-4.1-4.8c-1.2-0.4-3.8-0.5-7.7-0.5c-3.1,0-5.2,0.1-6.2,0.2
		c-2.5,0.4-4.2,1.4-5.2,3s-1.4,4.5-1.4,8.5c0,0.7,0,1.1,0,1.1c0,1.9,0,2.9,0,2.8c0,2.3,0.1,4,0.3,5.1c0.6,2.8,2.4,4.5,5.6,5.2
		c1.3,0.3,3.5,0.4,6.6,0.4c3.3,0,5.6-0.1,6.8-0.3c2.2-0.4,3.7-1.4,4.6-3c0.5-1,0.8-2.7,0.8-5.1v-1.8c0-1.1,0-2-0.1-2.9L101,472.6
		L101,472.6L101,472.6z"/>
	<path id="XMLID_57_" class="st0" d="M67.9,460.2c-1.4-0.6-3.8-0.8-7.4-0.8c-1.7,0-3.2,0.1-4.4,0.1c-2.4,0.2-4.2,1-5.3,2.4
		c-0.9,1-1.4,2.5-1.7,4.5c-0.1,0.9-0.2,2.3-0.2,4.4c0,3.5,0,5.7,0.1,6.5c0.1,1.9,0.4,3.3,0.8,4.3c0.6,1.5,1.6,2.5,3,3.2
		c1.4,0.6,3.9,0.9,7.6,0.9c1.6,0,3,0,4.2-0.1c2.8-0.2,4.7-1.1,5.9-2.7c0.6-0.9,1-2.2,1.3-4c0.1-1,0.2-3.5,0.2-7.4
		c0-2.5-0.1-4.2-0.2-5.1C71.5,463.1,70.2,461.1,67.9,460.2z M69.1,472.6v4.1c0,2.5-0.4,4.3-1.3,5.2c-0.6,0.7-1.8,1.1-3.5,1.3
		c-0.5,0.1-1.7,0.1-3.8,0.1c-2.6,0-4.4-0.1-5.3-0.3c-1.1-0.3-1.9-0.8-2.4-1.7c-0.3-0.6-0.6-1.6-0.7-2.9c-0.1-0.6-0.1-2.5-0.1-5.7
		s0-5.1,0.1-5.8c0.3-2.4,1-3.9,2.4-4.4c0.9-0.4,2.9-0.6,6.1-0.6c2.4,0,3.8,0,4.4,0.1c1.8,0.3,2.9,1,3.4,2.1c0.5,1,0.7,2.4,0.8,4.2
		C69.1,469.7,69.1,471.1,69.1,472.6z"/>
	<polygon id="XMLID_23_" class="st0" points="41.2,471 24,471 24,459.6 20.7,459.6 20.7,485.5 24,485.5 24,473.5 41.2,473.5 
		41.2,485.5 44.5,485.5 44.5,459.6 41.2,459.6 	"/>
	<path id="XMLID_53_" class="st0" d="M12.4,460.2c-1-0.4-3.1-0.6-6.1-0.6H-6v25.9h3.3v-10.2h8.4c0.8,0,1.9,0,3.2,0
		c1.6-0.1,2.8-0.3,3.8-0.7c2.1-1,3.2-3.3,3.2-7C16,463.6,14.8,461.1,12.4,460.2z M12.1,470.9c-0.5,0.9-1.5,1.5-3.1,1.7
		c-0.7,0.1-2,0.2-3.9,0.2h-7.8v-10.7h8.9c0.9,0,1.7,0,2.5,0c2,0.1,3.2,0.7,3.6,1.8c0.3,0.8,0.4,2.1,0.4,3.9
		C12.7,469.2,12.5,470.3,12.1,470.9z"/>
</g>
<path id="XMLID_32_" class="st0" d="M5,493.7c-0.1,0.1-0.2,0.2-0.2,0.3s0,0.2-0.1,0.3c0,0.1,0,0.1-0.1,0.3c-0.1,0.1-0.1,0.2-0.1,0.3
	c0,0.2,0,0.3,0,0.3V495v0.1c0,0-0.1,0.1-0.2,0.2l0.1,0.2v0.1l0,0l-0.1,0.1l0,0l-0.1,0.1l-0.1,0.1c0,0,0,0-0.1,0.1v0.1l-0.1,0.1
	l-0.1,0.1v0.1c0,0-0.1,0.1-0.2,0.2H3.5c-0.1,0-0.2,0.1-0.3,0.2l0,0l0,0l-0.1,0.1c0,0-0.1,0-0.1,0.1l0,0H2.9
	c-0.1,0.1-0.1,0.1-0.3,0.1l-0.1,0.1l-0.1,0.1l0,0H2.3l-0.1,0.1c0,0-0.1,0-0.2,0.1c0,0-0.1,0-0.2,0s-0.2,0-0.2,0s-0.1,0.1-0.2,0.1
	c-0.2,0.1-0.5,0.2-0.9,0.2H0.4l-0.2-0.2l0,0l-0.1-0.1C0,497.3,0,497.2,0,497.2c0-0.6,0-0.9,0.2-1c0,0,0,0,0-0.1V496
	c0.1-0.2,0.2-0.4,0.3-0.4l0,0c0,0,0.1-0.1,0.2-0.2l0,0l0.4-0.4l0,0l0.1-0.1h0.1l0,0l0.1-0.1v-0.1v-0.1l0.1-0.1h0.1
	c0.1,0,0.2,0,0.2-0.1h0.1c0.1-0.1,0.3-0.2,0.5-0.3h0.1l0.1-0.1h0.1h0.1l0,0c0,0,0.2-0.1,0.4-0.3l0,0c0.1,0,0.2,0,0.2-0.1h0.1
	l0.1-0.1c0.5-0.1,0.9-0.1,1.1,0L5,493.7L5,493.7L5,493.7z M121,493.2c0,0.1-0.1,0.3-0.1,0.6h-0.1c0,0,0,0.1,0,0.2
	c0,0-0.1,0.1-0.2,0.2c0,0,0,0.1-0.1,0.1c0,0.1,0,0.1-0.1,0.1v0.2c-0.1,0.1-0.3,0.2-0.5,0.3c0,0.2-0.2,0.3-0.5,0.4c0,0-0.1,0-0.3,0.1
	c0,0.1-0.3,0.2-0.7,0.2h-0.1v-0.2l0,0c0-0.1,0-0.2,0.1-0.3c0.1,0,0.1-0.1,0.1-0.3h0.1l0.3-0.5c0-0.1,0.1-0.1,0.3-0.3
	c0.1-0.1,0.1-0.2,0.2-0.3l0.1-0.1c0-0.1,0.1-0.2,0.4-0.3l0,0h0.1l0,0h0.1c0.2-0.2,0.4-0.3,0.4-0.3c0.1-0.1,0.2-0.1,0.3-0.1
	s0.2,0,0.3,0.1C120.9,493.1,121,493.2,121,493.2L121,493.2z M123.3,496.1c0-0.1-0.1-0.2-0.4-0.1l0,0c-0.1,0-0.2,0.1-0.3,0.1
	s-0.1,0-0.2,0.1h-0.1c-0.1,0.1-0.2,0.1-0.3,0.2l-0.1,0.1c-0.1,0-0.3,0.1-0.6,0.3h-0.1l-0.1,0.1c-0.1,0-0.3,0-0.7,0.1
	s-0.7,0.1-0.7,0.1c-0.1,0-0.2,0-0.3,0s-0.2,0-0.3-0.1s-0.3-0.2-0.6-0.4l0,0l-0.1-0.1c0-0.1,0-0.1-0.1-0.2v-0.2l0,0l0,0l0,0V496
	c0.2-0.1,0.4-0.1,0.7-0.3c0.1,0,0.3-0.1,0.5-0.2l0,0h0.1l0,0l0.2-0.1l0,0l0,0c0.1-0.1,0.3-0.2,0.4-0.3c0.2-0.1,0.2-0.2,0.2-0.3h0.1
	c0,0,0.1-0.1,0.2-0.2s0.2-0.2,0.3-0.3l0,0c0.3-0.3,0.4-0.5,0.4-0.6h0.1c0-0.1,0.1-0.2,0.1-0.3c0-0.3-0.3-0.6-0.8-0.8
	c-0.6,0-0.8-0.1-0.8-0.1c-0.1,0-0.2,0-0.3,0.1c0,0-0.1,0.1-0.2,0.1c0,0,0,0.1-0.1,0.1h-0.1l0,0c-0.2,0.1-0.3,0.2-0.4,0.3v0.1
	c-0.1,0.1-0.2,0.1-0.2,0.1h-0.1c0,0,0,0.1-0.1,0.1v0.1l-0.1,0.1c-0.1,0.1-0.2,0.1-0.4,0.3v0.1l0,0c0,0.1,0,0.1-0.1,0.1
	c-0.1,0.2-0.3,0.6-0.5,1h-0.1c-0.1,0.1-0.1,0.3-0.2,0.5h-0.3v0.1h-0.1l-0.1,0.1l0,0l0,0c-0.1,0-0.2,0.1-0.4,0.2h-0.1
	c-0.1,0.1-0.4,0.2-0.7,0.4l-0.1,0.1c-0.1,0-0.1,0-0.1,0.1c-0.1,0-0.2,0.1-0.3,0.1l0,0h-0.1l-0.1,0.1l0,0c0,0-0.1,0-0.2,0.1l-0.1,0.1
	c-0.2,0-0.4,0.1-0.6,0.2c-0.1,0-0.1,0-0.2,0.1h-0.1l0,0h-0.1c0,0-0.1,0-0.2,0.1l-0.1,0.1c-0.8,0-1.4,0.1-1.9,0.1
	c-0.1-0.1-0.2-0.2-0.4-0.3v-0.5l0,0c0-0.3,0.1-0.7,0.4-1.1c0,0,0.1-0.1,0.2-0.2s0.1-0.2,0.2-0.3l0.5-0.5l0,0c0-0.1,0.2-0.2,0.5-0.4
	l0,0c0.1,0,0.2-0.1,0.3-0.2l0,0h0.1l0.1-0.1h0.1c0,0,0.1,0,0.1-0.1c0.1,0,0.2-0.1,0.3-0.1l0.3-0.1c0,0,0.1,0,0.2-0.1
	s0.3-0.1,0.7-0.1c0,0,0.1,0,0.2,0.1c0.1,0,0.2,0,0.2,0.1l0,0v0.1l-0.1,0.1c0,0-0.1,0.1-0.3,0.3l0,0c-0.1,0-0.2,0.1-0.3,0.3
	c0,0,0,0.1-0.1,0.2c0,0.1,0,0.2,0,0.2l0.1,0.1c0.1,0,0.2,0,0.3,0.1l0,0h0.1c0.1-0.1,0.1-0.1,0.3-0.3l0,0l0.1-0.1h0.1h0.1
	c0,0,0.1-0.1,0.3-0.1c0.1-0.1,0.2-0.2,0.2-0.4c0-0.1-0.1-0.2-0.2-0.4c0-0.2,0-0.3-0.1-0.5c-0.1-0.1-0.2-0.1-0.4-0.3l0,0l-0.1-0.1
	H115v-0.1c-0.3-0.1-0.5-0.1-0.5-0.1h-0.1h-0.1c-0.1,0-0.1,0.1-0.1,0.1c-0.2,0-0.5,0-0.7,0.1l0,0c-0.1,0-0.2,0.1-0.4,0.1v0.1
	l-0.1,0.1c-0.1,0-0.1,0-0.2,0.1l0,0l-0.1,0.1l-0.2,0.1l0,0c0,0,0,0-0.1,0.1s-0.2,0.2-0.4,0.3l-0.1,0.2c-0.1,0.1-0.3,0.1-0.4,0.1
	c-0.1,0.2-0.1,0.2-0.1,0.2l-0.1,0.1c-0.1,0.1-0.2,0.1-0.2,0.1s0,0.1-0.1,0.1c0,0,0,0.1-0.1,0.1l0,0h-0.1c0,0.1,0,0.1-0.1,0.1
	l-0.1,0.1l0,0v0.1l-0.1,0.1v0.1c0,0.1,0,0.1,0,0.1s0,0,0,0.1c0,0,0,0,0,0.1s-0.1,0.2-0.4,0.2l-0.1,0.1H110l0,0c-0.1,0-0.1,0-0.1,0.1
	h-0.1c0,0,0,0,0,0.1c0,0-0.1,0-0.1,0.1l-0.1,0.1h-0.1v0.1h-0.1l0,0c-0.1,0-0.2,0-0.2,0.1h-0.1c-0.1,0.1-0.2,0.1-0.3,0.2l0,0l0,0
	c0,0-0.1,0-0.1,0.1c0,0-0.1,0.1-0.2,0.1l0,0h-0.1l0,0h-0.1v0.1h-0.1l-0.2,0.1l0,0l0,0h-0.1l-0.4,0.2h-0.1l0,0
	c-0.3-0.1-0.5-0.3-0.5-0.5c0-0.3,0.1-0.6,0.3-0.7V496c0.1,0,0.2-0.2,0.3-0.6s0.3-0.6,0.4-0.7l0,0l0.1-0.1l0,0c0-0.1,0-0.1,0.1-0.2
	h0.1h0.1h0.1l0.1-0.1l-0.1-0.1c-0.1,0-0.2-0.1-0.3-0.1l0,0l-0.3-0.1c-0.1,0-0.2,0-0.3,0c-0.2,0-0.3,0-0.4,0s-0.2,0.1-0.3,0.2
	c0,0,0,0.1-0.1,0.2s-0.1,0.2-0.1,0.2l0,0v0.1c0,0-0.1,0.1-0.2,0.1l-0.1,0.3l-0.1,0.1l-0.1,0.1l0,0c-0.1,0-0.1,0.1-0.1,0.1
	c0,0.1,0,0.1-0.1,0.2l0,0h-0.1l0,0l-0.1,0.1v0.1l0,0c0,0,0,0.1-0.1,0.1s-0.1,0.1-0.1,0.1s-0.1,0-0.2,0.1s-0.1,0.2-0.1,0.1
	c-0.1,0.1-0.3,0.1-0.5,0.3c-0.1,0.1-0.2,0.2-0.3,0.2c0,0.1-0.1,0.1-0.2,0.1v0.1c0,0-0.1,0.1-0.2,0.1l-0.1,0.1h-0.1
	c0,0-0.1,0.1-0.2,0.1h-0.1l-0.1,0.1c0,0.1-0.3,0.1-0.6,0.1l-0.1-0.1c0-0.1-0.1-0.2-0.2-0.2v-0.3l0,0c0-0.1,0-0.4,0.1-0.6
	c0-0.1,0-0.1,0-0.1c0.1-0.2,0.3-0.6,0.5-1.1c0-0.2,0.2-0.4,0.5-0.7l0,0l0,0c0-0.1,0.1-0.1,0.2-0.1c0-0.1,0.1-0.1,0.1-0.1l0,0
	c0.1,0,0.2-0.1,0.3-0.2l-0.1-0.2c-0.1-0.1-0.3-0.1-0.5-0.2c-0.1,0-0.1-0.1-0.2-0.1c-0.3,0-0.5,0-0.7,0.2l0,0
	c-0.1,0.1-0.1,0.3-0.2,0.5c-0.1,0.1-0.2,0.2-0.2,0.4l-0.1,0.1c0,0.1-0.1,0.3-0.3,0.4l0,0c0,0,0,0.1-0.1,0.2s-0.1,0.2-0.1,0.2
	c0,0.1,0,0.2-0.1,0.4c0,0.1,0,0.1,0,0.2c0,0-0.1,0.1-0.1,0.2s0,0.3,0,0.4l0,0c-0.1,0-0.1,0.1-0.2,0.1l-0.1,0.1
	c-0.1,0-0.2,0.1-0.3,0.2h-0.1c-0.1,0-0.1,0.1-0.2,0.2l0,0c0,0-0.1,0.1-0.3,0.2h-0.1c-0.1,0-0.1,0.1-0.2,0.2c0,0-0.1,0-0.1,0.1
	c-0.3,0-0.4,0-0.4,0l0,0c-0.1,0-0.2,0.1-0.4,0.1c-0.1,0-0.2,0-0.3,0.1c-0.1,0-0.1,0-0.2,0.1c-0.1,0-0.4,0.1-0.7,0.1l0,0h-0.2
	c-0.1-0.1-0.2-0.2-0.3-0.4c0,0,0-0.1-0.1-0.2v-0.6c0.1-0.1,0.2-0.5,0.2-1.1l0,0c0,0,0-0.1,0.1-0.1h0.1c0.1,0,0.1-0.1,0.2-0.2
	c0,0,0.1-0.1,0.4-0.3l0,0c0.1-0.1,0.1-0.1,0.2-0.2s0.2-0.1,0.2-0.1c0.1,0,0.1-0.1,0.2-0.2l0,0c0,0,0.2-0.2,0.6-0.5
	c0.2-0.1,0.3-0.1,0.3-0.2c0.1-0.1,0.1-0.1,0.2-0.2s0.2-0.1,0.2-0.2l0,0l0.1-0.1l0,0l0.1-0.1c0.1-0.1,0.2-0.2,0.3-0.3h0.1
	c0,0,0.1-0.1,0.1-0.2l0,0c0,0,0-0.1,0.1-0.2s0.1-0.1,0.1-0.2c0,0,0-0.1,0.1-0.1h0.1v-0.1l0,0c0,0,0-0.1,0.1-0.1l0.1-0.1
	c0.1-0.1,0.2-0.3,0.4-0.5c0,0,0.1-0.2,0.3-0.5c0,0,0-0.1,0-0.2s0-0.2,0-0.2l0,0c0-0.3-0.1-0.5-0.1-0.5s-0.2-0.2-0.5-0.4
	c0,0-0.1,0-0.3-0.1c-0.2,0-0.3-0.1-0.4-0.1s-0.2,0-0.2,0.1h-0.1c0,0-0.1,0.1-0.2,0.1c-0.1,0.1-0.2,0.2-0.3,0.3l0,0l0,0
	c-0.1,0-0.1,0-0.1,0.1h-0.1l-0.1,0.1c0,0.2,0,0.3-0.1,0.3c-0.1,0.1-0.2,0.2-0.3,0.2h-0.1c0,0,0,0.1-0.1,0.1v0.1c0,0.1,0,0.1,0,0.1
	c-0.3,0.2-0.4,0.3-0.5,0.4s-0.2,0.3-0.3,0.5l-0.1,0.1c-0.1,0-0.2,0.1-0.3,0.2c0,0,0,0.1-0.1,0.2l-0.1,0.1l0,0v0.1l0,0v0.4l0,0
	c0,0.1,0,0.1-0.1,0.2c0,0.1,0,0.1-0.1,0.1v0.1c0,0-0.1,0.1-0.2,0.1s-0.2,0-0.2,0s-0.1-0.1-0.3-0.1c0,0-0.2-0.1-0.4-0.2
	s-0.3-0.1-0.4-0.1l-0.1-0.1h-0.6h-0.1c-0.1,0-0.2,0-0.3,0s-0.2,0-0.3,0l-0.2,0.1h-0.1c-0.1,0.1-0.3,0.2-0.6,0.3h-0.1l-0.2,0.1l0,0
	c0,0-0.1,0-0.2,0.1c0,0-0.2,0.1-0.4,0.2l0,0h-0.1l0,0c-0.1,0-0.2,0.1-0.3,0.1h-0.1l-0.1,0.1l0,0c-0.1,0.1-0.2,0.2-0.4,0.3h-0.1
	c0,0,0,0.1-0.1,0.1v0.1h-0.1v0.1l0,0v0.1c0,0-0.1,0-0.1,0.1l0,0c0,0,0,0.1-0.1,0.1l0,0h-0.1c0,0,0,0.1-0.1,0.1c0,0.1,0,0.2-0.1,0.4
	c-0.1,0.2-0.1,0.3-0.1,0.4s0,0.2,0,0.4v0.1c-0.1,0-0.1,0-0.2,0s-0.1,0.1-0.2,0.1s-0.1,0-0.2,0.1c-0.1,0-0.2,0-0.3,0s-0.2,0-0.3,0
	c0.2,0-0.1,0-0.9-0.1c-0.1,0-0.2-0.1-0.2-0.1l0,0v-0.1l0.3-0.2c0,0,0,0,0-0.1l0.1-0.1c0-0.1,0.1-0.3,0.2-0.7c0.1,0,0.1-0.2,0.2-0.4
	c0.1-0.2,0.1-0.4,0.2-0.4c0,0,0-0.1,0-0.2l0,0v-0.1l0,0c0,0,0-0.1,0-0.4l0,0c0,0,0-0.1,0-0.2l0,0c0-0.2-0.1-0.4-0.2-0.6
	c-0.1-0.1-0.1-0.2-0.2-0.4c0,0-0.2-0.1-0.5-0.3h-0.1c-0.1-0.1-0.3-0.1-0.4-0.1h-1.4c-0.2,0-0.5,0-0.9,0.1c-0.3,0.1-0.6,0.2-0.7,0.2
	l0,0c-0.3,0-0.4,0-0.5,0.1c-0.1,0-0.2,0.1-0.4,0.2l0,0c-0.1,0-0.2,0.1-0.3,0.1l-0.1,0.1l0,0c0,0.2,0,0.3,0,0.3l0.1,0.1l0,0h0.1l0,0
	l-0.1,0.1h-0.2l-0.1,0.1c0,0.1,0.1,0.3,0.1,0.5H84c0,0.1,0.1,0.2,0,0.3h-0.1c-0.1,0.1-0.1,0.2-0.2,0.4l-0.1,0.1
	c0,0.1-0.1,0.2-0.2,0.2c0,0,0,0-0.1,0.1c0,0.1,0,0.2,0,0.2l0,0c0,0,0,0-0.1,0.1s-0.1,0.1-0.1,0.1c0,0.1,0,0.2-0.1,0.2
	c0,0.3,0,0.5-0.1,0.5c0,0,0,0.1,0,0.2l0,0h-0.1l-0.1,0.1l0,0c-0.1,0-0.1,0-0.1,0.1h-0.1l0,0h-0.1c0,0-0.1,0.1-0.2,0.1v0.1
	c-0.1,0.1-0.3,0.2-0.5,0.3h-0.1c-0.2,0-0.4,0.1-0.6,0.2c-0.1,0-0.1,0-0.2,0.1h-0.1c0,0-0.1,0-0.2,0.1c0,0-0.1,0-0.2,0.1
	c0,0-0.1,0-0.2,0l0,0c-0.1,0-0.2,0-0.3,0c0,0-0.1,0-0.2,0c0,0-0.1-0.1-0.3-0.2c0-0.1,0-0.2,0-0.4s0.1-0.3,0.1-0.4
	c0.1-0.1,0.1-0.2,0.2-0.3h0.1c0-0.1,0.1-0.2,0.3-0.5c0.2-0.3,0.3-0.4,0.4-0.5l0,0c0,0,0.1-0.1,0.2-0.3l0,0l0.1-0.1
	c0-0.1,0.1-0.1,0.2-0.3H81c0.1-0.1,0.1-0.1,0.1-0.1c0.1-0.1,0.1-0.2,0.1-0.3c-0.2-0.2-0.5-0.4-0.7-0.4l0,0c-0.1,0-0.2,0-0.4,0
	c-0.1,0-0.3,0-0.5,0c0,0,0-0.1-0.1-0.1c0,0-0.1-0.1-0.2-0.1c0,0,0-0.1,0-0.2s0-0.2,0-0.3c0.1-0.1,0.1-0.1,0.1-0.2l0,0v-0.1l-0.1-0.2
	c-0.1-0.1-0.2-0.1-0.4-0.2c-0.2,0-0.3-0.1-0.5-0.1c-0.1,0-0.2,0-0.4,0.1l0,0h-0.1c0,0,0,0-0.1,0.1s-0.1,0.1-0.1,0.1
	c0.1,0.1,0.1,0.1,0.2,0.3c0,0.1-0.1,0.1-0.1,0.1l0,0c0,0.1,0,0.2-0.1,0.4c0,0.1,0,0.3-0.1,0.4c0,0.1,0,0.1-0.1,0.1l0,0l-0.1,0.1v0.1
	l-0.1,0.1c-0.1,0-0.2,0.1-0.2,0.2l-0.1,0.1l0,0l0,0c-0.1,0.1-0.1,0.1-0.2,0.2h-0.1l-0.1,0.1c0,0,0,0-0.1,0.1
	c-0.2,0.1-0.4,0.3-0.6,0.4c0,0,0,0.1-0.2,0.1c0,0-0.2,0.1-0.5,0.4c0,0,0,0,0,0.1c-0.1,0.1-0.2,0.1-0.3,0.2l0,0
	c-0.1,0-0.2,0.1-0.4,0.1l0,0h-0.1c0,0-0.1,0.1-0.2,0.1s-0.1,0-0.2,0.1c-0.1,0-0.2,0-0.2,0.1c-0.1,0-0.4,0.1-0.7,0.2
	s-0.5,0.1-0.7,0.1c-0.1,0-0.2,0-0.3,0v-0.1c0,0,0.1-0.1,0.2-0.2s0.2-0.3,0.4-0.4c0,0,0-0.1,0.1-0.1v-0.1l0,0v-0.1l0.1-0.1v-0.1
	l0.1-0.1c0-0.1,0.1-0.3,0.2-0.5s0.2-0.4,0.2-0.5l0.1-0.1V494c0.1-0.1,0.1-0.2,0.1-0.3c0-0.1,0-0.2-0.1-0.3s-0.1-0.2-0.1-0.3
	s0-0.1,0.1-0.1c0.1-0.1,0-0.3-0.1-0.5l0,0c-0.1-0.1-0.3-0.3-0.5-0.4l0,0c0,0,0,0-0.2-0.1c-0.2,0-0.3,0-0.6-0.1c0,0-0.3,0-0.9,0l0,0
	c-0.2,0-0.3,0.1-0.3,0.2c-0.1,0-0.2,0.1-0.3,0.2c-0.1,0-0.2,0-0.3,0.1l0.2,0.2l0,0l0,0c-0.1,0-0.1,0.1-0.3,0.1c-0.1,0-0.1,0-0.2,0.1
	h-0.1c-0.1,0.1-0.2,0.1-0.4,0.2l0,0h-0.1c0,0-0.3,0.2-0.7,0.6l0,0c-0.1,0.1-0.1,0.1-0.2,0.1l0,0h-0.1c0,0,0,0.1-0.1,0.1l0,0
	c0,0-0.1,0-0.3,0.1l0,0l0,0c0.1,0,0.1-0.1,0.1-0.2h0.1c0,0,0.1-0.1,0.1-0.2l0,0c0,0,0,0,0-0.1c0.2-0.1,0.4-0.4,0.7-0.7l0,0
	c0,0,0.1-0.1,0.2-0.2h0.1l0.1-0.1l0,0v-0.1h0.1c0.1-0.1,0.2-0.1,0.3-0.2l0,0c0.1,0,0.2-0.1,0.3-0.1l0,0l-0.2-0.2l-0.2-0.1l0,0h-0.1
	c-0.1-0.1-0.3-0.1-0.6-0.1c-0.1,0-0.2,0.1-0.3,0.2c0,0-0.1,0.1-0.1,0.2c0,0-0.1,0.1-0.2,0.2c0,0-0.1,0.1-0.3,0.3
	c-0.2,0.2-0.2,0.3-0.3,0.3l-0.1,0.1v0.1h-0.2c0,0,0,0.1-0.1,0.1c0,0.1,0,0.2-0.2,0.3v0.2l-0.1,0.1c0,0,0,0-0.1,0.1h-0.1v0.1
	l-0.2,0.1h-0.1l0,0c-0.2,0-0.4,0-0.4,0l-0.1,0.1c0,0.1,0,0.2-0.1,0.3l0,0c0,0.3,0,0.5,0,0.5v0.1h-0.1l0,0l0,0l-0.2,0.1
	c0,0,0,0.1-0.1,0.1c0,0.1,0,0.2-0.1,0.2v0.1l-0.2,0.1c0,0.1,0,0.1-0.1,0.1c0,0,0,0.1-0.1,0.1c0,0.1,0,0.1-0.1,0.1
	c0,0.1,0,0.1-0.1,0.2l0,0c0,0.1-0.1,0.1-0.3,0.2c-0.1,0.2-0.3,0.6-0.6,1l0,0h-0.1c0,0.1,0,0.1-0.1,0.1c0,0.1,0,0.1-0.1,0.1
	c0,0,0,0.1-0.1,0.1c0,0.1,0,0.1-0.1,0.2l0,0c-0.1,0.1-0.2,0.2-0.2,0.5c-0.1,0.3-0.1,0.5-0.2,0.5H63c0,0.1,0,0.1-0.1,0.1
	c0,0.1,0,0.2-0.1,0.3c0,0,0,0.1-0.1,0.2c0,0,0,0.1-0.1,0.1c0,0,0,0.1-0.1,0.1c0,0.1,0,0.1-0.1,0.1c0,0.1,0,0.2-0.2,0.4
	c0,0.1-0.1,0.3-0.2,0.3v0.5l0,0v0.1c0,0.1,0,0.1,0,0.1l0.1,0.1l0,0c0.1,0,0.2,0.1,0.3,0.2c0.1,0,0.2,0,0.3,0.1c0.1,0,0.2,0,0.4,0
	v-0.2c-0.1,0-0.1-0.3-0.1-0.8l0,0v-0.2h0.1l0.1-0.3h0.1c0.1-0.3,0.4-0.7,0.7-1.3c0,0,0.1-0.1,0.3-0.3c0.1-0.1,0.2-0.2,0.2-0.3l0,0
	c0-0.1,0.1-0.1,0.1-0.3c0,0,0.1-0.1,0.2-0.2l0,0c0.1,0,0.2-0.1,0.2-0.3h0.1v-0.1c0.2-0.1,0.3-0.2,0.3-0.4l0.1-0.1
	c0,0,0.1-0.1,0.1-0.2l0.1-0.1l0,0c0.1,0,0.1-0.1,0.3-0.3l0,0l0.1-0.1c0,0,0.1-0.1,0.1-0.2l0,0c0-0.1,0.1-0.1,0.1-0.1l0,0
	c0,0,0.1,0,0.1-0.1l0.1,0.3v0.1l0.1,0.1l0,0c0,0,0,0.1,0.1,0.1v0.1l0,0c0,0.1,0.1,0.1,0.1,0.1l0,0c0.1,0.1,0.2,0.3,0.3,0.5l0,0
	c0.1,0.1,0.4,0.1,0.8,0.2l0.3,0.2c0.1,0,0.2,0,0.3,0l0,0H69c0.1,0,0.3,0,0.5,0s0.4,0,0.5-0.1c0.2-0.1,0.5-0.2,0.8-0.4h0.1
	c0,0,0-0.1,0.1-0.1l0,0c0.3,0,0.8-0.1,1.5-0.2c0.1,0,0.2-0.1,0.3-0.1c0.3,0,0.4-0.1,0.5-0.1s0.2,0,0.4-0.1c0.1,0,0.4-0.1,0.8-0.3
	h0.1l0.4-0.2c0,0,0.1,0,0.1-0.1l0,0l0,0l0,0c0,0,0.1-0.1,0.2-0.1l0,0h0.1l0,0c0,0,0.1-0.1,0.3-0.1l0,0l0.1-0.1l0,0
	c0,0,0.1-0.1,0.2-0.2c0,0,0.1-0.1,0.3-0.2c0.2-0.2,0.2-0.3,0.2-0.3c0.1,0,0.1-0.1,0.2-0.2s0.1-0.2,0.1-0.3c0.1,0,0.1-0.1,0.1-0.1
	l0.1-0.1c0,0,0.1,0,0.1-0.1l0.2-0.2l0,0c0.1,0,0.1,0,0.1-0.1l0.2-0.1l0.1,0.1c0.1,0,0.2,0.1,0.2,0.1H78h0.1h0.1v0.1l0,0l0,0
	c0.1,0.1,0.2,0.1,0.3,0.2v0.3l-0.1,0.1c0,0.1,0,0.1-0.1,0.1v0.1c-0.1,0.1-0.2,0.2-0.3,0.3h-0.1l0,0c-0.1,0.1-0.1,0.1-0.1,0.3
	c0,0.2,0.1,0.3,0.1,0.3s-0.1,0.1-0.2,0.1s-0.2,0.1-0.4,0.1v0.1l0,0c0,0-0.1,0.2-0.2,0.4v0.6l0.1,0.1v0.1c0,0.1,0,0.1,0.1,0.3
	l0.2,0.1c0.1,0,0.1,0,0.2,0s0.3,0,0.5,0.1c0.1,0,0.3,0,0.5,0.1l0,0h0.1c0,0,0.2,0,0.6-0.1c0.1,0,0.1-0.1,0.2-0.1l0.2-0.1l0,0h0.1
	c0.1,0,0.2-0.1,0.3-0.1h0.1c0,0,0.1,0,0.2-0.1l0,0c0,0,0.2-0.1,0.3-0.1c0.2-0.1,0.4-0.2,0.7-0.4l0,0l0.1-0.1l0,0
	c0.1,0,0.2-0.1,0.3-0.2l0,0l-0.1,0.1v0.1h-0.1l-0.1,0.1c0,0.1,0,0.1,0,0.3c0.1,0,0.1,0.1,0.1,0.2c0,0,0.1,0.1,0.2,0.2l0,0h0.1v0.1
	l0.2,0.1h0.1l0,0c0,0,0.1,0.1,0.3,0.1l0,0c0.1,0,0.2,0,0.2,0c0.2,0,0.3,0,0.5,0.1s0.3,0.1,0.4,0.1c0.2,0,0.4-0.1,0.8-0.2
	c0.1,0,0.3-0.1,0.7-0.3c0.1,0,0.2,0,0.3-0.1c0.1-0.1,0.2-0.2,0.4-0.3h0.1c0.1-0.1,0.3-0.3,0.5-0.4l0,0h0.1c0.1-0.2,0.3-0.3,0.6-0.3
	c0.1,0,0.2,0,0.5,0.1c0.2,0,0.4,0.1,0.6,0.1c0.5,0,1-0.1,1.3-0.2c0.1,0,0.1,0,0.2-0.1l0,0c0,0.1,0,0.2-0.1,0.3c0,0.1,0,0.2,0,0.3
	l0.1,0.1c0.1,0,0.1,0.1,0.1,0.1l0.1,0.1l0,0c0.1,0,0.2,0.1,0.3,0.2c0.9,0.2,1.5,0.3,1.9,0.2h0.1h0.1c0.1-0.1,0.3-0.2,0.6-0.4l0,0H93
	c0,0,0.1-0.1,0.2-0.1l0,0c0.1-0.1,0.2-0.1,0.4-0.2l0.1-0.1c0.1,0,0.2-0.1,0.3-0.2h0.1c0.1,0,0.2-0.1,0.3-0.2c0.1,0,0.1-0.1,0.2-0.1
	s0.1,0,0.2-0.1H95c0,0.1,0,0.2-0.1,0.3l0,0l0,0c-0.1,0-0.1,0.1-0.1,0.2s0,0.2,0.1,0.2c0,0.1,0,0.3,0.1,0.5c0.1,0.1,0.2,0.1,0.5,0.2
	l0,0c0.1,0,0.2,0.1,0.3,0.1s0.2,0,0.2,0.1h0.9c0.1,0,0.3-0.1,0.4-0.1h0.1h0.1c0,0,0.2-0.1,0.6-0.2s0.5-0.2,0.6-0.2
	c0.2,0,0.3-0.1,0.5-0.2h0.1c0.1,0,0.2-0.1,0.4-0.2l0,0c0.1,0,0.2-0.1,0.3-0.2l0,0c0,0.1,0,0.2,0,0.3c0.1,0.1,0.1,0.2,0.1,0.3
	l0.1,0.1h0.1l0,0c0,0,0.2,0.1,0.4,0.2c0,0,0,0,0.1,0h0.1c0.2-0.1,0.5-0.1,0.9-0.1l0.1-0.1l0.3-0.1v-0.1c0.6-0.2,0.9-0.4,1.1-0.7h0.1
	l0,0c0.1,0,0.1-0.1,0.2-0.1l0,0l0.1-0.1c0,0,0.1,0,0.2-0.1l0,0c0,0,0.1-0.1,0.2-0.1h0.1c0,0.1,0,0.1,0,0.2s0.1,0.2,0.1,0.2
	c0.1,0.1,0.1,0.2,0.2,0.3l0.1,0.1v0.1h0.1v0.2c0,0,0.1,0,0.2,0.1v0.2c0.1,0,0.1,0.1,0.2,0.1h0.2l0,0h0.1c0.3-0.1,0.7-0.2,1-0.3
	c0,0,0.1-0.1,0.3-0.2l0,0h0.1l0,0c0.2-0.2,0.6-0.4,1.2-0.7l0,0c0.1,0,0.1-0.1,0.3-0.2v0.2l0,0c0,0.3-0.1,0.4-0.1,0.4s0,0.1,0,0.2
	s0,0.1,0,0.2c0.1,0,0.1,0.1,0.1,0.1c0.1,0.1,0.1,0.1,0.1,0.1l0.1,0.1v0.1l0.1,0.1c0.2,0,0.4,0.1,0.7,0.1c0,0.1,0.1,0.1,0.2,0.1
	c0.2,0,0.4,0,0.7-0.1c0.3-0.1,0.6-0.1,0.7-0.1c0.2,0,0.4-0.1,0.7-0.1c0.1,0,0.1-0.1,0.2-0.1s0.2,0,0.3-0.1c0.1,0,0.2-0.1,0.3-0.1
	c0.2-0.1,0.5-0.2,0.9-0.3c0.1,0,0.2,0,0.4-0.1h0.1c0.4-0.2,1-0.5,1.6-0.8c0,0,0.1,0,0.2,0v0.3c0,0,0.1,0,0.1,0.1
	c0.1,0,0.1,0.1,0.1,0.1s0.1,0,0.1,0.1l0.1,0.1c0.1,0.1,0.3,0.1,0.5,0.2h0.1c0,0,0.1,0.1,0.2,0.1h0.1l0.1,0.1c0.1,0,0.2,0,0.4,0.1
	c0.2,0,0.3,0.1,0.4,0l0,0c0.3,0,0.6,0,0.9,0c0.1,0,0.3,0,0.5-0.1c0.2,0,0.4-0.1,0.5-0.1s0.2-0.1,0.3-0.1l0,0h0.1l0,0l0.3-0.1l0,0
	c0.1,0,0.1-0.1,0.2-0.1l0,0l0.2-0.1l0.1-0.1c0,0,0.1,0,0.2-0.1l0.1-0.1c0.1-0.1,0.4-0.1,0.6-0.3l0,0l0,0c0.1,0,0.1,0,0.1-0.1
	C123.3,496.1,123.3,496,123.3,496.1L123.3,496.1z M96.7,493.7c-0.1,0.1-0.2,0.2-0.2,0.3s0,0.2-0.1,0.3c0,0.1,0,0.1-0.1,0.3
	c-0.1,0.1-0.1,0.2-0.1,0.3c0,0.2,0,0.3,0,0.3l-0.1,0.1v0.1c0,0-0.1,0.1-0.2,0.2l0.1,0.2v0.1l0,0l-0.1,0.1l0,0l-0.1,0.1l-0.1,0.1
	c0,0,0,0-0.1,0.1v0.1v0.1l-0.1,0.1v0.1c0,0-0.1,0.1-0.2,0.2h-0.1c-0.1,0-0.2,0.1-0.3,0.2l0,0l0,0l-0.1,0.1c0,0-0.1,0-0.1,0.1l0,0
	h-0.1c0,0.1-0.1,0.1-0.3,0.1l-0.1,0.1l-0.1,0.1l0,0H94l-0.1,0.1c-0.1,0-0.1,0-0.2,0.1c0,0-0.1,0-0.2,0s-0.2,0-0.2,0
	s-0.1,0.1-0.2,0.1c-0.2,0.1-0.5,0.2-0.9,0.2h-0.1L92,498l0,0l-0.1-0.1c-0.1-0.2-0.1-0.3-0.1-0.3c0-0.6,0.1-0.9,0.2-1l0,0
	c0,0,0.1,0,0.1-0.1h0.1c0.1,0,0.1-0.1,0.1-0.2v-0.1c0.1-0.1,0.1-0.2,0.2-0.2l0,0c0,0,0.1-0.1,0.2-0.2l0,0l0.4-0.4l0,0l0.1-0.1h0.1
	l0,0l0.1-0.1v-0.1V495l0.1-0.1h0.1c0.1,0,0.2,0,0.2-0.1h0.1c0.1-0.1,0.3-0.2,0.5-0.3h0.1l0.1-0.1h0.1h0.1l0,0c0,0,0.2-0.1,0.5-0.3
	l0,0c0.1,0,0.2,0,0.2-0.1h0.1l-0.1-0.4c0.5-0.1,0.9-0.1,1.1,0L96.7,493.7L96.7,493.7L96.7,493.7z M101.2,490.6c0,0,0,0.1-0.1,0.1
	H101c0,0.2-0.1,0.3-0.2,0.4c0,0.1,0,0.1-0.1,0.1v0.1c0,0.1-0.1,0.1-0.2,0.2v0.1c0,0.1-0.1,0.1-0.2,0.2c0,0.1,0,0.1-0.1,0.1
	c0,0,0,0.1-0.1,0.1l0,0H100v0.1h-0.1c0,0.1,0,0.1-0.1,0.1c-0.1,0.1-0.2,0.3-0.3,0.5c0,0-0.1,0.1-0.3,0.2l0,0c-0.1,0-0.2,0.1-0.3,0.2
	l-0.1,0.1l0,0c-0.1,0.1-0.2,0.3-0.5,0.5c0,0,0,0-0.1,0.1h-0.1v0.1c-0.1,0.1-0.3,0.2-0.4,0.3l0,0c0,0-0.1,0.1-0.3,0.1v-0.1l0.2-0.3
	c0-0.1,0-0.1,0.1-0.1c0,0,0-0.1,0-0.2l0,0c0-0.1,0.1-0.1,0.1-0.2c0.1-0.1,0.1-0.1,0.3-0.3c0,0,0.1-0.1,0.2-0.4h0.1v-0.1l0.1-0.1
	c0-0.1,0.1-0.2,0.2-0.4V492c0.3-0.2,0.4-0.4,0.4-0.7l0.1-0.1c0.1-0.1,0.2-0.3,0.3-0.5c0.1,0,0.2-0.1,0.3-0.2l0,0
	c0.1-0.1,0.2-0.2,0.3-0.3v0.4c0.1,0,0.1,0,0.1-0.1h0.1c0.1-0.1,0.2-0.1,0.3-0.2h0.1c0,0,0.1-0.1,0.3-0.1l0,0c0,0.1,0.1,0.2,0,0.4
	C101.2,490.5,101.2,490.5,101.2,490.6L101.2,490.6z M87.4,496.7l-0.1,0.1h-0.1v0.1h-0.1L87,497l0,0l0,0c-0.1,0.1-0.3,0.2-0.4,0.3
	h-0.1l0,0c-0.1,0-0.2,0.1-0.3,0.2h-0.1l0,0H86l0,0h-0.1c0,0-0.1,0.1-0.2,0.1s-0.1,0-0.2,0.1c-0.8,0-1.2,0.1-1.1,0.1l-0.2-0.1h-0.1
	c-0.1,0-0.1,0-0.1-0.1l0,0c-0.2-0.2-0.4-0.4-0.4-0.5s0-0.1,0-0.3c0-0.1,0-0.2,0.1-0.3l0,0c0-0.1,0-0.2,0.1-0.3c0-0.1,0-0.1,0.1-0.2
	c0-0.1,0.1-0.2,0.2-0.3c0,0,0.1-0.1,0.1-0.2l0.1-0.1h0.1c0.1,0,0.2,0.1,0.2,0.2c0.1,0,0.2,0.1,0.4,0.2c0.1,0,0.3,0.1,0.4,0.2
	c0.1,0,0.2,0.1,0.6,0.2c0.3,0.1,0.5,0.2,0.5,0.2l0,0c0.1,0,0.3,0.1,0.6,0.1h0.1L87.4,496.7L87.4,496.7z M88.7,494.4L88.7,494.4v0.1
	c0,0.1,0,0.3-0.1,0.4c-0.1,0.2-0.1,0.4-0.1,0.4l-0.1,0.1c0,0.1,0,0.1-0.1,0.1c0,0.1,0,0.1-0.1,0.2c0,0.1,0,0.1-0.1,0.1v0.1
	c0,0.1-0.1,0.1-0.1,0.1l-0.1,0.1l0,0l-0.1,0.1l0,0l-0.1,0.1h-0.3l-0.2-0.1c0,0-0.1,0-0.2,0s-0.1,0-0.1,0c-0.1,0-0.2-0.1-0.4-0.2
	c0,0-0.1,0-0.2,0c-0.2-0.1-0.5-0.2-0.9-0.5l0,0c-0.1-0.1-0.3-0.2-0.4-0.4l0,0V495v-0.1h0.1l0,0c0.1,0,0.1,0,0.2-0.1v-0.1l0,0
	c0,0,0.1-0.1,0.2-0.1l0,0h0.1l0,0c0.1,0,0.2-0.1,0.3-0.1H86h0.1h0.1l0.2-0.1c0-0.1-0.1-0.1-0.3-0.3V494c-0.1,0-0.1,0-0.3,0v-0.1
	c-0.1,0-0.1,0-0.2-0.1c-0.4-0.1-0.7,0-1,0.1l0,0v0.1h-0.1c0-0.1,0-0.1,0-0.2s0-0.2,0-0.2c0-0.1,0.1-0.2,0.2-0.3
	c0.1,0,0.1-0.1,0.2-0.2c0.1,0,0.1-0.1,0.2-0.1h0.1l0,0c0.1,0,0.2-0.1,0.4-0.1c0.3-0.1,0.7-0.1,1.2-0.1c0,0,0.1,0,0.2,0s0.1,0,0.2,0
	s0.1,0.1,0.3,0.1c0,0,0.1,0,0.2,0.1l0,0c0.1,0.1,0.3,0.2,0.4,0.3v0.1c0,0,0,0,0.1,0.1c0.2,0.1,0.3,0.3,0.3,0.4h0.1v0.1l0.2,0.1
	C88.8,494.1,88.8,494.3,88.7,494.4L88.7,494.4z M70.2,497.4L70.2,497.4c-0.1,0-0.2,0.1-0.3,0.1h-0.1l0,0c-0.1,0-0.3,0.1-0.4,0.1
	c0,0-0.2,0-0.5,0l-0.3-0.2h-0.1c-0.1,0-0.1,0-0.2-0.1l0,0h-0.1c0,0-0.1-0.2-0.2-0.4l0,0c-0.1-0.1-0.2-0.3-0.3-0.4
	c0-0.1,0-0.1-0.1-0.1c0-0.1-0.1-0.2-0.2-0.4v-0.1c0.1,0,0.2,0,0.2,0s0.1,0,0.2,0.1l0.1,0.1H68c0,0,0.4,0.2,1.1,0.7l0,0
	c0.3,0.2,0.6,0.4,0.8,0.4c0,0,0,0,0.1,0.1C70.1,497.3,70.1,497.3,70.2,497.4L70.2,497.4C70,497.2,70.1,497.2,70.2,497.4L70.2,497.4z
	 M72.3,494.1c0,0,0,0.2-0.1,0.3l0,0v0.3l0,0c-0.2,0.3-0.3,0.6-0.3,0.9c-0.1,0-0.1,0.1-0.2,0.2l0,0c0,0.2-0.1,0.4-0.3,0.5v0.1
	c0,0-0.1,0.1-0.2,0.2l0,0c-0.1,0.1-0.3,0.2-0.4,0.3c-0.1,0-0.3,0-0.4,0s-0.3,0-0.3,0s-0.2-0.1-0.6-0.3h-0.1
	c-0.1-0.1-0.3-0.2-0.5-0.4l0,0v-0.1h-0.1l0,0c-0.1,0-0.2-0.1-0.3-0.1l-0.1-0.1l0,0v-0.1c-0.1,0-0.2-0.1-0.3-0.3
	c-0.1-0.1-0.2-0.2-0.2-0.3l0,0c0-0.1-0.1-0.1-0.1-0.1s0-0.1-0.1-0.1c0,0,0.1-0.1,0.1-0.2l0.1-0.1c0.1-0.1,0.3-0.3,0.4-0.4l0,0h0.1
	c0,0,0-0.1,0.1-0.1v-0.1h0.1l0,0c0.1,0,0.2-0.1,0.3-0.1v-0.1H69c0.3-0.2,0.6-0.4,0.9-0.6l0,0c0.1,0,0.2,0,0.2,0
	c0.1,0,0.2-0.1,0.3-0.2l0.5-0.1l0,0c0.2,0,0.4-0.1,0.6-0.2h0.3h0.1l0,0l0,0H72l0,0l0.1,0.1l0,0h0.1c0.1,0.2,0.1,0.3,0.1,0.2l0.1,0.1
	C72.3,493.3,72.3,493.6,72.3,494.1L72.3,494.1z M56.8,495.2h1.7l-0.1,0.5h-1.3c-0.4,0.6-0.6,0.9-0.7,1.1c-0.3,0.4-0.6,0.7-0.9,1
	l0.5,0.9h1.9l-0.1,0.4h-2.3l-0.5-0.9c-0.4,0.4-0.9,0.6-1.3,0.8s-0.9,0.3-1.4,0.3c-0.7,0-1.2-0.2-1.6-0.6c-0.4-0.4-0.5-0.9-0.3-1.5
	c0.1-0.5,0.5-1,1-1.5c0.5-0.4,1.1-0.7,1.8-0.9c-0.3-0.5-0.4-0.8-0.5-1.1c-0.1-0.3-0.1-0.7,0-1c0.1-0.5,0.4-0.9,0.9-1.2
	s1-0.4,1.6-0.4c0.4,0,0.8,0.1,1.1,0.2s0.6,0.3,1,0.5l-0.5,0.4c-0.2-0.1-0.5-0.3-0.8-0.4s-0.7-0.2-1-0.2c-0.4,0-0.7,0.1-1,0.2
	c-0.3,0.2-0.5,0.4-0.6,0.8c-0.1,0.3,0,0.6,0.1,0.9c0.1,0.4,0.3,0.7,0.5,1l1.4,2.6c0.3-0.3,0.5-0.7,0.8-1
	C56.3,495.9,56.6,495.6,56.8,495.2L56.8,495.2z M54.8,497.8l-1.4-2.6c-0.6,0.2-1,0.4-1.4,0.7c-0.5,0.4-0.7,0.8-0.9,1.2
	c-0.1,0.4,0,0.8,0.2,1.1c0.3,0.3,0.6,0.5,1.2,0.5c0.4,0,0.8-0.1,1.2-0.3C54.1,498.3,54.4,498.1,54.8,497.8L54.8,497.8z M45.2,496.1
	L45.2,496.1H45c-0.1,0-0.1,0.1-0.2,0.1h-0.1l0,0h-0.1l-0.1,0.1l-0.2,0.1c0,0-0.1,0-0.3,0.1h-0.1h-0.1l0,0c-0.1,0-0.2,0.1-0.3,0.1
	h-0.1l0,0c-0.1,0-0.1,0.1-0.3,0.1l0,0c-0.1,0-0.1,0-0.2,0.1l0,0c-0.1,0-0.1,0.1-0.2,0.1l0,0l0,0l0,0c0,0-0.1,0-0.1,0.1h-0.1l0,0
	c0,0-0.2,0-0.5,0.1c-0.1,0-0.1,0.1-0.2,0.1c-0.4,0-0.6,0-0.6,0c-0.2,0-0.3-0.1-0.4-0.3c0-0.1,0-0.1-0.1-0.2l0,0
	c0-0.3,0.1-0.4,0.2-0.5c0-0.1,0.1-0.2,0.2-0.4l0.1-0.1l0.1-0.1l0.1-0.1l0,0c0.1,0,0.1-0.1,0.1-0.1c0-0.1,0.1-0.1,0.2-0.3l0,0
	c0.1-0.1,0.1-0.1,0.3-0.2l0,0c0.2-0.3,0.3-0.4,0.3-0.5s0-0.1-0.1-0.2s-0.1-0.1-0.1-0.2c-0.1,0-0.2-0.1-0.2-0.1
	c-0.2-0.1-0.4-0.2-0.7-0.2c0.1,0,0,0-0.2,0.1c-0.1,0.1-0.3,0.1-0.5,0.2l0,0l-0.1,0.1c0,0-0.1,0.1-0.2,0.1l-0.2,0.4l0,0h-0.1
	l-0.1,0.1h-0.1c-0.1,0.1-0.2,0.2-0.4,0.3c-0.1,0-0.2,0.1-0.3,0.1c-0.1,0.1-0.2,0.2-0.2,0.3l-0.1,0.1c-0.1,0.1-0.2,0.1-0.2,0.2l0,0
	c-0.1,0.1-0.2,0.1-0.3,0.2c-0.1,0-0.2,0.1-0.3,0.2l0,0V496c0.1,0,0.1-0.1,0.1-0.1c0.1-0.1,0.2-0.2,0.2-0.4h0.1v-0.1
	c0.1,0,0.1-0.1,0.1-0.1c0.1,0,0.1-0.1,0.1-0.1l0,0c0,0,0-0.1,0.1-0.1l0.1-0.1c0,0,0.1-0.1,0.2-0.2c0,0,0.1-0.1,0.2-0.3l0.1-0.1
	l0.1-0.1l0,0h0.1c0,0,0.1-0.1,0.2-0.3l0,0c0,0,0.1-0.1,0.3-0.2l0,0c0.3,0,0.4-0.1,0.3-0.3c-0.1-0.1-0.2-0.1-0.4-0.2
	c-0.1,0-0.1,0-0.2-0.1c0,0-0.1,0-0.2,0h-0.1c-0.1,0-0.2,0-0.3,0.1l0,0c-0.1,0-0.1,0.1-0.2,0.1l0,0h-0.1v0.1c0,0.1-0.1,0.2-0.3,0.4
	v0.1h-0.1l0,0h-0.1c0,0.1,0,0.1-0.1,0.1c0,0.1,0,0.1-0.1,0.1c0,0,0,0.1-0.1,0.1l0,0c-0.1,0-0.1,0.1-0.1,0.1c0,0.1-0.1,0.3-0.3,0.5
	s-0.3,0.3-0.3,0.4l-0.2,0.3c0,0,0,0.1-0.1,0.2h-0.1v0.1l0,0c-0.1,0-0.1,0.1-0.2,0.1s-0.1,0-0.1,0.1c-0.1,0-0.1,0-0.3,0.1l0,0h-0.1
	c-0.1,0-0.1,0.1-0.2,0.1h-0.1c0,0-0.1,0-0.2,0.1h-0.1c-0.1,0.1-0.2,0.1-0.4,0.2c-0.1,0-0.1,0.1-0.2,0.1s-0.1,0.1-0.2,0.1l0,0h-0.1
	c-0.1,0-0.1,0.1-0.2,0.1h0.1c0,0-0.1,0.1-0.4,0.1c0,0-0.1,0-0.2,0.1c-0.1,0-0.2,0.1-0.2,0.1c-0.4,0.1-0.7,0.2-0.8,0.2
	c0.1-0.2,0.2-0.3,0.2-0.5l0.1-0.1c0,0,0-0.1,0.1-0.3c0.2,0.2,0.2,0.1,0.2,0.1l0,0l0.1-0.1l0,0l0.1-0.1l0.1-0.1l0.1-0.1v-0.1l0.1-0.1
	l0.1-0.1h0.1c0,0,0-0.1,0.1-0.2s0.1-0.2,0.2-0.3h0.1c0,0,0-0.1,0.1-0.2h0.1c0.1-0.1,0.1-0.2,0.3-0.3l0,0l0,0
	c0.2-0.1,0.3-0.1,0.3-0.2s0-0.2-0.2-0.3v-0.1h0.1l0.1-0.1c0-0.2,0-0.3-0.1-0.4v-0.1l0,0c-0.1-0.1-0.3-0.3-0.8-0.6l0,0
	c-0.1,0-0.1,0-0.1-0.1l-0.1-0.1c-0.1,0-0.1,0-0.3,0c-0.1,0-0.2,0-0.3,0s-0.2,0-0.3,0s-0.2,0-0.3,0.1c-0.1,0-0.1,0-0.2,0.1
	c-0.1,0-0.1,0-0.2,0.1c-0.1,0-0.2,0.1-0.4,0.1c-0.1,0-0.1,0.1-0.2,0.1l0,0c-0.1,0.1-0.3,0.2-0.5,0.4h-0.3h-0.1l0,0l-0.2,0.1l0,0
	l-0.1,0.1h-0.1c-0.1,0.1-0.2,0.1-0.3,0.2c0,0.1-0.1,0.2-0.2,0.3l0,0c-0.1,0-0.3,0.1-0.7,0.2l0,0h-0.1c0,0.1-0.1,0.1-0.2,0.2v0.1l0,0
	h-0.1c0,0,0,0.1,0,0.2l0,0c0,0,0,0.1-0.1,0.2l0,0l0,0c0,0-0.1,0.1-0.2,0.1l-0.1,0.1c0,0.1,0,0.1-0.1,0.2c0,0,0,0.1-0.1,0.2
	c0,0.1,0,0.1,0,0.2l0,0l0,0c-0.1,0-0.2,0.1-0.4,0.2l-0.1,0.1v0.1c-0.1,0-0.1,0-0.1,0.1c-0.1,0-0.2,0.1-0.4,0.2h-0.1
	c-0.1,0-0.1,0-0.1,0l-0.1,0.1h-0.1l-0.1,0.1H27l0,0h-0.5v0.1c0,0-0.1,0-0.1,0.1c-0.1,0-0.2,0-0.4,0.1l-0.1,0.1l0,0c0,0-0.1,0-0.2,0
	s-0.2,0-0.2,0l-0.1,0.1c0,0-0.1,0-0.2,0.1c-0.4,0-0.6,0-0.6,0h-0.1c-0.1,0-0.1,0-0.1,0l0,0h-0.1v-0.1c0-0.1,0-0.1,0-0.1
	c0-0.1,0-0.1,0.1-0.3c0-0.1,0.1-0.2,0.1-0.2l0.1-0.1c0-0.1,0.1-0.2,0.1-0.3l0,0c0.2-0.1,0.3-0.3,0.3-0.4c0.1-0.1,0.1-0.1,0.3-0.3
	h0.1c0.1,0,0.2-0.1,0.3-0.2v-0.1c0.4-0.2,0.6-0.2,0.7-0.2h0.1c0-0.1-0.1-0.2-0.4-0.4c-0.2-0.1-0.4-0.2-0.6-0.2c-0.1,0-0.1,0-0.2,0
	s-0.2,0-0.2,0l-0.1,0.1l0,0c0,0.1-0.1,0.1-0.2,0.2l-0.3,0.3v0.1c-0.1,0.1-0.3,0.2-0.4,0.3c-0.1,0.1-0.1,0.2-0.2,0.4l0,0l0,0
	c0,0,0,0.1-0.1,0.1h-0.1h-0.1c0,0-0.1,0-0.2,0.1s-0.3,0.2-0.5,0.3c0,0.1-0.2,0.2-0.6,0.3l0,0h-0.1c-0.1,0-0.1,0.1-0.2,0.1h-0.1
	c-0.1,0-0.2,0.1-0.4,0.1c-0.1,0.1-0.2,0.1-0.3,0.1c-0.2,0.1-0.4,0.1-0.7,0v-0.1l0.1-0.1c0-0.1,0-0.2,0-0.3c0.1,0,0.1-0.1,0.2-0.2
	h0.1l0,0c0.2-0.1,0.2-0.1,0.2-0.2s-0.1-0.1-0.1-0.2c0.2-0.1,0.3-0.3,0.3-0.5l0,0c0-0.3,0.1-0.6,0.3-0.8v-0.4
	c0.1-0.1,0.2-0.2,0.1-0.3l0,0l0,0l0,0l0,0c0,0,0-0.1,0-0.2s-0.1-0.2-0.1-0.2c0-0.1,0.1-0.1,0.2-0.2v-0.1c-0.1,0-0.2-0.1-0.2-0.1
	c0-0.1-0.1-0.2-0.3-0.4l-0.1-0.1H21c-0.1,0-0.1-0.1-0.2-0.1c-0.3,0-0.6,0-0.8,0.1l0,0c-0.1,0-0.2,0.1-0.3,0.2v0.1v0.1l-0.1,0.1
	c0,0-0.1,0.1-0.2,0.2s-0.3,0.2-0.5,0.3l0,0h-0.1l0,0c0,0-0.1,0-0.1,0.1h-0.1c0,0-0.1,0.1-0.2,0.1l-0.2,0.2l0,0l-0.2,0.1h-0.1
	c-0.2,0.1-0.2,0.1-0.2,0.2c-0.1,0.1-0.3,0.2-0.6,0.3L17,495h-0.1l-0.1,0.1h-0.4l-0.1,0.2h-0.1v0.1c0,0-0.1,0-0.2,0.1
	c-0.1,0-0.5,0-1.1,0.1c-0.1,0.1-0.2,0.1-0.4,0.2l-0.1-0.1c0.1,0.2,0.1,0.3,0.1,0.4c0,0,0.1,0.1,0.2,0.1c0,0,0,0.1,0.1,0.1
	c-0.1,0.1-0.2,0.1-0.3,0.2l-0.2,0.1c-0.1,0-0.3,0.1-0.5,0.3h-0.1l-0.1,0.1c-0.1,0-0.3,0-0.7,0.1s-0.6,0.1-0.7,0.1s-0.2,0-0.3,0
	s-0.2,0-0.3-0.1s-0.3-0.2-0.6-0.4l0,0l-0.1-0.1c0-0.1,0-0.1-0.1-0.2v-0.2l0,0l0,0l0,0v-0.1c0.2-0.1,0.4-0.1,0.7-0.3
	c0.1,0,0.2-0.1,0.5-0.2l0,0h0.1l0,0l0.2-0.1l0,0l0,0c0.1-0.1,0.3-0.2,0.4-0.3c0.1-0.1,0.2-0.2,0.2-0.3h0.1c0,0,0.1-0.1,0.1-0.2
	c0.1-0.1,0.2-0.2,0.3-0.3l0,0c0.3-0.3,0.4-0.5,0.4-0.6H14c0.1-0.1,0.1-0.2,0.1-0.3c0-0.3-0.3-0.6-0.8-0.8c-0.3-0.1-0.6-0.1-0.6-0.1
	c-0.1,0-0.2,0-0.3,0.1c0,0-0.1,0.1-0.2,0.1c0,0,0,0.1-0.1,0.1H12l0,0c-0.2,0.1-0.3,0.2-0.4,0.3v0.1c-0.1,0.1-0.2,0.1-0.2,0.1h-0.1
	c0,0,0,0.1-0.1,0.1v0.1l-0.1,0.1c-0.1,0.1-0.2,0.1-0.4,0.3v0.1l0,0c0,0.1,0,0.1-0.1,0.1c-0.1,0.2-0.3,0.6-0.6,1H9.9
	c-0.1,0.1-0.2,0.4-0.3,0.7L9.5,496v0.1v0.3l0,0c-0.1,0-0.1,0.1-0.2,0.1l-0.2,0.1c-0.1,0-0.2,0.1-0.3,0.2H8.7c0,0-0.1,0.1-0.2,0.2
	l0,0c0,0-0.1,0.1-0.3,0.2H8.1c-0.1,0-0.1,0.1-0.2,0.2c0,0-0.1,0-0.1,0.1c-0.3,0-0.4,0-0.4,0l0,0c-0.1,0-0.2,0.1-0.4,0.1
	c-0.1,0-0.2,0-0.3,0.1c-0.1,0-0.1,0-0.2,0.1c-0.2,0-0.4,0.1-0.7,0.1l0,0H5.6c-0.1-0.1-0.2-0.2-0.3-0.4c0,0,0-0.1-0.1-0.2v-0.6
	c0.1-0.1,0.2-0.5,0.2-1.1l0,0c0,0,0-0.1,0.1-0.1h0.1c0.1,0,0.1-0.1,0.2-0.2c0,0,0.1-0.1,0.4-0.3l0,0c0.1-0.1,0.1-0.1,0.2-0.2
	s0.1-0.1,0.2-0.1s0.1-0.1,0.2-0.2l0,0c0,0,0.2-0.2,0.6-0.5c0.2-0.1,0.2-0.1,0.2-0.2c0.1-0.1,0.1-0.1,0.2-0.2s0.2-0.1,0.2-0.2l0,0
	l0.1-0.1l0,0l0.1-0.1c0.1-0.1,0.2-0.2,0.3-0.3h0.1c0,0,0.1-0.1,0.1-0.2l0,0c0,0,0-0.1,0.1-0.2s0.1-0.1,0.1-0.2c0,0,0-0.1,0.1-0.1
	h0.1v-0.1l0,0c0,0,0-0.1,0.1-0.1l0.1-0.1c0.1-0.1,0.2-0.3,0.4-0.5c0,0,0.1-0.2,0.3-0.5c0,0,0-0.1,0-0.2s0-0.2,0-0.2l0,0
	c0-0.3,0-0.5-0.1-0.5c0,0-0.2-0.2-0.5-0.4c0,0-0.1,0-0.3-0.1c-0.2,0-0.3-0.1-0.4-0.1s-0.2,0-0.2,0.1H8.4c0,0-0.1,0.1-0.2,0.1
	c-0.1,0.1-0.2,0.2-0.3,0.3l0,0l0,0c-0.1,0-0.1,0-0.1,0.1H7.7l-0.1,0.1c0,0.2,0,0.3-0.1,0.3c-0.1,0.1-0.2,0.2-0.3,0.2H7.1
	c0,0,0,0.1-0.1,0.1v0.1c0,0.1,0,0.1,0,0.1c-0.3,0.2-0.4,0.3-0.5,0.4s-0.2,0.3-0.3,0.5l-0.1,0.1c-0.1,0-0.1,0.1-0.2,0.2
	c0,0,0,0.1-0.1,0.2l-0.1,0.1l0,0v0.1l0,0v0.4l0,0c0,0.1,0,0.1-0.1,0.2c0,0.1,0,0.1-0.1,0.1v0.1c0,0-0.1,0.1-0.2,0.1s-0.2,0-0.2,0
	s-0.1-0.1-0.3-0.1c0,0-0.1-0.1-0.4-0.2C4.2,493,4.1,493,4,493l-0.1-0.1H3.5H3.4c-0.1,0-0.2,0-0.3,0s-0.2,0-0.3,0L2.6,493H2.5
	c-0.1,0.1-0.3,0.2-0.6,0.3H1.8l-0.2,0.1l0,0c0,0-0.1,0-0.2,0.1c-0.1,0-0.2,0.1-0.4,0.2l0,0H0.9l0,0c-0.1,0-0.2,0.1-0.3,0.1H0.5
	l-0.1,0.1l0,0c-0.1,0.1-0.2,0.2-0.4,0.3h-0.1c0,0,0,0.1-0.1,0.1v0.1h-0.1l0.2,0.2l0,0v0.1c0,0-0.1,0-0.1,0.1l0,0c0,0,0,0.1-0.1,0.1
	l0,0h-0.1c0,0,0,0.1-0.1,0.1c0,0.1,0,0.2-0.1,0.4c-0.1,0.2-0.1,0.3-0.1,0.4s0,0.2,0,0.4c0,0.2,0,0.3,0,0.4l0,0c0,0.1,0,0.2-0.1,0.3
	c0,0.1,0,0.2,0,0.3l0.1,0.1l0.1,0.1l0.1,0.1l0,0c0.1,0,0.2,0.1,0.3,0.2c0.9,0.2,1.5,0.3,1.9,0.2h0.1h0.1c0.1-0.1,0.3-0.2,0.6-0.4
	l0,0h0.1c0,0,0.1-0.1,0.2-0.1l0,0c0.1-0.1,0.2-0.1,0.4-0.2l0.1-0.1c0.1,0,0.2-0.1,0.3-0.2h0.1c0.1,0,0.2-0.1,0.3-0.2
	c0.1,0,0.1-0.1,0.2-0.1c0.1,0,0.1,0,0.2-0.1h0.2c0,0.1,0,0.2-0.1,0.3l0,0l0,0c-0.1,0-0.1,0.1-0.1,0.2s0,0.2,0.1,0.2
	c0,0.1,0,0.3,0.1,0.5c0.1,0.1,0.2,0.1,0.5,0.2l0,0c0.1,0,0.2,0.1,0.3,0.1s0.2,0,0.2,0.1h0.9c0.1,0,0.3-0.1,0.5-0.1h0.1h0.1
	c0,0,0.2-0.1,0.6-0.2c0.3-0.1,0.5-0.2,0.6-0.2c0.2,0,0.3-0.1,0.5-0.2H9c0.1,0,0.2-0.1,0.4-0.2l0,0c0.1,0,0.2-0.1,0.3-0.2
	c0.1,0,0.2-0.1,0.2-0.1H10c0,0,0,0,0.1,0.1l0.1,0.1c0.1,0.1,0.3,0.1,0.5,0.2h0.1c0,0,0.1,0.1,0.2,0.1h0.1l0.1,0.1
	c0.1,0,0.2,0,0.4,0.1c0.2,0,0.3,0.1,0.4,0l0,0c0.3,0,0.6,0,0.8,0c0.1,0,0.3,0,0.5-0.1c0.2,0,0.4-0.1,0.5-0.1s0.2-0.1,0.3-0.1l0,0
	h0.1l0,0l0.3-0.1l0,0c0.1,0,0.1-0.1,0.2-0.1l0,0l0.2-0.1l0.1-0.1c0,0,0.1,0,0.2-0.1l0.1-0.1c0.1,0,0.1,0,0.2-0.1c0,0,0,0.1,0.1,0.2
	h0.1v0.1c0,0,0.1,0.1,0.3,0.1l0,0l0.1,0.1v0.1h-0.6c0.1,0.2,0.4,0.4,0.8,0.6l0,0h0.1l0,0l0.4,0.2h0.1c0.1,0,0.1,0.1,0.3,0.1
	c0.4,0,0.8,0,1.4-0.1c0,0,0.1-0.1,0.2-0.1c0,0,0.1-0.1,0.2-0.1h0.1c0.1-0.1,0.3-0.2,0.6-0.3l0,0c0.6,0,1.1-0.1,1.4-0.1
	c0.1-0.1,0.3-0.1,0.6-0.2c0.1,0,0.3-0.1,0.5-0.2c0,0,0.1,0,0.2,0s0.1,0,0.1-0.1c0.1,0,0.1-0.1,0.3-0.1h0.1c0,0,0.1-0.1,0.2-0.1l0,0
	c0,0,0,0,0,0.1s0,0.1,0,0.2s0,0.1,0,0.2s0.1,0.2,0.1,0.3c0.1,0.1,0.1,0.1,0.1,0.2s0.1,0.1,0.3,0.2l0.3,0.1c0,0,0.1,0,0.2,0
	s0.2,0,0.2,0c0.4,0,0.8-0.1,1-0.2h0.1c0,0,0.1,0,0.2,0c0,0,0.1-0.1,0.3-0.1l0,0c0.1,0,0.1-0.1,0.2-0.1s0.3-0.1,0.5-0.2l0,0
	c0.1,0,0.3-0.1,0.6-0.1c0.1,0,0.1-0.1,0.3-0.1h0.1c0.2-0.1,0.4-0.1,0.6-0.3c0,0,0,0.1,0.1,0.1c0,0.1,0.1,0.1,0.2,0.3h0.1l0,0
	c0.1,0,0.1,0,0.2,0.1H29l0.2,0.1v0.1c0.1,0,0.1,0,0.1,0.1l0,0l0,0c0,0,0.1,0,0.1,0.1h0.1c0.1,0,0.2,0,0.2,0.1c0.2,0,0.4,0,0.7-0.1
	c0.1-0.1,0.3-0.1,0.5-0.2l0,0H31l0.1-0.1c0.1,0,0.1-0.1,0.2-0.1h0.1c0.1,0,0.1-0.1,0.2-0.1l0,0c0.1-0.1,0.3-0.1,0.3-0.2l0,0l0,0
	c0.2-0.1,0.4-0.3,0.7-0.5h0.1l0,0c0.1,0.1,0.1,0.2,0,0.3l-0.1,0.1l0,0l-0.1,0.3c0,0.1-0.1,0.2-0.2,0.4c0,0.1,0,0.1-0.1,0.2
	c0,0.1-0.1,0.2-0.1,0.3l0,0v0.1l-0.1,0.1h-0.1l0,0h-0.1c-0.1,0-0.3,0.1-0.5,0.2h-0.1c-0.1,0-0.2,0.1-0.3,0.1l0,0l0,0
	c0,0-0.1,0.1-0.2,0.1l-0.2-0.2c-0.1,0-0.2,0-0.3,0c0,0-0.2,0.1-0.4,0.3h-0.1l0,0c-0.1,0-0.4,0.1-0.9,0.4l0,0c-0.1,0-0.3,0.1-0.5,0.2
	c0,0-0.1,0.1-0.2,0.1H28c-0.1,0-0.1,0.1-0.3,0.1l0,0c0,0-0.2,0.1-0.4,0.2l0,0c-0.1,0.1-0.2,0.1-0.4,0.2c-0.1,0-0.2,0-0.3,0.1
	c-0.1,0-0.2,0.1-0.3,0.2l0,0l0,0c-0.1,0.1-0.3,0.2-0.4,0.3c0,0.1-0.1,0.1-0.1,0.1v0.1l-0.1,0.1l0,0l-0.2,0.1l-0.1,0.1
	c0,0-0.1,0-0.1,0.1h-0.1c-0.1,0.1-0.3,0.1-0.4,0.2c0,0.1,0,0.2-0.1,0.2c0,0.1,0,0.1-0.1,0.1l0,0h-0.1c0,0,0,0.1-0.1,0.1
	c0,0.1,0,0.1-0.1,0.2v0.1l0,0c0,0.1-0.1,0.4-0.2,0.7v0.4c0,0.1,0,0.2,0.1,0.3c0.1,0.1,0.1,0.3,0.1,0.3l0.1,0.1l0.1,0.1
	c0.1,0,0.2,0.1,0.3,0.1c0,0,0.1,0,0.2,0.1l0,0c0,0,0.1,0,0.4,0.1h0.1h0.1c0.1,0,0.3,0,0.5,0c0,0,0.1,0,0.2,0s0.1,0,0.2,0
	s0.2-0.1,0.3-0.1c0.1,0,0.1,0,0.3-0.1c0.1,0,0.3-0.1,0.5-0.2c0-0.1,0.1-0.2,0.1-0.2c0.1-0.1,0.1-0.1,0.2-0.2
	c0.2-0.1,0.4-0.2,0.6-0.5s0.4-0.4,0.5-0.5v-0.1h0.1l0.3-0.3l0,0c0.1,0,0.1-0.1,0.1-0.1s0.1-0.1,0.1-0.2l-0.1,0.7l0,0l0.1-0.1
	l0.2-0.2l0,0c0.1-0.2,0.3-0.4,0.6-0.7c0-0.1,0.1-0.2,0.2-0.2c0,0,0-0.1,0.1-0.2l0,0l0.2-0.1c0.1-0.1,0.1-0.3,0.2-0.4
	c0,0,0.1-0.1,0.2-0.2l0,0c0,0,0.1-0.1,0.1-0.2c0,0,0.1-0.1,0.1-0.2l0,0c0.1-0.1,0.1-0.2,0.2-0.4h0.1c0,0,0-0.1,0.1-0.2
	c0-0.1,0.1-0.1,0.1-0.2c0.1-0.1,0.3-0.4,0.7-0.8c0.1,0,0.1,0,0.2-0.1c0.1,0,0.1,0,0.2,0s0.1,0,0.2-0.1c0.1,0,0.2-0.1,0.3-0.1l0,0
	h0.1c0.1,0,0.2-0.1,0.4-0.1l0,0c0,0,0.1-0.1,0.2-0.1l0,0c0.1,0,0.2,0,0.4-0.1h0.1c0,0,0.1-0.1,0.2-0.1s0.1,0,0.2-0.1h0.1
	c0.1,0,0.1-0.1,0.2-0.1l0,0l0.1-0.1c0.1,0,0.2-0.1,0.4-0.2h0.1c0.1,0,0.1-0.1,0.2-0.1h0.1h0.1l0,0l0,0c0.1,0,0.2-0.1,0.3-0.1l0,0
	c0,0-0.1,0.1-0.2,0.1c0,0.1-0.1,0.1-0.1,0.3h-0.1l0,0h-0.1c-0.1,0-0.1,0.1-0.2,0.1v0.1l-0.1,0.1l0.1,0.2l0.1,0.1c0,0,0.1,0,0.1,0.1
	c0.2,0,0.4,0.1,0.6,0.2c0.2,0,0.3,0,0.4,0c0,0,0-0.1,0-0.2s0-0.1,0-0.2c0,0,0-0.1,0.1-0.1l0.1-0.1c0,0,0.1-0.1,0.1-0.2
	c0.1,0,0.1-0.1,0.2-0.2l0,0v-0.1l0,0c0.1,0,0.1-0.1,0.2-0.2l0,0c0.1,0,0.1-0.1,0.2-0.2l0,0c0.2-0.2,0.3-0.3,0.5-0.4l0,0h0.1
	c0,0,0,0,0.1-0.1s0.3-0.2,0.5-0.4c0.1,0,0.2-0.1,0.3-0.2h0.1l0.1-0.1l0,0l0,0c0.1,0,0.1,0,0.1-0.1c0.1,0,0.1-0.1,0.3-0.2h0.1
	c0,0,0.1-0.1,0.1-0.2c0.1,0,0.1,0,0.1-0.1c0,0-0.1,0.3-0.2,0.7c0,0.1,0,0.2-0.1,0.3c0,0.1-0.1,0.2-0.1,0.2c0,0.1-0.1,0.2-0.2,0.4
	v0.5c-0.1,0-0.1,0.1-0.1,0.2s0,0.3,0.1,0.5s0.2,0.3,0.3,0.4h0.1c0.1,0,0.1,0,0.2,0c0.1,0.1,0.2,0.1,0.5,0.1c0.2,0,0.4,0,0.6,0
	c0,0,0.1-0.1,0.2-0.1c0,0,0.1,0,0.2,0c0.3-0.1,0.7-0.4,1.3-0.6l0,0h0.1c0.1,0,0.1-0.1,0.2-0.1c0,0,0.1-0.1,0.2-0.1l0,0
	c0.1,0,0.2-0.1,0.3-0.2l0,0h0.1l0,0c0.2,0,0.4-0.1,0.6-0.4H45C45,496.2,45.1,496.2,45.2,496.1L45.2,496.1z M31.5,498.7
	C31.5,498.8,31.5,498.8,31.5,498.7c-0.2,0.2-0.3,0.4-0.4,0.6c0,0,0,0.1-0.1,0.2c0,0.1-0.1,0.1-0.1,0.1v0.1h-0.1v0.1h-0.1l0,0
	l-0.1,0.1v0.1l-0.2,0.2h-0.1c0,0,0,0.1-0.1,0.2s-0.1,0.2-0.1,0.2l-0.1,0.1c0,0,0,0.1-0.1,0.1c0,0,0,0.1-0.1,0.2l0,0l-0.1,0.1
	c0,0,0,0.1-0.1,0.1c0,0-0.1,0.1-0.2,0.2c0,0,0,0.1-0.1,0.3l-0.1,0.1l0,0l0,0c-0.1,0.1-0.1,0.1-0.2,0.2l0,0l0,0c0,0-0.1,0.1-0.2,0.2
	c0,0-0.1,0.1-0.2,0.2l0,0c-0.1,0.2-0.2,0.2-0.2,0.3l-0.1,0.1c0,0-0.1,0.1-0.1,0.2H28l0,0c-0.1,0.1-0.2,0.2-0.4,0.3v0.1l-0.1,0.1l0,0
	h-0.1c-0.1,0.1-0.2,0.2-0.3,0.3l0,0v0.1c-0.2,0.2-0.3,0.3-0.4,0.3s-0.1,0.1-0.3,0.2c-0.1,0.1-0.3,0.2-0.4,0.2c0,0.1-0.1,0.1-0.2,0.2
	l0,0c-0.1,0.1-0.2,0.1-0.4,0.1c-0.3,0-0.5-0.1-0.7-0.2l0,0v-0.1h-0.1c-0.1-0.5-0.1-0.8,0.1-1v-0.4L25,503c0.1-0.1,0.2-0.3,0.3-0.6
	l0.1-0.1l0,0l0.1-0.2l0,0c0-0.1,0.2-0.2,0.5-0.5l0,0c0,0,0.1-0.1,0.2-0.2l0,0l0,0c0.1-0.1,0.2-0.2,0.4-0.4h0.1c0,0,0-0.1,0.1-0.1
	l0.1-0.1c0.2-0.1,0.3-0.1,0.3-0.2h0.1c0,0,0.1-0.1,0.2-0.1l0,0l0,0c0.3-0.2,0.6-0.4,1-0.6l0,0h0.1l0,0c0.1,0,0.1-0.1,0.3-0.1l0,0
	c0.1,0,0.1,0,0.3-0.1l0,0h0.1c0.1-0.1,0.3-0.2,0.4-0.2l0,0c0.1,0,0.1,0,0.2-0.1H30c0.1,0,0.1-0.1,0.2-0.1h0.1l0.1-0.1h0.1h0.1
	c0.1,0,0.2-0.1,0.2-0.1h0.1C31,498.7,31.2,498.6,31.5,498.7L31.5,498.7z M34.6,493.9L34.6,493.9l-0.2,0.2c0,0,0,0.1-0.1,0.1
	c0,0-0.1,0.1-0.1,0.2l-0.1,0.1l0,0l-0.1,0.1l0,0h-0.1v0.1l0,0c0,0.1,0,0.1-0.1,0.1c0,0-0.1,0.1-0.1,0.2h-0.2c0,0.2-0.1,0.3-0.2,0.3
	l0,0h-0.1l0,0h-0.1c0,0.1-0.2,0.2-0.5,0.4c-0.3,0.2-0.4,0.3-0.5,0.4l-0.1,0.1c0,0-0.1,0.1-0.2,0.1l0,0h-0.1c-0.1,0-0.1,0-0.2,0.1
	c0,0-0.1,0-0.2,0s-0.1,0-0.1,0l0,0c0,0-0.1,0.1-0.2,0.1c0,0,0,0-0.1,0.1c0,0.1-0.1,0.1-0.2,0.2c-0.1,0-0.1,0.1-0.3,0.1l0,0
	c-0.2,0.1-0.4,0.1-0.6,0.1c0,0-0.1-0.1-0.2-0.1l-0.2-0.1c0-0.1-0.1-0.2-0.1-0.3s0.1-0.3,0.2-0.5s0.2-0.4,0.2-0.5
	c0.2-0.1,0.3-0.2,0.3-0.3c0-0.1,0.1-0.1,0.3-0.2l0.1-0.1v-0.2c0.1,0,0.1,0,0.1-0.1l0.3-0.2l0,0c0.2-0.1,0.3-0.2,0.4-0.3h0.1
	c0,0,0,0,0.1-0.1v-0.1h0.1h0.1c0.1-0.1,0.2-0.1,0.3-0.2c0.1,0,0.1,0,0.2-0.1c0.1,0,0.2-0.1,0.4-0.2c0,0,0.2-0.1,0.4-0.2l0,0
	c0.1,0,0.2-0.1,0.4-0.1c0.1,0,0.1,0,0.2-0.1c0.1,0,0.2,0,0.4-0.1c0.2,0,0.3-0.1,0.4-0.1c0,0,0.1,0,0.2,0.1v0.1h0.1L34.6,493.9z
	 M28.3,493.3v-0.1l-0.1-0.1c-0.1,0-0.2-0.1-0.4-0.2c-0.2-0.1-0.3-0.1-0.4-0.1s-0.2,0-0.3,0.1c-0.1,0.1-0.2,0.1-0.2,0.1l-0.1,0.1v0.1
	l0.1,0.1l0.1,0.1l-0.1,0.1l0,0h-0.1l0,0c0,0.1,0,0.2,0.2,0.3l0,0h0.1l0,0h0.1c0.1-0.1,0.2-0.1,0.3-0.1l0,0h0.1
	c0.2-0.1,0.4-0.2,0.6-0.3L28.3,493.3z M18,497.5c-0.3,0.3-0.5,0.4-0.8,0.4c-0.1,0-0.2,0-0.3,0l0,0l0,0v-0.1l-0.2-0.1l0,0
	c-0.3-0.3-0.5-0.4-0.5-0.5c-0.1-0.1-0.2-0.4-0.1-0.6h0.1c0.1,0,0.2,0.1,0.3,0.1l0,0l0,0c0.2,0.1,0.5,0.3,0.8,0.5l0,0
	c0.1,0,0.2,0.1,0.3,0.2c0,0,0.1,0,0.2,0S17.9,497.4,18,497.5L18,497.5L18,497.5z M19.8,493.6c0,0.5,0,0.9-0.1,1l0,0l0,0l0,0v0.1l0,0
	c0,0.1-0.1,0.2-0.1,0.3v0.1l0,0c-0.1,0.1-0.1,0.2-0.2,0.4c-0.1,0.1-0.2,0.3-0.3,0.5c-0.1,0.2-0.2,0.4-0.3,0.5c0,0.1,0,0.1-0.1,0.2
	c0,0.1-0.1,0.1-0.2,0.2c-0.1,0-0.2,0-0.4,0l0,0c-0.1,0-0.2,0-0.3-0.1c-0.2-0.1-0.4-0.2-0.7-0.4l0,0c-0.1-0.1-0.3-0.2-0.6-0.4
	c-0.1-0.2-0.1-0.3,0-0.5c0.1,0,0.1-0.1,0.1-0.1l0.1-0.1l0.1-0.1v-0.1l0,0c0.1-0.1,0.2-0.1,0.3-0.2l0,0c0,0,0.1-0.1,0.3-0.2l0,0
	l0.1-0.1l0.1-0.1c0,0,0.1,0,0.2-0.1h0.1c0.1-0.1,0.2-0.1,0.2-0.2c0.1,0,0.2-0.1,0.3-0.3l0.2-0.1h0.1l0.1-0.1l0,0
	c0,0,0.1-0.1,0.3-0.1l0,0h0.1c0.1-0.1,0.2-0.1,0.3-0.2h0.1C19.8,493.4,19.9,493.5,19.8,493.6L19.8,493.6z M13.6,493.3
	c0,0.1-0.1,0.3-0.1,0.6h-0.1c0,0,0,0.1-0.1,0.2c0,0-0.1,0.1-0.2,0.2c0,0,0,0.1-0.1,0.1c0,0.1,0,0.1-0.1,0.1v0.1
	c-0.1,0.1-0.3,0.2-0.5,0.3c0,0.2-0.2,0.3-0.5,0.4c0,0-0.1,0-0.3,0.1c0,0.1-0.3,0.2-0.6,0.2h-0.1v-0.2l0,0c0-0.1,0-0.1,0.1-0.3
	c0.1,0,0.1-0.1,0.1-0.3h0.1l0.3-0.5c0-0.1,0.1-0.2,0.3-0.3c0.1-0.1,0.1-0.2,0.2-0.3l0.1-0.1c0-0.1,0.1-0.2,0.4-0.3l0,0l0,0l0,0h0.1
	c0.2-0.2,0.4-0.3,0.5-0.3c0.1-0.1,0.2-0.1,0.3-0.1s0.2,0,0.3,0.1C13.6,493.2,13.6,493.3,13.6,493.3L13.6,493.3z M9.5,490.6
	c0,0,0,0.1-0.1,0.1H9.3c0,0.2-0.1,0.3-0.2,0.4c0,0.1,0,0.1-0.1,0.1v0.1c0,0.1-0.1,0.1-0.2,0.2v0.1c0,0.1-0.1,0.1-0.2,0.2
	c0,0.1,0,0.1-0.1,0.1c0,0,0,0.1-0.1,0.1l0,0h0.1v0.1H8.4c0,0.1,0,0.1-0.1,0.1c-0.1,0.1-0.2,0.3-0.3,0.5c0,0-0.1,0.1-0.3,0.2l0,0
	c-0.1,0-0.2,0.1-0.3,0.2l-0.1,0.1l0,0c-0.1,0.1-0.2,0.3-0.5,0.5c0,0,0,0-0.1,0.1H6.6v0.1c-0.1,0.1-0.3,0.2-0.5,0.3l0,0
	c-0.1,0-0.1,0.1-0.3,0.1v0.3l0.2-0.3c0-0.1,0-0.1,0.1-0.1c0,0,0-0.1,0-0.2l0,0c0-0.1,0.1-0.1,0.1-0.2s0.1-0.1,0.2-0.3
	c0,0,0.1-0.1,0.2-0.4h0.1V493l0.1-0.1c0-0.1,0.1-0.2,0.2-0.4v-0.1c0.3-0.2,0.4-0.4,0.4-0.7l0.1-0.1c0.1-0.1,0.2-0.3,0.3-0.5
	c0.1,0,0.2-0.1,0.3-0.2l0,0c0.1-0.1,0.2-0.2,0.3-0.3v-0.1c0.1,0,0.1,0,0.1-0.1h0.1c0.1-0.1,0.2-0.1,0.3-0.2H9c0,0,0.1-0.1,0.3-0.1
	l0,0c0,0.1,0.1,0.2,0,0.4C9.5,490.5,9.5,490.5,9.5,490.6L9.5,490.6z"/>
<linearGradient id="XMLID_2_" gradientUnits="userSpaceOnUse" x1="-59.5191" y1="466.4697" x2="-5.2691" y2="510.4697">
	<stop  offset="0" style="stop-color:#785827"/>
	<stop  offset="0.2125" style="stop-color:#F5E486"/>
	<stop  offset="0.3596" style="stop-color:#B08039"/>
	<stop  offset="0.4899" style="stop-color:#B08039"/>
	<stop  offset="0.6474" style="stop-color:#F5E486"/>
	<stop  offset="0.827" style="stop-color:#B08039"/>
	<stop  offset="1" style="stop-color:#F5E486"/>
</linearGradient>
<path id="XMLID_29_" class="st1" d="M-11.6,498.7h-21.8h-10.5h-4.7H-49l0,0c-2.4-0.1-2.6-0.8-1.3-3.1l11-18.9l4.9-8.4
	c0.5-0.9,0.6-0.8,1.1-0.1c0.4,0.6,0.7,0.8,0.1,1.7l-14.7,25.2H-15c1.1,0,1-0.1,0.4-1.1l-18.1-31.1c-0.7-1.1-0.6-1.2-1.3,0
	l-14.5,24.8l0,0l-6.4,11h-0.5H-59l1.8-3l11-18.9l11-18.9c1.4-2.4,2.2-2.4,3.6,0l11,18.8l11,18.9c1.4,2.4,1,3.1-1.7,3.1H-11.6z"/>
</svg>
