<?xml version="1.0" encoding="utf-8"?>
<!-- Generator: Adobe Illustrator 19.0.0, SVG Export Plug-In . SVG Version: 6.00 Build 0)  -->
<svg version="1.1" id="Layer_1" xmlns="http://www.w3.org/2000/svg" xmlns:xlink="http://www.w3.org/1999/xlink" x="0px" y="0px"
	 viewBox="-192 396 210 49.9" style="enable-background:new -192 396 210 49.9;" xml:space="preserve">
<style type="text/css">
	.st0{fill:#3B3A3C;}
	.st1{fill:url(#XMLID_2_);}
</style>
<g id="XMLID_52_">
	<polygon id="XMLID_28_" class="st0" points="7.1,400 2.4,400 -8.4,425.9 -4.9,425.9 4.8,402.4 14.6,425.9 18.1,425.9 	"/>
	<rect id="XMLID_27_" x="-14.8" y="400" class="st0" width="3.1" height="25.9"/>
	<path id="XMLID_26_" class="st0" d="M-32.1,413v2.5h9.5c0,0.7,0,1.3,0,1.6c0,1.1,0,2-0.1,2.6c-0.1,1.2-0.4,2-0.7,2.5
		c-0.7,1-3,1.4-7,1.4c-3,0-5.1-0.1-6.3-0.3c-1.5-0.2-2.5-0.8-3.1-1.7c-0.4-0.7-0.7-1.8-0.8-3.2c0-1,0-2.9,0-5.6c0-2.6,0-4.3,0.1-5.4
		c0.2-2.8,1.1-4.4,2.9-4.8c1.1-0.3,2.9-0.4,5.4-0.4c2.7,0,4.3,0,4.7,0c2.3,0.2,3.7,0.7,4.2,1.5c0.3,0.5,0.5,1.1,0.5,1.8
		c0,0.3,0.1,0.9,0.1,1.9h3.3c0-1.3,0-2.1,0-2.4c-0.2-2.5-1.6-4.1-4.1-4.8c-1.2-0.4-3.8-0.5-7.7-0.5c-3.1,0-5.2,0.1-6.2,0.2
		c-2.5,0.4-4.2,1.4-5.2,3s-1.4,4.5-1.4,8.5c0,0.7,0,1.1,0,1.1c0,1.9,0,2.9,0,2.8c0,2.3,0.1,4,0.3,5.1c0.6,2.8,2.4,4.5,5.6,5.2
		c1.3,0.3,3.5,0.4,6.6,0.4c3.3,0,5.6-0.1,6.8-0.3c2.2-0.4,3.7-1.4,4.6-3c0.5-1,0.8-2.7,0.8-5.1v-1.8c0-1.1,0-2-0.1-2.9L-32.1,413
		L-32.1,413L-32.1,413z"/>
	<path id="XMLID_57_" class="st0" d="M-65.2,400.6c-1.4-0.6-3.8-0.8-7.4-0.8c-1.7,0-3.2,0.1-4.4,0.1c-2.4,0.2-4.2,1-5.3,2.4
		c-0.9,1-1.4,2.5-1.7,4.5c-0.1,0.9-0.2,2.3-0.2,4.4c0,3.5,0,5.7,0.1,6.5c0.1,1.9,0.4,3.3,0.8,4.3c0.6,1.5,1.6,2.5,3,3.2
		c1.4,0.6,3.9,0.9,7.6,0.9c1.6,0,3,0,4.2-0.1c2.8-0.2,4.7-1.1,5.9-2.7c0.6-0.9,1-2.2,1.3-4c0.1-1,0.2-3.5,0.2-7.4
		c0-2.5-0.1-4.2-0.2-5.1C-61.6,403.5-62.9,401.5-65.2,400.6z M-64,413v4.1c0,2.5-0.4,4.3-1.3,5.2c-0.6,0.7-1.8,1.1-3.5,1.3
		c-0.5,0.1-1.7,0.1-3.8,0.1c-2.6,0-4.4-0.1-5.3-0.3c-1.1-0.3-1.9-0.8-2.4-1.7c-0.3-0.6-0.6-1.6-0.7-2.9c-0.1-0.6-0.1-2.5-0.1-5.7
		s0-5.1,0.1-5.8c0.3-2.4,1-3.9,2.4-4.4c0.9-0.4,2.9-0.6,6.1-0.6c2.4,0,3.8,0,4.4,0.1c1.8,0.3,2.9,1,3.4,2.1c0.5,1,0.7,2.4,0.8,4.2
		C-64,410.1-64,411.5-64,413z"/>
	<polygon id="XMLID_23_" class="st0" points="-91.9,411.4 -109.1,411.4 -109.1,400 -112.4,400 -112.4,425.9 -109.1,425.9 
		-109.1,413.9 -91.9,413.9 -91.9,425.9 -88.6,425.9 -88.6,400 -91.9,400 	"/>
	<path id="XMLID_53_" class="st0" d="M-120.7,400.6c-1-0.4-3.1-0.6-6.1-0.6h-12.3v25.9h3.3v-10.2h8.4c0.8,0,1.9,0,3.2,0
		c1.6-0.1,2.8-0.3,3.8-0.7c2.1-1,3.2-3.3,3.2-7C-117.1,404-118.2,401.5-120.7,400.6z M-121,411.3c-0.5,0.9-1.5,1.5-3.1,1.7
		c-0.7,0.1-2,0.2-3.9,0.2h-7.8v-10.7h8.9c0.9,0,1.7,0,2.5,0c2,0.1,3.2,0.7,3.6,1.8c0.3,0.8,0.4,2.1,0.4,3.9
		C-120.4,409.6-120.6,410.7-121,411.3z"/>
</g>
<path id="XMLID_32_" class="st0" d="M-128.1,434.1c-0.1,0.1-0.2,0.2-0.2,0.3s0,0.2-0.1,0.3c0,0.1,0,0.1-0.1,0.3
	c-0.1,0.1-0.1,0.2-0.1,0.3c0,0.2,0,0.3,0,0.3v-0.2v0.1c0,0-0.1,0.1-0.2,0.2l0.1,0.2v0.1l0,0l-0.1,0.1l0,0l-0.1,0.1l-0.1,0.1
	c0,0,0,0-0.1,0.1v0.1l-0.1,0.1l-0.1,0.1v0.1c0,0-0.1,0.1-0.2,0.2h-0.1c-0.1,0-0.2,0.1-0.3,0.2l0,0l0,0l-0.1,0.1c0,0-0.1,0-0.1,0.1
	l0,0h-0.1c-0.1,0.1-0.1,0.1-0.3,0.1l-0.1,0.1l-0.1,0.1l0,0h-0.1l-0.1,0.1c0,0-0.1,0-0.2,0.1c0,0-0.1,0-0.2,0c-0.1,0-0.2,0-0.2,0
	s-0.1,0.1-0.2,0.1c-0.2,0.1-0.5,0.2-0.9,0.2h-0.1l-0.2-0.2l0,0l-0.1-0.1c-0.1-0.2-0.1-0.3-0.1-0.3c0-0.6,0-0.9,0.2-1c0,0,0,0,0-0.1
	v-0.1c0.1-0.2,0.2-0.4,0.3-0.4l0,0c0,0,0.1-0.1,0.2-0.2l0,0l0.4-0.4l0,0l0.1-0.1h0.1l0,0l0.1-0.1v-0.1V435l0.1-0.1h0.1
	c0.1,0,0.2,0,0.2-0.1h0.1c0.1-0.1,0.3-0.2,0.5-0.3h0.1l0.1-0.1h0.1h0.1l0,0c0,0,0.2-0.1,0.4-0.3l0,0c0.1,0,0.2,0,0.2-0.1h0.1
	l0.1-0.1c0.5-0.1,0.9-0.1,1.1,0L-128.1,434.1L-128.1,434.1L-128.1,434.1z M-12.1,433.6c0,0.1-0.1,0.3-0.1,0.6h-0.1c0,0,0,0.1,0,0.2
	c0,0-0.1,0.1-0.2,0.2c0,0,0,0.1-0.1,0.1c0,0.1,0,0.1-0.1,0.1v0.2c-0.1,0.1-0.3,0.2-0.5,0.3c0,0.2-0.2,0.3-0.5,0.4c0,0-0.1,0-0.3,0.1
	c0,0.1-0.3,0.2-0.7,0.2h-0.1v-0.2l0,0c0-0.1,0-0.2,0.1-0.3c0.1,0,0.1-0.1,0.1-0.3h0.1l0.3-0.5c0-0.1,0.1-0.1,0.3-0.3
	c0.1-0.1,0.1-0.2,0.2-0.3l0.1-0.1c0-0.1,0.1-0.2,0.4-0.3l0,0h0.1l0,0h0.1c0.2-0.2,0.4-0.3,0.4-0.3c0.1-0.1,0.2-0.1,0.3-0.1
	s0.2,0,0.3,0.1C-12.2,433.5-12.1,433.6-12.1,433.6L-12.1,433.6z M-9.8,436.5c0-0.1-0.1-0.2-0.4-0.1l0,0c-0.1,0-0.2,0.1-0.3,0.1
	s-0.1,0-0.2,0.1h-0.1c-0.1,0.1-0.2,0.1-0.3,0.2l-0.1,0.1c-0.1,0-0.3,0.1-0.6,0.3h-0.1l-0.1,0.1c-0.1,0-0.3,0-0.7,0.1
	s-0.7,0.1-0.7,0.1c-0.1,0-0.2,0-0.3,0s-0.2,0-0.3-0.1s-0.3-0.2-0.6-0.4l0,0l-0.1-0.1c0-0.1,0-0.1-0.1-0.2v-0.2l0,0l0,0l0,0v-0.1
	c0.2-0.1,0.4-0.1,0.7-0.3c0.1,0,0.3-0.1,0.5-0.2l0,0h0.1l0,0l0.2-0.1l0,0l0,0c0.1-0.1,0.3-0.2,0.4-0.3c0.2-0.1,0.2-0.2,0.2-0.3h0.1
	c0,0,0.1-0.1,0.2-0.2s0.2-0.2,0.3-0.3l0,0c0.3-0.3,0.4-0.5,0.4-0.6h0.1c0-0.1,0.1-0.2,0.1-0.3c0-0.3-0.3-0.6-0.8-0.8
	c-0.6,0-0.8-0.1-0.8-0.1c-0.1,0-0.2,0-0.3,0.1c0,0-0.1,0.1-0.2,0.1c0,0,0,0.1-0.1,0.1h-0.1l0,0c-0.2,0.1-0.3,0.2-0.4,0.3v0.1
	c-0.1,0.1-0.2,0.1-0.2,0.1h-0.1c0,0,0,0.1-0.1,0.1v0.1l-0.1,0.1c-0.1,0.1-0.2,0.1-0.4,0.3v0.1l0,0c0,0.1,0,0.1-0.1,0.1
	c-0.1,0.2-0.3,0.6-0.5,1h-0.1c-0.1,0.1-0.1,0.3-0.2,0.5h-0.3v0.1h-0.1l-0.1,0.1l0,0l0,0c-0.1,0-0.2,0.1-0.4,0.2h-0.1
	c-0.1,0.1-0.4,0.2-0.7,0.4l-0.1,0.1c-0.1,0-0.1,0-0.1,0.1c-0.1,0-0.2,0.1-0.3,0.1l0,0h-0.1l-0.1,0.1l0,0c0,0-0.1,0-0.2,0.1l-0.1,0.1
	c-0.2,0-0.4,0.1-0.6,0.2c-0.1,0-0.1,0-0.2,0.1h-0.1l0,0h-0.1c0,0-0.1,0-0.2,0.1l-0.1,0.1c-0.8,0-1.4,0.1-1.9,0.1
	c-0.1-0.1-0.2-0.2-0.4-0.3v-0.5l0,0c0-0.3,0.1-0.7,0.4-1.1c0,0,0.1-0.1,0.2-0.2s0.1-0.2,0.2-0.3l0.5-0.5l0,0c0-0.1,0.2-0.2,0.5-0.4
	l0,0c0.1,0,0.2-0.1,0.3-0.2l0,0h0.1l0.1-0.1h0.1c0,0,0.1,0,0.1-0.1c0.1,0,0.2-0.1,0.3-0.1l0.3-0.1c0,0,0.1,0,0.2-0.1
	s0.3-0.1,0.7-0.1c0,0,0.1,0,0.2,0.1c0.1,0,0.2,0,0.2,0.1l0,0v0.1l-0.1,0.1c0,0-0.1,0.1-0.3,0.3l0,0c-0.1,0-0.2,0.1-0.3,0.3
	c0,0,0,0.1-0.1,0.2c0,0.1,0,0.2,0,0.2l0.1,0.1c0.1,0,0.2,0,0.3,0.1l0,0h0.1c0.1-0.1,0.1-0.1,0.3-0.3l0,0l0.1-0.1h0.1h0.1
	c0,0,0.1-0.1,0.3-0.1c0.1-0.1,0.2-0.2,0.2-0.4c0-0.1-0.1-0.2-0.2-0.4c0-0.2,0-0.3-0.1-0.5c-0.1-0.1-0.2-0.1-0.4-0.3l0,0l-0.1-0.1
	h-0.2v-0.1c-0.3-0.1-0.5-0.1-0.5-0.1h-0.1h-0.1c-0.1,0-0.1,0.1-0.1,0.1c-0.2,0-0.5,0-0.7,0.1l0,0c-0.1,0-0.2,0.1-0.4,0.1v0.1
	l-0.1,0.1c-0.1,0-0.1,0-0.2,0.1l0,0l-0.1,0.1l-0.2,0.1l0,0c0,0,0,0-0.1,0.1s-0.2,0.2-0.4,0.3l-0.1,0.2c-0.1,0.1-0.3,0.1-0.4,0.1
	c-0.1,0.2-0.1,0.2-0.1,0.2l-0.1,0.1c-0.1,0.1-0.2,0.1-0.2,0.1s0,0.1-0.1,0.1c0,0,0,0.1-0.1,0.1l0,0h-0.1c0,0.1,0,0.1-0.1,0.1
	l-0.1,0.1l0,0v0.1l-0.1,0.1v0.1c0,0.1,0,0.1,0,0.1s0,0,0,0.1c0,0,0,0,0,0.1s-0.1,0.2-0.4,0.2l-0.1,0.1h0l0,0c-0.1,0-0.1,0-0.1,0.1
	h-0.1c0,0,0,0,0,0.1c0,0-0.1,0-0.1,0.1l-0.1,0.1h-0.1v0.1h-0.1l0,0c-0.1,0-0.2,0-0.2,0.1h-0.1c-0.1,0.1-0.2,0.1-0.3,0.2l0,0l0,0
	c0,0-0.1,0-0.1,0.1c0,0-0.1,0.1-0.2,0.1l0,0h-0.1l0,0h-0.1v0.1h-0.1l-0.2,0.1l0,0l0,0h-0.1l-0.4,0.2h-0.1l0,0
	c-0.3-0.1-0.5-0.3-0.5-0.5c0-0.3,0.1-0.6,0.3-0.7v-0.1c0.1,0,0.2-0.2,0.3-0.6s0.3-0.6,0.4-0.7l0,0l0.1-0.1l0,0c0-0.1,0-0.1,0.1-0.2
	h0.1h0.1h0.1l0.1-0.1l-0.1-0.1c-0.1,0-0.2-0.1-0.3-0.1l0,0l-0.3-0.1c-0.1,0-0.2,0-0.3,0c-0.2,0-0.3,0-0.4,0s-0.2,0.1-0.3,0.2
	c0,0,0,0.1-0.1,0.2s-0.1,0.2-0.1,0.2l0,0v0.1c0,0-0.1,0.1-0.2,0.1l-0.1,0.3l-0.1,0.1l-0.1,0.1l0,0c-0.1,0-0.1,0.1-0.1,0.1
	c0,0.1,0,0.1-0.1,0.2l0,0h-0.1l0,0l-0.1,0.1v0.1l0,0c0,0,0,0.1-0.1,0.1s-0.1,0.1-0.1,0.1s-0.1,0-0.2,0.1s-0.1,0.2-0.1,0.1
	c-0.1,0.1-0.3,0.1-0.5,0.3c-0.1,0.1-0.2,0.2-0.3,0.2c0,0.1-0.1,0.1-0.2,0.1v0.1c0,0-0.1,0.1-0.2,0.1l-0.1,0.1h-0.1
	c0,0-0.1,0.1-0.2,0.1h-0.1l-0.1,0.1c0,0.1-0.3,0.1-0.6,0.1l-0.1-0.1c0-0.1-0.1-0.2-0.2-0.2v-0.3l0,0c0-0.1,0-0.4,0.1-0.6
	c0-0.1,0-0.1,0-0.1c0.1-0.2,0.3-0.6,0.5-1.1c0-0.2,0.2-0.4,0.5-0.7l0,0l0,0c0-0.1,0.1-0.1,0.2-0.1c0-0.1,0.1-0.1,0.1-0.1l0,0
	c0.1,0,0.2-0.1,0.3-0.2l-0.1-0.2c-0.1-0.1-0.3-0.1-0.5-0.2c-0.1,0-0.1-0.1-0.2-0.1c-0.3,0-0.5,0-0.7,0.2l0,0
	c-0.1,0.1-0.1,0.3-0.2,0.5c-0.1,0.1-0.2,0.2-0.2,0.4l-0.1,0.1c0,0.1-0.1,0.3-0.3,0.4l0,0c0,0,0,0.1-0.1,0.2s-0.1,0.2-0.1,0.2
	c0,0.1,0,0.2-0.1,0.4c0,0.1,0,0.1,0,0.2c0,0-0.1,0.1-0.1,0.2s0,0.3,0,0.4l0,0c-0.1,0-0.1,0.1-0.2,0.1l-0.1,0.1
	c-0.1,0-0.2,0.1-0.3,0.2h-0.1c-0.1,0-0.1,0.1-0.2,0.2l0,0c0,0-0.1,0.1-0.3,0.2h-0.1c-0.1,0-0.1,0.1-0.2,0.2c0,0-0.1,0-0.1,0.1
	c-0.3,0-0.4,0-0.4,0l0,0c-0.1,0-0.2,0.1-0.4,0.1c-0.1,0-0.2,0-0.3,0.1c-0.1,0-0.1,0-0.2,0.1c-0.1,0-0.4,0.1-0.7,0.1l0,0h-0.2
	c-0.1-0.1-0.2-0.2-0.3-0.4c0,0,0-0.1-0.1-0.2v-0.6c0.1-0.1,0.2-0.5,0.2-1.1l0,0c0,0,0-0.1,0.1-0.1h0.1c0.1,0,0.1-0.1,0.2-0.2
	c0,0,0.1-0.1,0.4-0.3l0,0c0.1-0.1,0.1-0.1,0.2-0.2s0.2-0.1,0.2-0.1c0.1,0,0.1-0.1,0.2-0.2l0,0c0,0,0.2-0.2,0.6-0.5
	c0.2-0.1,0.3-0.1,0.3-0.2c0.1-0.1,0.1-0.1,0.2-0.2s0.2-0.1,0.2-0.2l0,0l0.1-0.1l0,0l0.1-0.1c0.1-0.1,0.2-0.2,0.3-0.3h0.1
	c0,0,0.1-0.1,0.1-0.2l0,0c0,0,0-0.1,0.1-0.2s0.1-0.1,0.1-0.2c0,0,0-0.1,0.1-0.1h0.1v-0.1l0,0c0,0,0-0.1,0.1-0.1l0.1-0.1
	c0.1-0.1,0.2-0.3,0.4-0.5c0,0,0.1-0.2,0.3-0.5c0,0,0-0.1,0-0.2s0-0.2,0-0.2l0,0c0-0.3-0.1-0.5-0.1-0.5s-0.2-0.2-0.5-0.4
	c0,0-0.1,0-0.3-0.1c-0.2,0-0.3-0.1-0.4-0.1s-0.2,0-0.2,0.1h-0.1c0,0-0.1,0.1-0.2,0.1c-0.1,0.1-0.2,0.2-0.3,0.3l0,0l0,0
	c-0.1,0-0.1,0-0.1,0.1h-0.1l-0.1,0.1c0,0.2,0,0.3-0.1,0.3c-0.1,0.1-0.2,0.2-0.3,0.2h-0.1c0,0,0,0.1-0.1,0.1v0.1c0,0.1,0,0.1,0,0.1
	c-0.3,0.2-0.4,0.3-0.5,0.4s-0.2,0.3-0.3,0.5l-0.1,0.1c-0.1,0-0.2,0.1-0.3,0.2c0,0,0,0.1-0.1,0.2l-0.1,0.1l0,0v0.1l0,0v0.4l0,0
	c0,0.1,0,0.1-0.1,0.2c0,0.1,0,0.1-0.1,0.1v0.1c0,0-0.1,0.1-0.2,0.1s-0.2,0-0.2,0s-0.1-0.1-0.3-0.1c0,0-0.2-0.1-0.4-0.2
	s-0.3-0.1-0.4-0.1l-0.1-0.1h-0.6h-0.1c-0.1,0-0.2,0-0.3,0s-0.2,0-0.3,0l-0.2,0.1h-0.1c-0.1,0.1-0.3,0.2-0.6,0.3h-0.1l-0.2,0.1l0,0
	c0,0-0.1,0-0.2,0.1c0,0-0.2,0.1-0.4,0.2l0,0h-0.1l0,0c-0.1,0-0.2,0.1-0.3,0.1h-0.1l-0.1,0.1l0,0c-0.1,0.1-0.2,0.2-0.4,0.3h-0.1
	c0,0,0,0.1-0.1,0.1v0.1h-0.1v0.1l0,0v0.1c0,0-0.1,0-0.1,0.1l0,0c0,0,0,0.1-0.1,0.1l0,0h-0.1c0,0,0,0.1-0.1,0.1c0,0.1,0,0.2-0.1,0.4
	c-0.1,0.2-0.1,0.3-0.1,0.4s0,0.2,0,0.4v0.1c-0.1,0-0.1,0-0.2,0s-0.1,0.1-0.2,0.1s-0.1,0-0.2,0.1c-0.1,0-0.2,0-0.3,0s-0.2,0-0.3,0
	c0.2,0-0.1,0-0.9-0.1c-0.1,0-0.2-0.1-0.2-0.1l0,0v-0.1l0.3-0.2c0,0,0,0,0-0.1l0.1-0.1c0-0.1,0.1-0.3,0.2-0.7c0.1,0,0.1-0.2,0.2-0.4
	c0.1-0.2,0.1-0.4,0.2-0.4c0,0,0-0.1,0-0.2l0,0v-0.1l0,0c0,0,0-0.1,0-0.4l0,0c0,0,0-0.1,0-0.2l0,0c0-0.2-0.1-0.4-0.2-0.6
	c-0.1-0.1-0.1-0.2-0.2-0.4c0,0-0.2-0.1-0.5-0.3h-0.1c-0.1-0.1-0.3-0.1-0.4-0.1h-1.4c-0.2,0-0.5,0-0.9,0.1c-0.3,0.1-0.6,0.2-0.7,0.2
	l0,0c-0.3,0-0.4,0-0.5,0.1c-0.1,0-0.2,0.1-0.4,0.2l0,0c-0.1,0-0.2,0.1-0.3,0.1l-0.1,0.1l0,0c0,0.2,0,0.3,0,0.3l0.1,0.1l0,0h0.1l0,0
	l-0.1,0.1h-0.2l-0.1,0.1c0,0.1,0.1,0.3,0.1,0.5h0.1c0,0.1,0.1,0.2,0,0.3h-0.1c-0.1,0.1-0.1,0.2-0.2,0.4l-0.1,0.1
	c0,0.1-0.1,0.2-0.2,0.2c0,0,0,0-0.1,0.1c0,0.1,0,0.2,0,0.2l0,0c0,0,0,0-0.1,0.1s-0.1,0.1-0.1,0.1c0,0.1,0,0.2-0.1,0.2
	c0,0.3,0,0.5-0.1,0.5c0,0,0,0.1,0,0.2l0,0h-0.1l-0.1,0.1l0,0c-0.1,0-0.1,0-0.1,0.1h-0.1l0,0h-0.1c0,0-0.1,0.1-0.2,0.1v0.1
	c-0.1,0.1-0.3,0.2-0.5,0.3h-0.1c-0.2,0-0.4,0.1-0.6,0.2c-0.1,0-0.1,0-0.2,0.1h-0.1c0,0-0.1,0-0.2,0.1c0,0-0.1,0-0.2,0.1
	c0,0-0.1,0-0.2,0l0,0c-0.1,0-0.2,0-0.3,0c0,0-0.1,0-0.2,0c0,0-0.1-0.1-0.3-0.2c0-0.1,0-0.2,0-0.4s0.1-0.3,0.1-0.4
	c0.1-0.1,0.1-0.2,0.2-0.3h0.1c0-0.1,0.1-0.2,0.3-0.5c0.2-0.3,0.3-0.4,0.4-0.5l0,0c0,0,0.1-0.1,0.2-0.3l0,0l0.1-0.1
	c0-0.1,0.1-0.1,0.2-0.3h0.1c0.1-0.1,0.1-0.1,0.1-0.1c0.1-0.1,0.1-0.2,0.1-0.3c-0.2-0.2-0.5-0.4-0.7-0.4l0,0c-0.1,0-0.2,0-0.4,0
	c-0.1,0-0.3,0-0.5,0c0,0,0-0.1-0.1-0.1c0,0-0.1-0.1-0.2-0.1c0,0,0-0.1,0-0.2s0-0.2,0-0.3c0.1-0.1,0.1-0.1,0.1-0.2l0,0v-0.1l-0.1-0.2
	c-0.1-0.1-0.2-0.1-0.4-0.2c-0.2,0-0.3-0.1-0.5-0.1c-0.1,0-0.2,0-0.4,0.1l0,0h-0.1c0,0,0,0-0.1,0.1s-0.1,0.1-0.1,0.1
	c0.1,0.1,0.1,0.1,0.2,0.3c0,0.1-0.1,0.1-0.1,0.1l0,0c0,0.1,0,0.2-0.1,0.4c0,0.1,0,0.3-0.1,0.4c0,0.1,0,0.1-0.1,0.1l0,0l-0.1,0.1v0.1
	l-0.1,0.1c-0.1,0-0.2,0.1-0.2,0.2l-0.1,0.1l0,0l0,0c-0.1,0.1-0.1,0.1-0.2,0.2h-0.1l-0.1,0.1c0,0,0,0-0.1,0.1
	c-0.2,0.1-0.4,0.3-0.6,0.4c0,0,0,0.1-0.2,0.1c0,0-0.2,0.1-0.5,0.4c0,0,0,0,0,0.1c-0.1,0.1-0.2,0.1-0.3,0.2l0,0
	c-0.1,0-0.2,0.1-0.4,0.1l0,0h-0.1c0,0-0.1,0.1-0.2,0.1s-0.1,0-0.2,0.1c-0.1,0-0.2,0-0.2,0.1c-0.1,0-0.4,0.1-0.7,0.2
	s-0.5,0.1-0.7,0.1c-0.1,0-0.2,0-0.3,0v-0.1c0,0,0.1-0.1,0.2-0.2s0.2-0.3,0.4-0.4c0,0,0-0.1,0.1-0.1v-0.1l0,0v-0.1l0.1-0.1V436
	l0.1-0.1c0-0.1,0.1-0.3,0.2-0.5s0.2-0.4,0.2-0.5l0.1-0.1v-0.4c0.1-0.1,0.1-0.2,0.1-0.3c0-0.1,0-0.2-0.1-0.3s-0.1-0.2-0.1-0.3
	s0-0.1,0.1-0.1c0.1-0.1,0-0.3-0.1-0.5l0,0c-0.1-0.1-0.3-0.3-0.5-0.4l0,0c0,0,0,0-0.2-0.1c-0.2,0-0.3,0-0.6-0.1c0,0-0.3,0-0.9,0l0,0
	c-0.2,0-0.3,0.1-0.3,0.2c-0.1,0-0.2,0.1-0.3,0.2c-0.1,0-0.2,0-0.3,0.1l0.2,0.2l0,0l0,0c-0.1,0-0.1,0.1-0.3,0.1c-0.1,0-0.1,0-0.2,0.1
	h-0.1c-0.1,0.1-0.2,0.1-0.4,0.2l0,0h-0.1c0,0-0.3,0.2-0.7,0.6l0,0c-0.1,0.1-0.1,0.1-0.2,0.1l0,0h-0.1c0,0,0,0.1-0.1,0.1l0,0
	c0,0-0.1,0-0.3,0.1l0,0l0,0c0.1,0,0.1-0.1,0.1-0.2h0.1c0,0,0.1-0.1,0.1-0.2l0,0c0,0,0,0,0-0.1c0.2-0.1,0.4-0.4,0.7-0.7l0,0
	c0,0,0.1-0.1,0.2-0.2h0.1l0.1-0.1l0,0v-0.1h0.1c0.1-0.1,0.2-0.1,0.3-0.2l0,0c0.1,0,0.2-0.1,0.3-0.1l0,0l-0.2-0.2l-0.2-0.1l0,0h-0.1
	c-0.1-0.1-0.3-0.1-0.6-0.1c-0.1,0-0.2,0.1-0.3,0.2c0,0-0.1,0.1-0.1,0.2c0,0-0.1,0.1-0.2,0.2c0,0-0.1,0.1-0.3,0.3
	c-0.2,0.2-0.2,0.3-0.3,0.3l-0.1,0.1v0.1h-0.2c0,0,0,0.1-0.1,0.1c0,0.1,0,0.2-0.2,0.3v0.2l-0.1,0.1c0,0,0,0-0.1,0.1h-0.1v0.1
	l-0.2,0.1h-0.1l0,0c-0.2,0-0.4,0-0.4,0l-0.1,0.1c0,0.1,0,0.2-0.1,0.3l0,0c0,0.3,0,0.5,0,0.5v0.1h-0.1l0,0l0,0l-0.2,0.1
	c0,0,0,0.1-0.1,0.1c0,0.1,0,0.2-0.1,0.2v0.1l-0.2,0.1c0,0.1,0,0.1-0.1,0.1c0,0,0,0.1-0.1,0.1c0,0.1,0,0.1-0.1,0.1
	c0,0.1,0,0.1-0.1,0.2l0,0c0,0.1-0.1,0.1-0.3,0.2c-0.1,0.2-0.3,0.6-0.6,1l0,0h-0.1c0,0.1,0,0.1-0.1,0.1c0,0.1,0,0.1-0.1,0.1
	c0,0,0,0.1-0.1,0.1c0,0.1,0,0.1-0.1,0.2l0,0c-0.1,0.1-0.2,0.2-0.2,0.5c-0.1,0.3-0.1,0.5-0.2,0.5h-0.1c0,0.1,0,0.1-0.1,0.1
	c0,0.1,0,0.2-0.1,0.3c0,0,0,0.1-0.1,0.2c0,0,0,0.1-0.1,0.1c0,0,0,0.1-0.1,0.1c0,0.1,0,0.1-0.1,0.1c0,0.1,0,0.2-0.2,0.4
	c0,0.1-0.1,0.3-0.2,0.3v0.5l0,0v0.1c0,0.1,0,0.1,0,0.1l0.1,0.1l0,0c0.1,0,0.2,0.1,0.3,0.2c0.1,0,0.2,0,0.3,0.1c0.1,0,0.2,0,0.4,0
	v-0.2c-0.1,0-0.1-0.3-0.1-0.8l0,0v-0.2h0.1l0.1-0.3h0.1c0.1-0.3,0.4-0.7,0.7-1.3c0,0,0.1-0.1,0.3-0.3c0.1-0.1,0.2-0.2,0.2-0.3l0,0
	c0-0.1,0.1-0.1,0.1-0.3c0,0,0.1-0.1,0.2-0.2l0,0c0.1,0,0.2-0.1,0.2-0.3h0.1v-0.1c0.2-0.1,0.3-0.2,0.3-0.4l0.1-0.1
	c0,0,0.1-0.1,0.1-0.2l0.1-0.1l0,0c0.1,0,0.1-0.1,0.3-0.3l0,0l0.1-0.1c0,0,0.1-0.1,0.1-0.2l0,0c0-0.1,0.1-0.1,0.1-0.1l0,0
	c0,0,0.1,0,0.1-0.1l0.1,0.3v0.1l0.1,0.1l0,0c0,0,0,0.1,0.1,0.1v0.1l0,0c0,0.1,0.1,0.1,0.1,0.1l0,0c0.1,0.1,0.2,0.3,0.3,0.5l0,0
	c0.1,0.1,0.4,0.1,0.8,0.2l0.3,0.2c0.1,0,0.2,0,0.3,0l0,0h0.5c0.1,0,0.3,0,0.5,0s0.4,0,0.5-0.1c0.2-0.1,0.5-0.2,0.8-0.4h0.1
	c0,0,0-0.1,0.1-0.1l0,0c0.3,0,0.8-0.1,1.5-0.2c0.1,0,0.2-0.1,0.3-0.1c0.3,0,0.4-0.1,0.5-0.1s0.2,0,0.4-0.1c0.1,0,0.4-0.1,0.8-0.3
	h0.1l0.4-0.2c0,0,0.1,0,0.1-0.1l0,0l0,0l0,0c0,0,0.1-0.1,0.2-0.1l0,0h0.1l0,0c0,0,0.1-0.1,0.3-0.1l0,0l0.1-0.1l0,0
	c0,0,0.1-0.1,0.2-0.2c0,0,0.1-0.1,0.3-0.2c0.2-0.2,0.2-0.3,0.2-0.3c0.1,0,0.1-0.1,0.2-0.2s0.1-0.2,0.1-0.3c0.1,0,0.1-0.1,0.1-0.1
	l0.1-0.1c0,0,0.1,0,0.1-0.1l0.2-0.2l0,0c0.1,0,0.1,0,0.1-0.1l0.2-0.1l0.1,0.1c0.1,0,0.2,0.1,0.2,0.1h0.1h0.1h0.1v0.1l0,0l0,0
	c0.1,0.1,0.2,0.1,0.3,0.2v0.3l-0.1,0.1c0,0.1,0,0.1-0.1,0.1v0.1c-0.1,0.1-0.2,0.2-0.3,0.3h-0.1l0,0c-0.1,0.1-0.1,0.1-0.1,0.3
	c0,0.2,0.1,0.3,0.1,0.3s-0.1,0.1-0.2,0.1s-0.2,0.1-0.4,0.1v0.1l0,0c0,0-0.1,0.2-0.2,0.4v0.6l0.1,0.1v0.1c0,0.1,0,0.1,0.1,0.3
	l0.2,0.1c0.1,0,0.1,0,0.2,0s0.3,0,0.5,0.1c0.1,0,0.3,0,0.5,0.1l0,0h0.1c0,0,0.2,0,0.6-0.1c0.1,0,0.1-0.1,0.2-0.1l0.2-0.1l0,0h0.1
	c0.1,0,0.2-0.1,0.3-0.1h0.1c0,0,0.1,0,0.2-0.1l0,0c0,0,0.2-0.1,0.3-0.1c0.2-0.1,0.4-0.2,0.7-0.4l0,0l0.1-0.1l0,0
	c0.1,0,0.2-0.1,0.3-0.2l0,0l-0.1,0.1v0.1h-0.1l-0.1,0.1c0,0.1,0,0.1,0,0.3c0.1,0,0.1,0.1,0.1,0.2c0,0,0.1,0.1,0.2,0.2l0,0h0.1v0.1
	l0.2,0.1h0.1l0,0c0,0,0.1,0.1,0.3,0.1l0,0c0.1,0,0.2,0,0.2,0c0.2,0,0.3,0,0.5,0.1s0.3,0.1,0.4,0.1c0.2,0,0.4-0.1,0.8-0.2
	c0.1,0,0.3-0.1,0.7-0.3c0.1,0,0.2,0,0.3-0.1c0.1-0.1,0.2-0.2,0.4-0.3h0.1c0.1-0.1,0.3-0.3,0.5-0.4l0,0h0.1c0.1-0.2,0.3-0.3,0.6-0.3
	c0.1,0,0.2,0,0.5,0.1c0.2,0,0.4,0.1,0.6,0.1c0.5,0,1-0.1,1.3-0.2c0.1,0,0.1,0,0.2-0.1l0,0c0,0.1,0,0.2-0.1,0.3c0,0.1,0,0.2,0,0.3
	l0.1,0.1c0.1,0,0.1,0.1,0.1,0.1l0.1,0.1l0,0c0.1,0,0.2,0.1,0.3,0.2c0.9,0.2,1.5,0.3,1.9,0.2h0.1h0.1c0.1-0.1,0.3-0.2,0.6-0.4l0,0h0
	c0,0,0.1-0.1,0.2-0.1l0,0c0.1-0.1,0.2-0.1,0.4-0.2l0.1-0.1c0.1,0,0.2-0.1,0.3-0.2h0.1c0.1,0,0.2-0.1,0.3-0.2c0.1,0,0.1-0.1,0.2-0.1
	s0.1,0,0.2-0.1h0.2c0,0.1,0,0.2-0.1,0.3l0,0l0,0c-0.1,0-0.1,0.1-0.1,0.2s0,0.2,0.1,0.2c0,0.1,0,0.3,0.1,0.5c0.1,0.1,0.2,0.1,0.5,0.2
	l0,0c0.1,0,0.2,0.1,0.3,0.1s0.2,0,0.2,0.1h0.9c0.1,0,0.3-0.1,0.4-0.1h0.1h0.1c0,0,0.2-0.1,0.6-0.2s0.5-0.2,0.6-0.2
	c0.2,0,0.3-0.1,0.5-0.2h0.1c0.1,0,0.2-0.1,0.4-0.2l0,0c0.1,0,0.2-0.1,0.3-0.2l0,0c0,0.1,0,0.2,0,0.3c0.1,0.1,0.1,0.2,0.1,0.3
	l0.1,0.1h0.1l0,0c0,0,0.2,0.1,0.4,0.2c0,0,0,0,0.1,0h0.1c0.2-0.1,0.5-0.1,0.9-0.1l0.1-0.1l0.3-0.1v-0.1c0.6-0.2,0.9-0.4,1.1-0.7h0.1
	l0,0c0.1,0,0.1-0.1,0.2-0.1l0,0l0.1-0.1c0,0,0.1,0,0.2-0.1l0,0c0,0,0.1-0.1,0.2-0.1h0.1c0,0.1,0,0.1,0,0.2s0.1,0.2,0.1,0.2
	c0.1,0.1,0.1,0.2,0.2,0.3l0.1,0.1v0.1h0.1v0.2c0,0,0.1,0,0.2,0.1v0.2c0.1,0,0.1,0.1,0.2,0.1h0.2l0,0h0.1c0.3-0.1,0.7-0.2,1-0.3
	c0,0,0.1-0.1,0.3-0.2l0,0h0.1l0,0c0.2-0.2,0.6-0.4,1.2-0.7l0,0c0.1,0,0.1-0.1,0.3-0.2v0.2l0,0c0,0.3-0.1,0.4-0.1,0.4s0,0.1,0,0.2
	s0,0.1,0,0.2c0.1,0,0.1,0.1,0.1,0.1c0.1,0.1,0.1,0.1,0.1,0.1l0.1,0.1v0.1l0.1,0.1c0.2,0,0.4,0.1,0.7,0.1c0,0.1,0.1,0.1,0.2,0.1
	c0.2,0,0.4,0,0.7-0.1c0.3-0.1,0.6-0.1,0.7-0.1c0.2,0,0.4-0.1,0.7-0.1c0.1,0,0.1-0.1,0.2-0.1s0.2,0,0.3-0.1c0.1,0,0.2-0.1,0.3-0.1
	c0.2-0.1,0.5-0.2,0.9-0.3c0.1,0,0.2,0,0.4-0.1h0.1c0.4-0.2,1-0.5,1.6-0.8c0,0,0.1,0,0.2,0v0.3c0,0,0.1,0,0.1,0.1
	c0.1,0,0.1,0.1,0.1,0.1s0.1,0,0.1,0.1l0.1,0.1c0.1,0.1,0.3,0.1,0.5,0.2h0.1c0,0,0.1,0.1,0.2,0.1h0.1l0.1,0.1c0.1,0,0.2,0,0.4,0.1
	c0.2,0,0.3,0.1,0.4,0l0,0c0.3,0,0.6,0,0.9,0c0.1,0,0.3,0,0.5-0.1c0.2,0,0.4-0.1,0.5-0.1s0.2-0.1,0.3-0.1l0,0h0.1l0,0l0.3-0.1l0,0
	c0.1,0,0.1-0.1,0.2-0.1l0,0l0.2-0.1l0.1-0.1c0,0,0.1,0,0.2-0.1l0.1-0.1c0.1-0.1,0.4-0.1,0.6-0.3l0,0l0,0c0.1,0,0.1,0,0.1-0.1
	C-9.8,436.5-9.8,436.4-9.8,436.5L-9.8,436.5z M-36.4,434.1c-0.1,0.1-0.2,0.2-0.2,0.3s0,0.2-0.1,0.3c0,0.1,0,0.1-0.1,0.3
	c-0.1,0.1-0.1,0.2-0.1,0.3c0,0.2,0,0.3,0,0.3l-0.1,0.1v0.1c0,0-0.1,0.1-0.2,0.2l0.1,0.2v0.1l0,0l-0.1,0.1l0,0l-0.1,0.1l-0.1,0.1
	c0,0,0,0-0.1,0.1v0.1v0.1l-0.1,0.1v0.1c0,0-0.1,0.1-0.2,0.2h-0.1c-0.1,0-0.2,0.1-0.3,0.2l0,0l0,0l-0.1,0.1c0,0-0.1,0-0.1,0.1l0,0
	h-0.1c0,0.1-0.1,0.1-0.3,0.1l-0.1,0.1l-0.1,0.1l0,0h-0.1l-0.1,0.1c-0.1,0-0.1,0-0.2,0.1c0,0-0.1,0-0.2,0s-0.2,0-0.2,0
	s-0.1,0.1-0.2,0.1c-0.2,0.1-0.5,0.2-0.9,0.2h-0.1l-0.1-0.1l0,0l-0.1-0.1c-0.1-0.2-0.1-0.3-0.1-0.3c0-0.6,0.1-0.9,0.2-1l0,0
	c0,0,0.1,0,0.1-0.1h0.1c0.1,0,0.1-0.1,0.1-0.2v-0.1c0.1-0.1,0.1-0.2,0.2-0.2l0,0c0,0,0.1-0.1,0.2-0.2l0,0l0.4-0.4l0,0l0.1-0.1h0.1
	l0,0l0.1-0.1v-0.1v-0.1l0.1-0.1h0.1c0.1,0,0.2,0,0.2-0.1h0.1c0.1-0.1,0.3-0.2,0.5-0.3h0.1l0.1-0.1h0.1h0.1l0,0c0,0,0.2-0.1,0.5-0.3
	l0,0c0.1,0,0.2,0,0.2-0.1h0.1l-0.1-0.4c0.5-0.1,0.9-0.1,1.1,0L-36.4,434.1L-36.4,434.1L-36.4,434.1z M-31.9,431c0,0,0,0.1-0.1,0.1
	h-0.1c0,0.2-0.1,0.3-0.2,0.4c0,0.1,0,0.1-0.1,0.1v0.1c0,0.1-0.1,0.1-0.2,0.2v0.1c0,0.1-0.1,0.1-0.2,0.2c0,0.1,0,0.1-0.1,0.1
	c0,0,0,0.1-0.1,0.1l0,0h-0.1v0.1h-0.1c0,0.1,0,0.1-0.1,0.1c-0.1,0.1-0.2,0.3-0.3,0.5c0,0-0.1,0.1-0.3,0.2l0,0
	c-0.1,0-0.2,0.1-0.3,0.2l-0.1,0.1l0,0c-0.1,0.1-0.2,0.3-0.5,0.5c0,0,0,0-0.1,0.1H-35v0.1c-0.1,0.1-0.3,0.2-0.4,0.3l0,0
	c0,0-0.1,0.1-0.3,0.1v-0.1l0.2-0.3c0-0.1,0-0.1,0.1-0.1c0,0,0-0.1,0-0.2l0,0c0-0.1,0.1-0.1,0.1-0.2c0.1-0.1,0.1-0.1,0.3-0.3
	c0,0,0.1-0.1,0.2-0.4h0.1V433l0.1-0.1c0-0.1,0.1-0.2,0.2-0.4v-0.1c0.3-0.2,0.4-0.4,0.4-0.7l0.1-0.1c0.1-0.1,0.2-0.3,0.3-0.5
	c0.1,0,0.2-0.1,0.3-0.2l0,0c0.1-0.1,0.2-0.2,0.3-0.3v0.4c0.1,0,0.1,0,0.1-0.1h0.1c0.1-0.1,0.2-0.1,0.3-0.2h0.1c0,0,0.1-0.1,0.3-0.1
	l0,0c0,0.1,0.1,0.2,0,0.4C-31.9,430.9-31.9,430.9-31.9,431L-31.9,431z M-45.7,437.1l-0.1,0.1h-0.1v0.1h-0.1l-0.1,0.1l0,0l0,0
	c-0.1,0.1-0.3,0.2-0.4,0.3h-0.1l0,0c-0.1,0-0.2,0.1-0.3,0.2H-47l0,0h-0.1l0,0h-0.1c0,0-0.1,0.1-0.2,0.1s-0.1,0-0.2,0.1
	c-0.8,0-1.2,0.1-1.1,0.1l-0.2-0.1h-0.1c-0.1,0-0.1,0-0.1-0.1l0,0c-0.2-0.2-0.4-0.4-0.4-0.5s0-0.1,0-0.3c0-0.1,0-0.2,0.1-0.3l0,0
	c0-0.1,0-0.2,0.1-0.3c0-0.1,0-0.1,0.1-0.2c0-0.1,0.1-0.2,0.2-0.3c0,0,0.1-0.1,0.1-0.2l0.1-0.1h0.1c0.1,0,0.2,0.1,0.2,0.2
	c0.1,0,0.2,0.1,0.4,0.2c0.1,0,0.3,0.1,0.4,0.2c0.1,0,0.2,0.1,0.6,0.2c0.3,0.1,0.5,0.2,0.5,0.2l0,0c0.1,0,0.3,0.1,0.6,0.1h0.1
	L-45.7,437.1L-45.7,437.1z M-44.4,434.8L-44.4,434.8v0.1c0,0.1,0,0.3-0.1,0.4c-0.1,0.2-0.1,0.4-0.1,0.4l-0.1,0.1
	c0,0.1,0,0.1-0.1,0.1c0,0.1,0,0.1-0.1,0.2c0,0.1,0,0.1-0.1,0.1v0.1c0,0.1-0.1,0.1-0.1,0.1l-0.1,0.1l0,0l-0.1,0.1l0,0l-0.1,0.1h-0.3
	l-0.2-0.1c0,0-0.1,0-0.2,0s-0.1,0-0.1,0c-0.1,0-0.2-0.1-0.4-0.2c0,0-0.1,0-0.2,0c-0.2-0.1-0.5-0.2-0.9-0.5l0,0
	c-0.1-0.1-0.3-0.2-0.4-0.4l0,0v-0.1v-0.1h0.1l0,0c0.1,0,0.1,0,0.2-0.1v-0.1l0,0c0,0,0.1-0.1,0.2-0.1l0,0h0.1l0,0
	c0.1,0,0.2-0.1,0.3-0.1h0.1h0.1h0.1l0.2-0.1c0-0.1-0.1-0.1-0.3-0.3v-0.1c-0.1,0-0.1,0-0.3,0v-0.1c-0.1,0-0.1,0-0.2-0.1
	c-0.4-0.1-0.7,0-1,0.1l0,0v0.1h-0.1c0-0.1,0-0.1,0-0.2s0-0.2,0-0.2c0-0.1,0.1-0.2,0.2-0.3c0.1,0,0.1-0.1,0.2-0.2
	c0.1,0,0.1-0.1,0.2-0.1h0.1l0,0c0.1,0,0.2-0.1,0.4-0.1c0.3-0.1,0.7-0.1,1.2-0.1c0,0,0.1,0,0.2,0s0.1,0,0.2,0s0.1,0.1,0.3,0.1
	c0,0,0.1,0,0.2,0.1l0,0c0.1,0.1,0.3,0.2,0.4,0.3v0.1c0,0,0,0,0.1,0.1c0.2,0.1,0.3,0.3,0.3,0.4h0.1v0.1l0.2,0.1
	C-44.2,434.5-44.2,434.7-44.4,434.8L-44.4,434.8z M-62.9,437.8L-62.9,437.8c-0.1,0-0.2,0.1-0.3,0.1h-0.1l0,0c-0.1,0-0.3,0.1-0.4,0.1
	c0,0-0.2,0-0.5,0l-0.3-0.2h-0.1c-0.1,0-0.1,0-0.2-0.1l0,0h-0.1c0,0-0.1-0.2-0.2-0.4l0,0c-0.1-0.1-0.2-0.3-0.3-0.4
	c0-0.1,0-0.1-0.1-0.1c0-0.1-0.1-0.2-0.2-0.4v-0.1c0.1,0,0.2,0,0.2,0s0.1,0,0.2,0.1l0.1,0.1h0.1c0,0,0.4,0.2,1.1,0.7l0,0
	c0.3,0.2,0.6,0.4,0.8,0.4c0,0,0,0,0.1,0.1C-63,437.7-63,437.7-62.9,437.8L-62.9,437.8C-63.1,437.6-63,437.6-62.9,437.8L-62.9,437.8z
	 M-60.8,434.5c0,0,0,0.2-0.1,0.3l0,0v0.3l0,0c-0.2,0.3-0.3,0.6-0.3,0.9c-0.1,0-0.1,0.1-0.2,0.2l0,0c0,0.2-0.1,0.4-0.3,0.5v0.1
	c0,0-0.1,0.1-0.2,0.2l0,0c-0.1,0.1-0.3,0.2-0.4,0.3c-0.1,0-0.3,0-0.4,0s-0.3,0-0.3,0s-0.2-0.1-0.6-0.3h-0.1
	c-0.1-0.1-0.3-0.2-0.5-0.4l0,0v-0.1h-0.1l0,0c-0.1,0-0.2-0.1-0.3-0.1l-0.1-0.1l0,0v-0.1c-0.1,0-0.2-0.1-0.3-0.3
	c-0.1-0.1-0.2-0.2-0.2-0.3l0,0c0-0.1-0.1-0.1-0.1-0.1s0-0.1-0.1-0.1c0,0,0.1-0.1,0.1-0.2l0.1-0.1c0.1-0.1,0.3-0.3,0.4-0.4l0,0h0.1
	c0,0,0-0.1,0.1-0.1v-0.1h0.1l0,0c0.1,0,0.2-0.1,0.3-0.1v-0.1h0.1c0.3-0.2,0.6-0.4,0.9-0.6l0,0c0.1,0,0.2,0,0.2,0
	c0.1,0,0.2-0.1,0.3-0.2l0.5-0.1l0,0c0.2,0,0.4-0.1,0.6-0.2h0.3h0.1l0,0l0,0h0.1l0,0l0.1,0.1l0,0h0.1c0.1,0.2,0.1,0.3,0.1,0.2
	l0.1,0.1C-60.8,433.7-60.8,434-60.8,434.5L-60.8,434.5z M-76.2,435.6h1.7l-0.1,0.5h-1.3c-0.4,0.6-0.6,0.9-0.7,1.1
	c-0.3,0.4-0.6,0.7-0.9,1l0.5,0.9h1.9l-0.1,0.4h-2.3l-0.5-0.9c-0.4,0.4-0.9,0.6-1.3,0.8s-0.9,0.3-1.4,0.3c-0.7,0-1.2-0.2-1.6-0.6
	s-0.5-0.9-0.3-1.5c0.1-0.5,0.5-1,1-1.5c0.5-0.4,1.1-0.7,1.8-0.9c-0.3-0.5-0.4-0.8-0.5-1.1c-0.1-0.3-0.1-0.7,0-1
	c0.1-0.5,0.4-0.9,0.9-1.2s1-0.4,1.6-0.4c0.4,0,0.8,0.1,1.1,0.2s0.6,0.3,1,0.5l-0.5,0.4c-0.2-0.1-0.5-0.3-0.8-0.4
	c-0.3-0.1-0.7-0.2-1-0.2c-0.4,0-0.7,0.1-1,0.2c-0.3,0.2-0.5,0.4-0.6,0.8c-0.1,0.3,0,0.6,0.1,0.9c0.1,0.4,0.3,0.7,0.5,1l1.4,2.6
	c0.3-0.3,0.5-0.7,0.8-1C-76.8,436.3-76.5,436-76.2,435.6L-76.2,435.6z M-78.2,438.2l-1.4-2.6c-0.6,0.2-1,0.4-1.4,0.7
	c-0.5,0.4-0.7,0.8-0.9,1.2c-0.1,0.4,0,0.8,0.2,1.1c0.3,0.3,0.6,0.5,1.2,0.5c0.4,0,0.8-0.1,1.2-0.3C-79,438.7-78.7,438.5-78.2,438.2
	L-78.2,438.2z M-87.9,436.5L-87.9,436.5h-0.2c-0.1,0-0.1,0.1-0.2,0.1h-0.1l0,0h-0.1l-0.1,0.1l-0.2,0.1c0,0-0.1,0-0.3,0.1h-0.1h-0.1
	l0,0c-0.1,0-0.2,0.1-0.3,0.1h-0.1l0,0c-0.1,0-0.1,0.1-0.3,0.1l0,0c-0.1,0-0.1,0-0.2,0.1l0,0c-0.1,0-0.1,0.1-0.2,0.1l0,0l0,0l0,0
	c0,0-0.1,0-0.1,0.1h-0.1l0,0c0,0-0.2,0-0.5,0.1c-0.1,0-0.1,0.1-0.2,0.1c-0.4,0-0.6,0-0.6,0c-0.2,0-0.3-0.1-0.4-0.3
	c0-0.1,0-0.1-0.1-0.2l0,0c0-0.3,0.1-0.4,0.2-0.5c0-0.1,0.1-0.2,0.2-0.4l0.1-0.1l0.1-0.1l0.1-0.1l0,0c0.1,0,0.1-0.1,0.1-0.1
	c0-0.1,0.1-0.1,0.2-0.3l0,0c0.1-0.1,0.1-0.1,0.3-0.2l0,0c0.2-0.3,0.3-0.4,0.3-0.5s0-0.1-0.1-0.2c-0.1-0.1-0.1-0.1-0.1-0.2
	c-0.1,0-0.2-0.1-0.2-0.1c-0.2-0.1-0.4-0.2-0.7-0.2c0.1,0,0,0-0.2,0.1c-0.1,0.1-0.3,0.1-0.5,0.2l0,0l-0.1,0.1c0,0-0.1,0.1-0.2,0.1
	L-93,435l0,0h-0.1l-0.1,0.1h-0.1c-0.1,0.1-0.2,0.2-0.4,0.3c-0.1,0-0.2,0.1-0.3,0.1c-0.1,0.1-0.2,0.2-0.2,0.3l-0.1,0.1
	c-0.1,0.1-0.2,0.1-0.2,0.2l0,0c-0.1,0.1-0.2,0.1-0.3,0.2c-0.1,0-0.2,0.1-0.3,0.2l0,0v-0.1c0.1,0,0.1-0.1,0.1-0.1
	c0.1-0.1,0.2-0.2,0.2-0.4h0.1v-0.1c0.1,0,0.1-0.1,0.1-0.1c0.1,0,0.1-0.1,0.1-0.1l0,0c0,0,0-0.1,0.1-0.1l0.1-0.1c0,0,0.1-0.1,0.2-0.2
	c0,0,0.1-0.1,0.2-0.3l0.1-0.1l0.1-0.1l0,0h0.1c0,0,0.1-0.1,0.2-0.3l0,0c0,0,0.1-0.1,0.3-0.2l0,0c0.3,0,0.4-0.1,0.3-0.3
	c-0.1-0.1-0.2-0.1-0.4-0.2c-0.1,0-0.1,0-0.2-0.1c0,0-0.1,0-0.2,0h-0.1c-0.1,0-0.2,0-0.3,0.1l0,0c-0.1,0-0.1,0.1-0.2,0.1l0,0h-0.1
	v0.1c0,0.1-0.1,0.2-0.3,0.4v0.1h-0.1l0,0h-0.1c0,0.1,0,0.1-0.1,0.1c0,0.1,0,0.1-0.1,0.1c0,0,0,0.1-0.1,0.1l0,0
	c-0.1,0-0.1,0.1-0.1,0.1c0,0.1-0.1,0.3-0.3,0.5c-0.2,0.2-0.3,0.3-0.3,0.4L-96,436c0,0,0,0.1-0.1,0.2h-0.1v0.1l0,0
	c-0.1,0-0.1,0.1-0.2,0.1s-0.1,0-0.1,0.1c-0.1,0-0.1,0-0.3,0.1l0,0h-0.1c-0.1,0-0.1,0.1-0.2,0.1h-0.1c0,0-0.1,0-0.2,0.1h-0.1
	c-0.1,0.1-0.2,0.1-0.4,0.2c-0.1,0-0.1,0.1-0.2,0.1s-0.1,0.1-0.2,0.1l0,0h-0.1c-0.1,0-0.1,0.1-0.2,0.1h0.1c0,0-0.1,0.1-0.4,0.1
	c0,0-0.1,0-0.2,0.1c-0.1,0-0.2,0.1-0.2,0.1c-0.4,0.1-0.7,0.2-0.8,0.2c0.1-0.2,0.2-0.3,0.2-0.5l0.1-0.1c0,0,0-0.1,0.1-0.3
	c0.2,0.2,0.2,0.1,0.2,0.1l0,0l0.1-0.1l0,0l0.1-0.1l0.1-0.1l0.1-0.1v-0.1l0.1-0.1l0.1-0.1h0.1c0,0,0-0.1,0.1-0.2
	c0.1-0.1,0.1-0.2,0.2-0.3h0.1c0,0,0-0.1,0.1-0.2h0.1c0.1-0.1,0.1-0.2,0.3-0.3l0,0l0,0c0.2-0.1,0.3-0.1,0.3-0.2s0-0.2-0.2-0.3v-0.1
	h0.1l0.1-0.1c0-0.2,0-0.3-0.1-0.4v-0.1l0,0c-0.1-0.1-0.3-0.3-0.8-0.6l0,0c-0.1,0-0.1,0-0.1-0.1l-0.1-0.1c-0.1,0-0.1,0-0.3,0
	c-0.1,0-0.2,0-0.3,0s-0.2,0-0.3,0c-0.1,0-0.2,0-0.3,0.1c-0.1,0-0.1,0-0.2,0.1c-0.1,0-0.1,0-0.2,0.1c-0.1,0-0.2,0.1-0.4,0.1
	c-0.1,0-0.1,0.1-0.2,0.1l0,0c-0.1,0.1-0.3,0.2-0.5,0.4h-0.3h-0.1l0,0l-0.2,0.1l0,0l-0.1,0.1h-0.1c-0.1,0.1-0.2,0.1-0.3,0.2
	c0,0.1-0.1,0.2-0.2,0.3l0,0c-0.1,0-0.3,0.1-0.7,0.2l0,0h-0.1c0,0.1-0.1,0.1-0.2,0.2v0.1l0,0h-0.1c0,0,0,0.1,0,0.2l0,0
	c0,0,0,0.1-0.1,0.2l0,0l0,0c0,0-0.1,0.1-0.2,0.1l-0.1,0.1c0,0.1,0,0.1-0.1,0.2c0,0,0,0.1-0.1,0.2c0,0.1,0,0.1,0,0.2l0,0l0,0
	c-0.1,0-0.2,0.1-0.4,0.2l-0.1,0.1v0.1c-0.1,0-0.1,0-0.1,0.1c-0.1,0-0.2,0.1-0.4,0.2h-0.1c-0.1,0-0.1,0-0.1,0l-0.1,0.1h-0.1l-0.1,0.1
	h-0.1l0,0h-0.5v0.1c0,0-0.1,0-0.1,0.1c-0.1,0-0.2,0-0.4,0.1l-0.1,0.1l0,0c0,0-0.1,0-0.2,0c-0.1,0-0.2,0-0.2,0l-0.1,0.1
	c0,0-0.1,0-0.2,0.1c-0.4,0-0.6,0-0.6,0h-0.1c-0.1,0-0.1,0-0.1,0l0,0h-0.1V438c0-0.1,0-0.1,0-0.1c0-0.1,0-0.1,0.1-0.3
	c0-0.1,0.1-0.2,0.1-0.2l0.1-0.1c0-0.1,0.1-0.2,0.1-0.3l0,0c0.2-0.1,0.3-0.3,0.3-0.4c0.1-0.1,0.1-0.1,0.3-0.3h0.1
	c0.1,0,0.2-0.1,0.3-0.2V436c0.4-0.2,0.6-0.2,0.7-0.2h0.1c0-0.1-0.1-0.2-0.4-0.4c-0.2-0.1-0.4-0.2-0.6-0.2c-0.1,0-0.1,0-0.2,0
	s-0.2,0-0.2,0l-0.1,0.1l0,0c0,0.1-0.1,0.1-0.2,0.2l-0.3,0.3v0.1c-0.1,0.1-0.3,0.2-0.4,0.3c-0.1,0.1-0.1,0.2-0.2,0.4l0,0l0,0
	c0,0,0,0.1-0.1,0.1h-0.1h-0.1c0,0-0.1,0-0.2,0.1c-0.1,0.1-0.3,0.2-0.5,0.3c0,0.1-0.2,0.2-0.6,0.3l0,0h-0.1c-0.1,0-0.1,0.1-0.2,0.1
	h-0.1c-0.1,0-0.2,0.1-0.4,0.1c-0.1,0.1-0.2,0.1-0.3,0.1c-0.2,0.1-0.4,0.1-0.7,0v-0.1l0.1-0.1c0-0.1,0-0.2,0-0.3
	c0.1,0,0.1-0.1,0.2-0.2h0.1l0,0c0.2-0.1,0.2-0.1,0.2-0.2s-0.1-0.1-0.1-0.2c0.2-0.1,0.3-0.3,0.3-0.5l0,0c0-0.3,0.1-0.6,0.3-0.8v-0.4
	c0.1-0.1,0.2-0.2,0.1-0.3l0,0l0,0l0,0l0,0c0,0,0-0.1,0-0.2s-0.1-0.2-0.1-0.2c0-0.1,0.1-0.1,0.2-0.2v-0.1c-0.1,0-0.2-0.1-0.2-0.1
	c0-0.1-0.1-0.2-0.3-0.4l-0.1-0.1h-0.2c-0.1,0-0.1-0.1-0.2-0.1c-0.3,0-0.6,0-0.8,0.1l0,0c-0.1,0-0.2,0.1-0.3,0.2v0.1v0.1l-0.1,0.1
	c0,0-0.1,0.1-0.2,0.2s-0.3,0.2-0.5,0.3l0,0h-0.1l0,0c0,0-0.1,0-0.1,0.1h-0.1c0,0-0.1,0.1-0.2,0.1l-0.2,0.2l0,0l-0.2,0.1h-0.1
	c-0.2,0.1-0.2,0.1-0.2,0.2c-0.1,0.1-0.3,0.2-0.6,0.3l-0.1,0.1h-0.1l-0.1,0.1h-0.4l-0.1,0.2h-0.1v0.1c0,0-0.1,0-0.2,0.1
	c-0.1,0-0.5,0-1.1,0.1c-0.1,0.1-0.2,0.1-0.4,0.2l-0.1-0.1c0.1,0.2,0.1,0.3,0.1,0.4c0,0,0.1,0.1,0.2,0.1c0,0,0,0.1,0.1,0.1
	c-0.1,0.1-0.2,0.1-0.3,0.2l-0.2,0.1c-0.1,0-0.3,0.1-0.5,0.3h-0.1l-0.1,0.1c-0.1,0-0.3,0-0.7,0.1c-0.4,0.1-0.6,0.1-0.7,0.1
	s-0.2,0-0.3,0c-0.1,0-0.2,0-0.3-0.1s-0.3-0.2-0.6-0.4l0,0l-0.1-0.1c0-0.1,0-0.1-0.1-0.2v-0.2l0,0l0,0l0,0v-0.1
	c0.2-0.1,0.4-0.1,0.7-0.3c0.1,0,0.2-0.1,0.5-0.2l0,0h0.1l0,0l0.2-0.1l0,0l0,0c0.1-0.1,0.3-0.2,0.4-0.3c0.1-0.1,0.2-0.2,0.2-0.3h0.1
	c0,0,0.1-0.1,0.1-0.2c0.1-0.1,0.2-0.2,0.3-0.3l0,0c0.3-0.3,0.4-0.5,0.4-0.6h0.2c0.1-0.1,0.1-0.2,0.1-0.3c0-0.3-0.3-0.6-0.8-0.8
	c-0.3-0.1-0.6-0.1-0.6-0.1c-0.1,0-0.2,0-0.3,0.1c0,0-0.1,0.1-0.2,0.1c0,0,0,0.1-0.1,0.1h-0.1l0,0c-0.2,0.1-0.3,0.2-0.4,0.3v0.1
	c-0.1,0.1-0.2,0.1-0.2,0.1h-0.1c0,0,0,0.1-0.1,0.1v0.1l-0.1,0.1c-0.1,0.1-0.2,0.1-0.4,0.3v0.1l0,0c0,0.1,0,0.1-0.1,0.1
	c-0.1,0.2-0.3,0.6-0.6,1h-0.1c-0.1,0.1-0.2,0.4-0.3,0.7l-0.1,0.1v0.1v0.3l0,0c-0.1,0-0.1,0.1-0.2,0.1l-0.2,0.1
	c-0.1,0-0.2,0.1-0.3,0.2h-0.1c0,0-0.1,0.1-0.2,0.2l0,0c0,0-0.1,0.1-0.3,0.2h-0.1c-0.1,0-0.1,0.1-0.2,0.2c0,0-0.1,0-0.1,0.1
	c-0.3,0-0.4,0-0.4,0l0,0c-0.1,0-0.2,0.1-0.4,0.1c-0.1,0-0.2,0-0.3,0.1c-0.1,0-0.1,0-0.2,0.1c-0.2,0-0.4,0.1-0.7,0.1l0,0h-0.2
	c-0.1-0.1-0.2-0.2-0.3-0.4c0,0,0-0.1-0.1-0.2v-0.6c0.1-0.1,0.2-0.5,0.2-1.1l0,0c0,0,0-0.1,0.1-0.1h0.1c0.1,0,0.1-0.1,0.2-0.2
	c0,0,0.1-0.1,0.4-0.3l0,0c0.1-0.1,0.1-0.1,0.2-0.2s0.1-0.1,0.2-0.1s0.1-0.1,0.2-0.2l0,0c0,0,0.2-0.2,0.6-0.5
	c0.2-0.1,0.2-0.1,0.2-0.2c0.1-0.1,0.1-0.1,0.2-0.2c0.1-0.1,0.2-0.1,0.2-0.2l0,0l0.1-0.1l0,0l0.1-0.1c0.1-0.1,0.2-0.2,0.3-0.3h0.1
	c0,0,0.1-0.1,0.1-0.2l0,0c0,0,0-0.1,0.1-0.2c0.1-0.1,0.1-0.1,0.1-0.2c0,0,0-0.1,0.1-0.1h0.1v-0.1l0,0c0,0,0-0.1,0.1-0.1l0.1-0.1
	c0.1-0.1,0.2-0.3,0.4-0.5c0,0,0.1-0.2,0.3-0.5c0,0,0-0.1,0-0.2s0-0.2,0-0.2l0,0c0-0.3,0-0.5-0.1-0.5c0,0-0.2-0.2-0.5-0.4
	c0,0-0.1,0-0.3-0.1c-0.2,0-0.3-0.1-0.4-0.1s-0.2,0-0.2,0.1h-0.1c0,0-0.1,0.1-0.2,0.1c-0.1,0.1-0.2,0.2-0.3,0.3l0,0l0,0
	c-0.1,0-0.1,0-0.1,0.1h-0.1l-0.1,0.1c0,0.2,0,0.3-0.1,0.3c-0.1,0.1-0.2,0.2-0.3,0.2h-0.1c0,0,0,0.1-0.1,0.1v0.1c0,0.1,0,0.1,0,0.1
	c-0.3,0.2-0.4,0.3-0.5,0.4s-0.2,0.3-0.3,0.5l-0.1,0.1c-0.1,0-0.1,0.1-0.2,0.2c0,0,0,0.1-0.1,0.2l-0.1,0.1l0,0v0.1l0,0v0.4l0,0
	c0,0.1,0,0.1-0.1,0.2c0,0.1,0,0.1-0.1,0.1v0.1c0,0-0.1,0.1-0.2,0.1c-0.1,0-0.2,0-0.2,0s-0.1-0.1-0.3-0.1c0,0-0.1-0.1-0.4-0.2
	c-0.2-0.1-0.3-0.1-0.4-0.1l-0.1-0.1h-0.4h-0.1c-0.1,0-0.2,0-0.3,0c-0.1,0-0.2,0-0.3,0l-0.2,0.1h-0.1c-0.1,0.1-0.3,0.2-0.6,0.3h-0.1
	l-0.2,0.1l0,0c0,0-0.1,0-0.2,0.1c-0.1,0-0.2,0.1-0.4,0.2l0,0h-0.1l0,0c-0.1,0-0.2,0.1-0.3,0.1h-0.1l-0.1,0.1l0,0
	c-0.1,0.1-0.2,0.2-0.4,0.3h-0.1c0,0,0,0.1-0.1,0.1v0.1h-0.1l0.2,0.2l0,0v0.1c0,0-0.1,0-0.1,0.1l0,0c0,0,0,0.1-0.1,0.1l0,0h-0.1
	c0,0,0,0.1-0.1,0.1c0,0.1,0,0.2-0.1,0.4c-0.1,0.2-0.1,0.3-0.1,0.4s0,0.2,0,0.4c0,0.2,0,0.3,0,0.4l0,0c0,0.1,0,0.2-0.1,0.3
	c0,0.1,0,0.2,0,0.3l0.1,0.1l0.1,0.1l0.1,0.1l0,0c0.1,0,0.2,0.1,0.3,0.2c0.9,0.2,1.5,0.3,1.9,0.2h0.1h0.1c0.1-0.1,0.3-0.2,0.6-0.4
	l0,0h0.1c0,0,0.1-0.1,0.2-0.1l0,0c0.1-0.1,0.2-0.1,0.4-0.2l0.1-0.1c0.1,0,0.2-0.1,0.3-0.2h0.1c0.1,0,0.2-0.1,0.3-0.2
	c0.1,0,0.1-0.1,0.2-0.1c0.1,0,0.1,0,0.2-0.1h0.2c0,0.1,0,0.2-0.1,0.3l0,0l0,0c-0.1,0-0.1,0.1-0.1,0.2s0,0.2,0.1,0.2
	c0,0.1,0,0.3,0.1,0.5c0.1,0.1,0.2,0.1,0.5,0.2l0,0c0.1,0,0.2,0.1,0.3,0.1s0.2,0,0.2,0.1h0.9c0.1,0,0.3-0.1,0.5-0.1h0.1h0.1
	c0,0,0.2-0.1,0.6-0.2c0.3-0.1,0.5-0.2,0.6-0.2c0.2,0,0.3-0.1,0.5-0.2h0.1c0.1,0,0.2-0.1,0.4-0.2l0,0c0.1,0,0.2-0.1,0.3-0.2
	c0.1,0,0.2-0.1,0.2-0.1h0.1c0,0,0,0,0.1,0.1l0.1,0.1c0.1,0.1,0.3,0.1,0.5,0.2h0.1c0,0,0.1,0.1,0.2,0.1h0.1l0.1,0.1
	c0.1,0,0.2,0,0.4,0.1c0.2,0,0.3,0.1,0.4,0l0,0c0.3,0,0.6,0,0.8,0c0.1,0,0.3,0,0.5-0.1c0.2,0,0.4-0.1,0.5-0.1c0.1,0,0.2-0.1,0.3-0.1
	l0,0h0.1l0,0l0.3-0.1l0,0c0.1,0,0.1-0.1,0.2-0.1l0,0l0.2-0.1l0.1-0.1c0,0,0.1,0,0.2-0.1l0.1-0.1c0.1,0,0.1,0,0.2-0.1
	c0,0,0,0.1,0.1,0.2h0.1v0.1c0,0,0.1,0.1,0.3,0.1l0,0l0.1,0.1v0.1h-0.6c0.1,0.2,0.4,0.4,0.8,0.6l0,0h0.1l0,0l0.4,0.2h0.1
	c0.1,0,0.1,0.1,0.3,0.1c0.4,0,0.8,0,1.4-0.1c0,0,0.1-0.1,0.2-0.1c0,0,0.1-0.1,0.2-0.1h0.1c0.1-0.1,0.3-0.2,0.6-0.3l0,0
	c0.6,0,1.1-0.1,1.4-0.1c0.1-0.1,0.3-0.1,0.6-0.2c0.1,0,0.3-0.1,0.5-0.2c0,0,0.1,0,0.2,0s0.1,0,0.1-0.1c0.1,0,0.1-0.1,0.3-0.1h0.1
	c0,0,0.1-0.1,0.2-0.1l0,0c0,0,0,0,0,0.1s0,0.1,0,0.2s0,0.1,0,0.2s0.1,0.2,0.1,0.3c0.1,0.1,0.1,0.1,0.1,0.2s0.1,0.1,0.3,0.2l0.3,0.1
	c0,0,0.1,0,0.2,0c0.1,0,0.2,0,0.2,0c0.4,0,0.8-0.1,1-0.2h0.1c0,0,0.1,0,0.2,0c0,0,0.1-0.1,0.3-0.1l0,0c0.1,0,0.1-0.1,0.2-0.1
	s0.3-0.1,0.5-0.2l0,0c0.1,0,0.3-0.1,0.6-0.1c0.1,0,0.1-0.1,0.3-0.1h0.1c0.2-0.1,0.4-0.1,0.6-0.3c0,0,0,0.1,0.1,0.1
	c0,0.1,0.1,0.1,0.2,0.3h0.1l0,0c0.1,0,0.1,0,0.2,0.1h0.2l0.2,0.1v0.1c0.1,0,0.1,0,0.1,0.1l0,0l0,0c0,0,0.1,0,0.1,0.1h0.1
	c0.1,0,0.2,0,0.2,0.1c0.2,0,0.4,0,0.7-0.1c0.1-0.1,0.3-0.1,0.5-0.2l0,0h0.1l0.1-0.1c0.1,0,0.1-0.1,0.2-0.1h0.1
	c0.1,0,0.1-0.1,0.2-0.1l0,0c0.1-0.1,0.3-0.1,0.3-0.2l0,0l0,0c0.2-0.1,0.4-0.3,0.7-0.5h0.1l0,0c0.1,0.1,0.1,0.2,0,0.3l-0.1,0.1l0,0
	l-0.1,0.3c0,0.1-0.1,0.2-0.2,0.4c0,0.1,0,0.1-0.1,0.2c0,0.1-0.1,0.2-0.1,0.3l0,0v0.1l-0.1,0.1h-0.1l0,0h-0.1c-0.1,0-0.3,0.1-0.5,0.2
	h-0.1c-0.1,0-0.2,0.1-0.3,0.1l0,0l0,0c0,0-0.1,0.1-0.2,0.1l-0.2-0.2c-0.1,0-0.2,0-0.3,0c0,0-0.2,0.1-0.4,0.3h-0.1l0,0
	c-0.1,0-0.4,0.1-0.9,0.4l0,0c-0.1,0-0.3,0.1-0.5,0.2c0,0-0.1,0.1-0.2,0.1h-0.1c-0.1,0-0.1,0.1-0.3,0.1l0,0c0,0-0.2,0.1-0.4,0.2l0,0
	c-0.1,0.1-0.2,0.1-0.4,0.2c-0.1,0-0.2,0-0.3,0.1c-0.1,0-0.2,0.1-0.3,0.2l0,0l0,0c-0.1,0.1-0.3,0.2-0.4,0.3c0,0.1-0.1,0.1-0.1,0.1
	v0.1l-0.1,0.1l0,0l-0.2,0.1l-0.1,0.1c0,0-0.1,0-0.1,0.1h-0.1c-0.1,0.1-0.3,0.1-0.4,0.2c0,0.1,0,0.2-0.1,0.2c0,0.1,0,0.1-0.1,0.1l0,0
	h-0.1c0,0,0,0.1-0.1,0.1c0,0.1,0,0.1-0.1,0.2v0.1l0,0c0,0.1-0.1,0.4-0.2,0.7v0.4c0,0.1,0,0.2,0.1,0.3c0.1,0.1,0.1,0.3,0.1,0.3
	l0.1,0.1l0.1,0.1c0.1,0,0.2,0.1,0.3,0.1c0,0,0.1,0,0.2,0.1l0,0c0,0,0.1,0,0.4,0.1h0.1h0.1c0.1,0,0.3,0,0.5,0c0,0,0.1,0,0.2,0
	c0.1,0,0.1,0,0.2,0c0.1,0,0.2-0.1,0.3-0.1s0.1,0,0.3-0.1c0.1,0,0.3-0.1,0.5-0.2c0-0.1,0.1-0.2,0.1-0.2c0.1-0.1,0.1-0.1,0.2-0.2
	c0.2-0.1,0.4-0.2,0.6-0.5c0.2-0.3,0.4-0.4,0.5-0.5v-0.1h0.1l0.3-0.3l0,0c0.1,0,0.1-0.1,0.1-0.1s0.1-0.1,0.1-0.2l-0.1,0.7l0,0
	l0.1-0.1l0.2-0.2l0,0c0.1-0.2,0.3-0.4,0.6-0.7c0-0.1,0.1-0.2,0.2-0.2c0,0,0-0.1,0.1-0.2l0,0l0.2-0.1c0.1-0.1,0.1-0.3,0.2-0.4
	c0,0,0.1-0.1,0.2-0.2l0,0c0,0,0.1-0.1,0.1-0.2c0,0,0.1-0.1,0.1-0.2l0,0c0.1-0.1,0.1-0.2,0.2-0.4h0.1c0,0,0-0.1,0.1-0.2
	c0-0.1,0.1-0.1,0.1-0.2c0.1-0.1,0.3-0.4,0.7-0.8c0.1,0,0.1,0,0.2-0.1c0.1,0,0.1,0,0.2,0c0.1,0,0.1,0,0.2-0.1c0.1,0,0.2-0.1,0.3-0.1
	l0,0h0.1c0.1,0,0.2-0.1,0.4-0.1l0,0c0,0,0.1-0.1,0.2-0.1l0,0c0.1,0,0.2,0,0.4-0.1h0.1c0,0,0.1-0.1,0.2-0.1c0.1,0,0.1,0,0.2-0.1h0.1
	c0.1,0,0.1-0.1,0.2-0.1l0,0l0.1-0.1c0.1,0,0.2-0.1,0.4-0.2h0.1c0.1,0,0.1-0.1,0.2-0.1h0.1h0.1l0,0l0,0c0.1,0,0.2-0.1,0.3-0.1l0,0
	c0,0-0.1,0.1-0.2,0.1c0,0.1-0.1,0.1-0.1,0.3h-0.1l0,0h-0.1c-0.1,0-0.1,0.1-0.2,0.1v0.1l-0.1,0.1l0.1,0.2l0.1,0.1c0,0,0.1,0,0.1,0.1
	c0.2,0,0.4,0.1,0.6,0.2c0.2,0,0.3,0,0.4,0c0,0,0-0.1,0-0.2s0-0.1,0-0.2c0,0,0-0.1,0.1-0.1l0.1-0.1c0,0,0.1-0.1,0.1-0.2
	c0.1,0,0.1-0.1,0.2-0.2l0,0v-0.1l0,0c0.1,0,0.1-0.1,0.2-0.2l0,0c0.1,0,0.1-0.1,0.2-0.2l0,0c0.2-0.2,0.3-0.3,0.5-0.4l0,0h0.1
	c0,0,0,0,0.1-0.1s0.3-0.2,0.5-0.4c0.1,0,0.2-0.1,0.3-0.2h0.1l0.1-0.1l0,0l0,0c0.1,0,0.1,0,0.1-0.1c0.1,0,0.1-0.1,0.3-0.2h0.1
	c0,0,0.1-0.1,0.1-0.2c0.1,0,0.1,0,0.1-0.1c0,0-0.1,0.3-0.2,0.7c0,0.1,0,0.2-0.1,0.3c0,0.1-0.1,0.2-0.1,0.2c0,0.1-0.1,0.2-0.2,0.4
	v0.5c-0.1,0-0.1,0.1-0.1,0.2s0,0.3,0.1,0.5s0.2,0.3,0.3,0.4h0.1c0.1,0,0.1,0,0.2,0c0.1,0.1,0.2,0.1,0.5,0.1c0.2,0,0.4,0,0.6,0
	c0,0,0.1-0.1,0.2-0.1c0,0,0.1,0,0.2,0c0.3-0.1,0.7-0.4,1.3-0.6l0,0h0.1c0.1,0,0.1-0.1,0.2-0.1c0,0,0.1-0.1,0.2-0.1l0,0
	c0.1,0,0.2-0.1,0.3-0.2l0,0h0.1l0,0c0.2,0,0.4-0.1,0.6-0.4h0.1C-88.1,436.6-88,436.6-87.9,436.5L-87.9,436.5z M-101.6,439.1
	C-101.6,439.2-101.6,439.2-101.6,439.1c-0.2,0.2-0.3,0.4-0.4,0.6c0,0,0,0.1-0.1,0.2c0,0.1-0.1,0.1-0.1,0.1v0.1h-0.1v0.1h-0.1l0,0
	l-0.1,0.1v0.1l-0.2,0.2h-0.1c0,0,0,0.1-0.1,0.2s-0.1,0.2-0.1,0.2l-0.1,0.1c0,0,0,0.1-0.1,0.1c0,0,0,0.1-0.1,0.2l0,0l-0.1,0.1
	c0,0,0,0.1-0.1,0.1c0,0-0.1,0.1-0.2,0.2c0,0,0,0.1-0.1,0.3l-0.1,0.1l0,0l0,0c-0.1,0.1-0.1,0.1-0.2,0.2l0,0l0,0c0,0-0.1,0.1-0.2,0.2
	c0,0-0.1,0.1-0.2,0.2l0,0c-0.1,0.2-0.2,0.2-0.2,0.3l-0.1,0.1c0,0-0.1,0.1-0.1,0.2h-0.2l0,0c-0.1,0.1-0.2,0.2-0.4,0.3v0.1l-0.1,0.1
	l0,0h-0.1c-0.1,0.1-0.2,0.2-0.3,0.3l0,0v0.1c-0.2,0.2-0.3,0.3-0.4,0.3c-0.1,0-0.1,0.1-0.3,0.2c-0.1,0.1-0.3,0.2-0.4,0.2
	c0,0.1-0.1,0.1-0.2,0.2l0,0c-0.1,0.1-0.2,0.1-0.4,0.1c-0.3,0-0.5-0.1-0.7-0.2l0,0V445h-0.1c-0.1-0.5-0.1-0.8,0.1-1v-0.4l0.3-0.2
	c0.1-0.1,0.2-0.3,0.3-0.6l0.1-0.1l0,0l0.1-0.2l0,0c0-0.1,0.2-0.2,0.5-0.5l0,0c0,0,0.1-0.1,0.2-0.2l0,0l0,0c0.1-0.1,0.2-0.2,0.4-0.4
	h0.1c0,0,0-0.1,0.1-0.1l0.1-0.1c0.2-0.1,0.3-0.1,0.3-0.2h0.1c0,0,0.1-0.1,0.2-0.1l0,0l0,0c0.3-0.2,0.6-0.4,1-0.6l0,0h0.1l0,0
	c0.1,0,0.1-0.1,0.3-0.1l0,0c0.1,0,0.1,0,0.3-0.1l0,0h0.1c0.1-0.1,0.3-0.2,0.4-0.2l0,0c0.1,0,0.1,0,0.2-0.1h0.1
	c0.1,0,0.1-0.1,0.2-0.1h0.1l0.1-0.1h0.1h0.1c0.1,0,0.2-0.1,0.2-0.1h0.1C-102.1,439.1-101.9,439-101.6,439.1L-101.6,439.1z
	 M-98.5,434.3L-98.5,434.3l-0.2,0.2c0,0,0,0.1-0.1,0.1c0,0-0.1,0.1-0.1,0.2l-0.1,0.1l0,0l-0.1,0.1l0,0h-0.1v0.1l0,0
	c0,0.1,0,0.1-0.1,0.1c0,0-0.1,0.1-0.1,0.2h-0.2c0,0.2-0.1,0.3-0.2,0.3l0,0h-0.1l0,0h-0.1c0,0.1-0.2,0.2-0.5,0.4
	c-0.3,0.2-0.4,0.3-0.5,0.4l-0.1,0.1c0,0-0.1,0.1-0.2,0.1l0,0h-0.1c-0.1,0-0.1,0-0.2,0.1c0,0-0.1,0-0.2,0s-0.1,0-0.1,0l0,0
	c0,0-0.1,0.1-0.2,0.1c0,0,0,0-0.1,0.1c0,0.1-0.1,0.1-0.2,0.2c-0.1,0-0.1,0.1-0.3,0.1l0,0c-0.2,0.1-0.4,0.1-0.6,0.1
	c0,0-0.1-0.1-0.2-0.1l-0.2-0.1c0-0.1-0.1-0.2-0.1-0.3s0.1-0.3,0.2-0.5s0.2-0.4,0.2-0.5c0.2-0.1,0.3-0.2,0.3-0.3
	c0-0.1,0.1-0.1,0.3-0.2l0.1-0.1v-0.2c0.1,0,0.1,0,0.1-0.1l0.3-0.2l0,0c0.2-0.1,0.3-0.2,0.4-0.3h0.1c0,0,0,0,0.1-0.1v-0.1h0.1h0.1
	c0.1-0.1,0.2-0.1,0.3-0.2c0.1,0,0.1,0,0.2-0.1c0.1,0,0.2-0.1,0.4-0.2c0,0,0.2-0.1,0.4-0.2l0,0c0.1,0,0.2-0.1,0.4-0.1
	c0.1,0,0.1,0,0.2-0.1c0.1,0,0.2,0,0.4-0.1c0.2,0,0.3-0.1,0.4-0.1c0,0,0.1,0,0.2,0.1v0.1h0.1L-98.5,434.3z M-104.8,433.7v-0.1
	l-0.1-0.1c-0.1,0-0.2-0.1-0.4-0.2c-0.2-0.1-0.3-0.1-0.4-0.1s-0.2,0-0.3,0.1s-0.2,0.1-0.2,0.1l-0.1,0.1v0.1l0.1,0.1l0.1,0.1l-0.1,0.1
	l0,0h-0.1l0,0c0,0.1,0,0.2,0.2,0.3l0,0h0.1l0,0h0.1c0.1-0.1,0.2-0.1,0.3-0.1l0,0h0.1c0.2-0.1,0.4-0.2,0.6-0.3L-104.8,433.7z
	 M-115.1,437.9c-0.3,0.3-0.5,0.4-0.8,0.4c-0.1,0-0.2,0-0.3,0l0,0l0,0v-0.1l-0.2-0.1l0,0c-0.3-0.3-0.5-0.4-0.5-0.5
	c-0.1-0.1-0.2-0.4-0.1-0.6h0.1c0.1,0,0.2,0.1,0.3,0.1l0,0l0,0c0.2,0.1,0.5,0.3,0.8,0.5l0,0c0.1,0,0.2,0.1,0.3,0.2c0,0,0.1,0,0.2,0
	C-115.2,437.8-115.2,437.8-115.1,437.9L-115.1,437.9L-115.1,437.9z M-113.2,434c0,0.5,0,0.9-0.1,1l0,0l0,0l0,0v0.1l0,0
	c0,0.1-0.1,0.2-0.1,0.3v0.1l0,0c-0.1,0.1-0.1,0.2-0.2,0.4c-0.1,0.1-0.2,0.3-0.3,0.5s-0.2,0.4-0.3,0.5c0,0.1,0,0.1-0.1,0.2
	c0,0.1-0.1,0.1-0.2,0.2c-0.1,0-0.2,0-0.4,0l0,0c-0.1,0-0.2,0-0.3-0.1c-0.2-0.1-0.4-0.2-0.7-0.4l0,0c-0.1-0.1-0.3-0.2-0.6-0.4
	c-0.1-0.2-0.1-0.3,0-0.5c0.1,0,0.1-0.1,0.1-0.1l0.1-0.1l0.1-0.1v-0.1l0,0c0.1-0.1,0.2-0.1,0.3-0.2l0,0c0,0,0.1-0.1,0.3-0.2l0,0
	l0.1-0.1l0.1-0.1c0,0,0.1,0,0.2-0.1h0.1c0.1-0.1,0.2-0.1,0.2-0.2c0.1,0,0.2-0.1,0.3-0.3l0.2-0.1h0.1l0.1-0.1l0,0
	c0,0,0.1-0.1,0.3-0.1l0,0h0.1c0.1-0.1,0.2-0.1,0.3-0.2h0.1C-113.2,433.8-113.2,433.9-113.2,434L-113.2,434z M-119.5,433.7
	c0,0.1-0.1,0.3-0.1,0.6h-0.1c0,0,0,0.1-0.1,0.2c0,0-0.1,0.1-0.2,0.2c0,0,0,0.1-0.1,0.1c0,0.1,0,0.1-0.1,0.1v0.1
	c-0.1,0.1-0.3,0.2-0.5,0.3c0,0.2-0.2,0.3-0.5,0.4c0,0-0.1,0-0.3,0.1c0,0.1-0.3,0.2-0.6,0.2h-0.1v-0.2l0,0c0-0.1,0-0.1,0.1-0.3
	c0.1,0,0.1-0.1,0.1-0.3h0.1l0.3-0.5c0-0.1,0.1-0.2,0.3-0.3c0.1-0.1,0.1-0.2,0.2-0.3l0.1-0.1c0-0.1,0.1-0.2,0.4-0.3l0,0l0,0l0,0h0.1
	c0.2-0.2,0.4-0.3,0.5-0.3c0.1-0.1,0.2-0.1,0.3-0.1s0.2,0,0.3,0.1C-119.5,433.6-119.5,433.7-119.5,433.7L-119.5,433.7z M-123.6,431
	c0,0,0,0.1-0.1,0.1h-0.1c0,0.2-0.1,0.3-0.2,0.4c0,0.1,0,0.1-0.1,0.1v0.1c0,0.1-0.1,0.1-0.2,0.2v0.1c0,0.1-0.1,0.1-0.2,0.2
	c0,0.1,0,0.1-0.1,0.1c0,0,0,0.1-0.1,0.1l0,0h0.1v0.1h-0.1c0,0.1,0,0.1-0.1,0.1c-0.1,0.1-0.2,0.3-0.3,0.5c0,0-0.1,0.1-0.3,0.2l0,0
	c-0.1,0-0.2,0.1-0.3,0.2l-0.1,0.1l0,0c-0.1,0.1-0.2,0.3-0.5,0.5c0,0,0,0-0.1,0.1h-0.1v0.1c-0.1,0.1-0.3,0.2-0.5,0.3l0,0
	c-0.1,0-0.1,0.1-0.3,0.1v0.3l0.2-0.3c0-0.1,0-0.1,0.1-0.1c0,0,0-0.1,0-0.2l0,0c0-0.1,0.1-0.1,0.1-0.2s0.1-0.1,0.2-0.3
	c0,0,0.1-0.1,0.2-0.4h0.1v-0.1l0.1-0.1c0-0.1,0.1-0.2,0.2-0.4v-0.1c0.3-0.2,0.4-0.4,0.4-0.7l0.1-0.1c0.1-0.1,0.2-0.3,0.3-0.5
	c0.1,0,0.2-0.1,0.3-0.2l0,0c0.1-0.1,0.2-0.2,0.3-0.3v-0.1c0.1,0,0.1,0,0.1-0.1h0.1c0.1-0.1,0.2-0.1,0.3-0.2h0.1c0,0,0.1-0.1,0.3-0.1
	l0,0c0,0.1,0.1,0.2,0,0.4C-123.6,430.9-123.6,430.9-123.6,431L-123.6,431z"/>
<linearGradient id="XMLID_2_" gradientUnits="userSpaceOnUse" x1="-192.5691" y1="434.9604" x2="-138.3191" y2="390.9604" gradientTransform="matrix(1 0 0 -1 0 841.8701)">
	<stop  offset="0" style="stop-color:#785827"/>
	<stop  offset="0.2125" style="stop-color:#F5E486"/>
	<stop  offset="0.3596" style="stop-color:#B08039"/>
	<stop  offset="0.4899" style="stop-color:#B08039"/>
	<stop  offset="0.6474" style="stop-color:#F5E486"/>
	<stop  offset="0.827" style="stop-color:#B08039"/>
	<stop  offset="1" style="stop-color:#F5E486"/>
</linearGradient>
<path id="XMLID_29_" class="st1" d="M-144.7,439.1h-21.8H-177h-4.7h-0.4l0,0c-2.4-0.1-2.6-0.8-1.3-3.1l11-18.9l4.9-8.4
	c0.5-0.9,0.6-0.8,1.1-0.1c0.4,0.6,0.7,0.8,0.1,1.7l-14.7,25.2h32.9c1.1,0,1-0.1,0.4-1.1l-18.1-31.1c-0.7-1.1-0.6-1.2-1.3,0
	l-14.5,24.8l0,0l-6.4,11h-0.5h-3.6l1.8-3l11-18.9l11-18.9c1.4-2.4,2.2-2.4,3.6,0l11,18.8l11,18.9c1.4,2.4,1,3.1-1.7,3.1H-144.7z"/>
</svg>
