<?xml version="1.0" encoding="utf-8"?>
<!-- Generator: Adobe Illustrator 19.0.0, SVG Export Plug-In . SVG Version: 6.00 Build 0)  -->
<svg version="1.1" id="Layer_1" xmlns="http://www.w3.org/2000/svg" xmlns:xlink="http://www.w3.org/1999/xlink" x="0px" y="0px"
	 viewBox="0 0 56 56" style="enable-background:new 0 0 56 56;" xml:space="preserve">
<style type="text/css">
	.st0{fill-rule:evenodd;clip-rule:evenodd;fill:url(#XMLID_13_);}
	.st1{fill-rule:evenodd;clip-rule:evenodd;fill:url(#SVGID_1_);}
	.st2{fill:#FFFFFF;}
</style>
<linearGradient id="XMLID_13_" gradientUnits="userSpaceOnUse" x1="56" y1="28" x2="0" y2="28">
	<stop  offset="0" style="stop-color:#D59631"/>
	<stop  offset="0.5" style="stop-color:#FAEBA0"/>
	<stop  offset="1" style="stop-color:#D59631"/>
</linearGradient>
<path id="XMLID_2_" class="st0" d="M28,0c15.5,0,28,12.5,28,28S43.5,56,28,56C12.5,56,0,43.5,0,28S12.5,0,28,0z"/>
<linearGradient id="SVGID_1_" gradientUnits="userSpaceOnUse" x1="9.6153" y1="46.3847" x2="46.3848" y2="9.6152">
	<stop  offset="0" style="stop-color:#162433"/>
	<stop  offset="1" style="stop-color:#194777"/>
</linearGradient>
<path class="st1" d="M28,2c14.4,0,26,11.6,26,26S42.4,54,28,54S2,42.4,2,28S13.6,2,28,2z"/>
<path class="st2" d="M36.7,26.3l4.3,3l-5,6.9l-4.2-3L36.7,26.3z M31.4,33.6l0.2,4.2l4.1-1.2L31.4,33.6z M41.6,26.9l-2.8-2
	c-0.4-0.3-0.9-0.2-1.2,0.2c0,0-0.6,0.8-0.6,0.9l4.2,3c0,0,0.6-0.8,0.6-0.9C42.1,27.7,42,27.2,41.6,26.9z M33.9,20.4H19.1
	c-0.5,0-0.9,0.4-0.9,0.8s0.4,0.8,0.9,0.8h14.9c0.5,0,0.9-0.4,0.9-0.8S34.4,20.4,33.9,20.4z M34.8,24.8c0-0.5-0.4-0.8-0.9-0.8H19.1
	c-0.5,0-0.9,0.4-0.9,0.8c0,0.5,0.4,0.8,0.9,0.8h14.9C34.4,25.6,34.8,25.2,34.8,24.8z M30,27.5h-11c-0.5,0-0.9,0.4-0.9,0.8
	c0,0.5,0.4,0.8,0.9,0.8h11c0.5,0,0.9-0.4,0.9-0.8C30.9,27.9,30.5,27.5,30,27.5z M30,31.1h-11c-0.5,0-0.9,0.4-0.9,0.8
	c0,0.5,0.4,0.8,0.9,0.8h11c0.5,0,0.9-0.4,0.9-0.8C30.9,31.4,30.5,31.1,30,31.1z M37.3,37.6c0,1.5-1.3,2.8-2.8,2.8h-5.7v-1.2
	c0-2.4-2-4.4-4.5-4.4h-8.5V18.4c0-1.5,1.3-2.8,2.8-2.8h16c1.5,0,2.8,1.2,2.8,2.8v6.2c0.3-0.3,0.6-0.4,1-0.4c0.2,0,0.5,0.1,0.7,0.2
	v-6c0-2.5-2-4.4-4.5-4.4h-16C16,14,14,16,14,18.4v17.1c0,0,0,0,0,0.1c0,0,0,0.1,0,0.1c0,0,0,0.1,0,0.1c0,0,0,0.1,0,0.1
	c0,0,0.1,0.1,0.1,0.1c0,0,0,0.1,0.1,0.1c0.1,0.1,0.1,0.1,0.2,0.1l13,5.6c0.1,0,0.2,0.1,0.3,0.1c0,0,0,0,0,0l0,0h6.6
	c2.5,0,4.5-2,4.5-4.4v-4.8l-1.7,2.3V37.6z"/>
</svg>
